<svg xmlns="http://www.w3.org/2000/svg" xmlns:xlink="http://www.w3.org/1999/xlink" width="337.295" height="1030.129" viewBox="0 0 337.295 1030.129">
  <defs>
    <linearGradient id="linear-gradient" x1="0.972" y1="0.047" x2="0.326" y2="0.664" gradientUnits="objectBoundingBox">
      <stop offset="0" stop-color="#5583ff"/>
      <stop offset="1" stop-color="#314e9b"/>
    </linearGradient>
    <linearGradient id="linear-gradient-2" x1="0.507" y1="-0.04" x2="0.5" y2="1" xlink:href="#linear-gradient"/>
  </defs>
  <g id="circle_rectangle" data-name="circle &amp; rectangle" transform="translate(227.377 133.481)">
    <path id="Subtraction_8" data-name="Subtraction 8" d="M129.6,188.228H53.423A53.434,53.434,0,0,1,0,134.732V53.5A53.4,53.4,0,0,1,53.423,0H129.6a53.435,53.435,0,0,1,53.423,53.5v81.235a53.4,53.4,0,0,1-53.423,53.5ZM51.69,29.721a23.026,23.026,0,0,0-23,23V136.5a23.026,23.026,0,0,0,23,23h79.643a23.026,23.026,0,0,0,23-23V52.72a23.026,23.026,0,0,0-23-23Z" transform="translate(-11.266 111.297) rotate(-157)" opacity="0.8" fill="url(#linear-gradient)"/>
    <path id="Subtraction_9" data-name="Subtraction 9" d="M119.416,238.83A120.289,120.289,0,0,1,95.35,236.4a118.755,118.755,0,0,1-42.7-17.968A119.757,119.757,0,0,1,9.384,165.9a118.768,118.768,0,0,1-6.958-22.415,120.563,120.563,0,0,1,0-48.133,118.759,118.759,0,0,1,17.968-42.7A119.77,119.77,0,0,1,72.934,9.384,118.8,118.8,0,0,1,95.35,2.426a120.58,120.58,0,0,1,48.132,0,118.762,118.762,0,0,1,42.7,17.968,119.759,119.759,0,0,1,43.265,52.539A118.785,118.785,0,0,1,236.4,95.348a120.575,120.575,0,0,1,0,48.133,118.768,118.768,0,0,1-17.968,42.7A119.765,119.765,0,0,1,165.9,229.446a118.825,118.825,0,0,1-22.416,6.958A120.29,120.29,0,0,1,119.416,238.83Zm1.239-206.912a87.253,87.253,0,1,0,87.253,87.253A87.351,87.351,0,0,0,120.655,31.918Z" transform="translate(-227.377 719.163) rotate(-42)" opacity="0.81" fill="url(#linear-gradient-2)"/>
  </g>
</svg>
