<svg xmlns="http://www.w3.org/2000/svg" xmlns:xlink="http://www.w3.org/1999/xlink" width="417.67" height="433.832" viewBox="0 0 417.67 433.832">
  <defs>
    <clipPath id="clip-path">
      <path id="Path_961" data-name="Path 961" d="M326.618,361.188l.085-31.4c.341-1.264.618-5.924,1.342-9.169,1.236-5.441-3.622-12-3.963-12.216-1.364-.845-4.262-.831-4.262-.831s-2.841-3.246-5.377-4.262A12.691,12.691,0,0,0,309,302.6a26,26,0,0,0-6.463-3.914,5.32,5.32,0,0,0-5.441,1.023l-3.175,4.972a3.7,3.7,0,0,0,.433,4.631c1.52,1.5,3.466.8,4.446.8,1.357,0,1.868-1.534,1.868-1.534s.334,8,0,9.013h0c-.348,1.016-2.891,3.4-2.891,3.4l-8.523-11.243a81.329,81.329,0,0,1-7.649-12.628,6.037,6.037,0,0,0-.959-1.484c-1.492-1.69-4.681-2.18-5.512.938a6.179,6.179,0,0,0,.135,3.011c3.551,10.5,8.083,18.431,12.209,26.7,2.45,4.908,1.541,4.851,2.763,7.067-.142.1-.071.284-.227.376-.6,2.387-1.016,4.78-1.619,7.167a32.673,32.673,0,0,0-2.72-8.651,19.536,19.536,0,0,0,.376-5.057,6.663,6.663,0,0,0-2.131-4.482,4.383,4.383,0,0,0-2.479-.966,2.585,2.585,0,0,0-2.727,2.216,26.628,26.628,0,0,1-.71,3.843,38.678,38.678,0,0,1-1.96,4.83c0,3.168,1.96,2.649,3.388,15.391,1.108,9.944,13.893,16.485,20.853,23.652L307.7,395a143.69,143.69,0,0,0,24.831-12.991Z" transform="translate(-275.014 -294.286)" fill="#fff"/>
    </clipPath>
    <clipPath id="clip-path-2">
      <path id="Path_1009" data-name="Path 1009" d="M214.583,324.463c-.305-1.42-2.3-1.2-2.3-1.2-6.712.4-7.614,10.917-7.614,10.917l-2.408,7.2-.71-10.839.071-13.971s2.031-13.367,1.129-15.462a3.061,3.061,0,0,0-2.777-2.031c-3.906-.98-4.134,4.652-4.134,4.652l-3.3,11.492-1.357,12.394-1.122-.6s-.533-13.154-.305-13.374,1.577-9.084,1.577-9.084.746-1.655,1.655-3.757a4.567,4.567,0,0,0,0-3.757,3,3,0,0,0-5.561,0,50.01,50.01,0,0,1-2.7,5.107l-3.764,10.292c.142,2.33-1.193,13.822-1.193,13.822l-1.357-.618-2.18-6.747,1.662-6.911s3.6-3.977,3-6.307-3.679-1.648-3.679-1.648l-6.186,7.344h-1.811l-4.262,5.405a34.284,34.284,0,0,0-.98,17.962l.98,4.567v29.518a53.463,53.463,0,0,0-2.926,5.178c0,.206-1.207,3.935-2.891,8.587a144.6,144.6,0,0,0,18.2,9.453q3.2,1.257,6.392,2.394c2.7-7.578,5.853-15.682,7.593-17.579,3.452-3.75,10.214-10.966,10.214-10.966s7.678-12.337,8.58-16.435c.71-3.367,2.543-9.482,3.168-11.577a4.1,4.1,0,0,0,.17-1.47c-.05-1.108-.156-3.26-.156-5.156C213.276,328.568,214.881,325.862,214.583,324.463Z" transform="translate(-159.14 -295.152)" fill="#fff"/>
    </clipPath>
  </defs>
  <g id="Group_6581" data-name="Group 6581" transform="translate(-60.061 -94.717)">
    <path id="Path_633" data-name="Path 633" d="M159.7.9c97.452-8.645,97.648,46.321,141.564,97.554s53.323,74.472,36.764,133.532-72.35,105.4-141.376,79.132-108.564-1.037-152.1-24.363-59.728-68.3-27.837-121.351S39.508,11.615,159.7.9Z" transform="translate(178.296 528.549) rotate(-110)" fill="#3f3f3f"/>
    <g id="Typewriter-bro" transform="translate(117.426 168.652)">
      <g id="Code_typing-bro" data-name="Code typing-bro" transform="translate(0)">
        <g id="freepik--Plant--inject-2" transform="translate(0 105.879)">
          <path id="Path_913" data-name="Path 913" d="M32.1,262.221C31.96,262.129,32,262.065,32.1,262.221Z" transform="translate(-29.682 -210.556)" fill="#263238" opacity="0.2"/>
          <path id="Path_914" data-name="Path 914" d="M99.287,235.024A13.012,13.012,0,0,1,90.359,245.3l-1.761.575c-6.335,8.971-17.444,12.785-26.912,7.238l-2.77-1.626-7.756-9.233h-.092a7.917,7.917,0,0,1-7.053-1.6,2.415,2.415,0,1,1-3.914-2.308c-1.563,1.378-3.977.746-5.483-.76a47.375,47.375,0,0,1,1.421-12.28,49.521,49.521,0,0,1,2.4-7.245,51.283,51.283,0,0,1,2.55-5.213c.071-.142.156-.291.241-.433a62.4,62.4,0,0,1,4.723-7.1l.895-.81c.71-.618,1.357-1.222,2.046-1.832l.128-.114q1.648-1.421,3.345-2.841c1.74-1.456,3.509-2.884,5.291-4.3l.178-.142c1.527-1.207,3.068-2.408,4.6-3.6l2.315-1.79a6.355,6.355,0,0,1,1.364.32c1.9.661,2.223,2.4,3.551,3.594,1.747,1.6,3.423-1.087,6.115-1,8.275.256,5.064,8.743,9.106,7.678,17.451-4.6,14.518,17.721,6.932,22.622C96.3,226.764,100.153,229.214,99.287,235.024Z" transform="translate(-30.437 -189.623)" opacity="0.2"/>
          <ellipse id="Ellipse_4" data-name="Ellipse 4" cx="29.433" cy="29.071" rx="29.433" ry="29.071" transform="translate(1.894 8.482)" fill="#fff" stroke="#263238" stroke-width="1"/>
          <ellipse id="Ellipse_5" data-name="Ellipse 5" cx="26.834" cy="26.507" rx="26.834" ry="26.507" transform="translate(4.493 9.867)" fill="#263238" stroke="#fff" stroke-width="1"/>
          <path id="Path_915" data-name="Path 915" d="M31.224,236.34c-1.69,1.051-2.173,4.581-.845,6.115s3.878.348,4.4-2.039a.8.8,0,0,0,1.421.2,1.634,1.634,0,0,0,.1-1.492c-.128-.106-.078-.185,0,0,.867.71,2.358-.064,2.564-1.534-.632,3.906,2.919,7.316,5.533,5.327a3.29,3.29,0,0,0,1.591,4.261c1.35.419,2.8-.376,4.091-1.257s2.621-1.9,4.034-1.96c1.229-.057,2.372.639,3.551,1.051,3.736,1.3,8.111-.426,10.966-4.34,1.889,3.232,6.541,2.038,7.813-1.982.263,1.882,1.548,3.317,2.99,3.331s2.884-1.378,3.381-3.246h0c0,1.783,1.619,2.656,2.756,1.513a6.662,6.662,0,0,0,1.641-6.3c1.932-.078,3.807-2.323,4.1-4.922s-1.016-5.213-2.884-5.725c3.21-1.328,5.682-5.682,5.838-10.15s-2.173-8.587-5.32-9.624a3.338,3.338,0,0,0-3.608.753,8.631,8.631,0,0,0-3.225-5.938c-2.7-1.825-6.456-.575-8.466,2.841a6.684,6.684,0,0,0,.156-5.952,3.11,3.11,0,0,0-4.176-1.541c-.32-2.72-2.422-4.652-4.475-4.127s-3.708,3.438-3.551,6.186a1.974,1.974,0,0,0-3.75-.9c.078.17-.043.071,0,0-1.307-2.742-3.963-4.148-6.428-3.345-2.621.859-4.823,4.148-5.164,7.742a4.624,4.624,0,0,0-6.392.178,9.879,9.879,0,0,0-2.72,8.04c-2.038-2.01-5.469-.909-6.868,2.2s-.44,7.515,1.925,8.821c-1.626.249-3.061,2.408-3.061,4.6s1.421,4.063,3.075,4.006c-1.648.142-3.2,2.088-3.445,4.3S29.633,235.857,31.224,236.34Z" transform="translate(-28.733 -189.518)" fill="#cddbff" stroke="#707070" stroke-width="1"/>
          <g id="Group_48" data-name="Group 48" transform="translate(6.063 10.797)" opacity="0.2">
            <path id="Path_916" data-name="Path 916" d="M68.282,239.793a3.068,3.068,0,0,0-2.841-.71,3.416,3.416,0,0,0-2.131,2.642c-.227,1.286.369,2.706,1.349,2.948,1.2.3,2.429-1.044,3.651-.895a7.888,7.888,0,0,1,1.257.412c1.754.49,3.551-1.087,5.014-2.564A6.974,6.974,0,0,0,76,239.856a2.884,2.884,0,0,0,.185-2.337,1.965,1.965,0,0,0-2.386-.852,9.546,9.546,0,0,0-4.972,2.912c.05-.362.1-.71.156-1.08Z" transform="translate(-44.801 -213.953)" fill="#2943f6"/>
            <path id="Path_917" data-name="Path 917" d="M105.072,235.772a4.042,4.042,0,0,0-1.52-.938,1.463,1.463,0,0,0-1.605.71,2.33,2.33,0,0,0,.4,2.671,3.7,3.7,0,0,0,2.223.831c.81.107,1.832.085,2.252-.859a2.045,2.045,0,0,0-.341-2.046,3.5,3.5,0,0,0-1.577-.9Z" transform="translate(-55.936 -213.435)" fill="#2943f6"/>
            <path id="Path_918" data-name="Path 918" d="M48.507,214.307a7.813,7.813,0,0,0-3.367,5.2c-.128.668-.128,1.506.327,1.833a1.186,1.186,0,0,0,1.1,0l4.716-1.7a7.1,7.1,0,0,0-2.131,1.556,3.551,3.551,0,0,0-.852,2.784,2.046,2.046,0,0,0,2.131,1.733,4.574,4.574,0,0,0,2.607-1.477,4.794,4.794,0,0,0,1.69-3.161c0-1.278-1.207-2.394-2-1.527a17.387,17.387,0,0,0,5.071-3.26,6.1,6.1,0,0,0,1.484-1.832,3.075,3.075,0,0,0,.192-2.443c-1.534-3.615-3.658,1.953-4.652,2.5C52.96,215.542,50.9,212.9,48.507,214.307Z" transform="translate(-39.529 -206.48)" fill="#2943f6"/>
            <path id="Path_919" data-name="Path 919" d="M38.662,236.985a2.252,2.252,0,0,0,.376,2.046.923.923,0,0,0,1.506-.483,5.753,5.753,0,0,0-2.841,2.195c-.71,1.165-.547,3.118.49,3.487.646.234,1.342-.22,1.953-.675a40.371,40.371,0,0,0,4.922-4.368,2.244,2.244,0,0,0,1.761,2.941c1.165.057,2.273-.81,3.288-1.648,1.243-1.03,2.678-2.564,2.386-4.325a2.131,2.131,0,0,0-3-1.605,8.345,8.345,0,0,0-2.99,3.054,2.218,2.218,0,0,0-1.371-3.146c-1.151-.128-2.244.81-2.962,1.9,1.321-.994,1.655-3.388-.085-3.551C40.942,232.7,38.96,235.785,38.662,236.985Z" transform="translate(-37.27 -212.858)" fill="#2943f6"/>
            <path id="Path_920" data-name="Path 920" d="M88.344,228.049c-.98-.412-2.23.483-2.514,1.8s.447,2.749,1.477,2.884a3.146,3.146,0,0,0-2.01,1.42,2.529,2.529,0,0,0-.447,1.52,1.42,1.42,0,0,0,1.378,1.278,3.807,3.807,0,0,0,1.84-.767,3.111,3.111,0,0,0-1.811.774,1.825,1.825,0,0,0-.305,2.131c.369.455.987.334,1.5.121a8.033,8.033,0,0,0,3.111-2.394,2.507,2.507,0,0,0,2.55,1.229,2.465,2.465,0,0,0,1.52-2.77,1.783,1.783,0,0,0-1.563-1.378,4.1,4.1,0,0,0-2.046.533,5.263,5.263,0,0,0,1.683-2.4c.263-1.023-.249-2.337-1.072-2.209-.93.149-1.421,1.79-2.173,2.415C88.571,231.217,90.3,228.866,88.344,228.049Z" transform="translate(-51.055 -211.45)" fill="#2943f6"/>
            <path id="Path_921" data-name="Path 921" d="M65.779,222.379a5.908,5.908,0,0,0-1.421,4.411c.043,1.79.646,3.665,1.925,4.3,1.676.838,3.828-1.087,4.183-3.431a5.739,5.739,0,0,0-2.422-5.625A2.038,2.038,0,0,0,65.779,222.379Z" transform="translate(-45.118 -209.68)" fill="#2943f6"/>
            <path id="Path_922" data-name="Path 922" d="M81.718,218.057l.426.455a1.861,1.861,0,0,0-3.083-.121,3.374,3.374,0,0,0-.085,3.949,1.925,1.925,0,0,0,3.1-.469,2.841,2.841,0,0,0,3.715-1.115c.888-1.371.71-3.672-.419-4.446s-2.969.6-2.841,2.308l-.5-.71Z" transform="translate(-49.181 -208.014)" fill="#2943f6"/>
            <path id="Path_923" data-name="Path 923" d="M100.518,221.447a9.738,9.738,0,0,0-2.081,3.743c-.334,1.47.135,3.281,1.271,3.551s2.216-.959,2.891-2.237a5.725,5.725,0,0,0,.76-3.835c-.313-1.257-1.74-1.925-2.479-.895Z" transform="translate(-54.962 -209.515)" fill="#2943f6"/>
            <path id="Path_924" data-name="Path 924" d="M73.619,209.06a1.634,1.634,0,0,0-2.642-.767,3.629,3.629,0,0,0-.895,3.551,2.791,2.791,0,0,0,2.379,2.067,2.621,2.621,0,0,0,2.564-2.9,2.28,2.28,0,0,0,2.436,1.037,6.35,6.35,0,0,0,2.578-1.378c1.094-.859,2.266-2.131,2.181-3.729a2.273,2.273,0,0,0-1.989-2.216,3.644,3.644,0,0,0-2.742,1.456c-.6.675-1.108,1.506-1.761,2.131a1.851,1.851,0,0,1-2.2.533Z" transform="translate(-46.735 -204.72)" fill="#2943f6"/>
          </g>
        </g>
        <g id="freepik--Keyboard--inject-2" transform="translate(74.89 156.134)">
          <rect id="Rectangle_40" data-name="Rectangle 40" width="163.835" height="69.002" transform="translate(0 0.696)" fill="#a7b0ff" stroke="#263238" stroke-linecap="round" stroke-linejoin="round" stroke-width="1"/>
          <rect id="Rectangle_41" data-name="Rectangle 41" width="15.413" height="8.53" transform="translate(3.423 4.872)" fill="#fff" stroke="#263238" stroke-width="1"/>
          <rect id="Rectangle_42" data-name="Rectangle 42" width="24.277" height="8.53" transform="translate(135.766 46.465)" fill="#fff" stroke="#263238" stroke-width="1"/>
          <rect id="Rectangle_43" data-name="Rectangle 43" width="14.986" height="8.53" transform="translate(145.056 15.526)" fill="#fff" stroke="#263238" stroke-width="1"/>
          <rect id="Rectangle_44" data-name="Rectangle 44" width="15.413" height="8.53" transform="translate(3.423 35.946)" fill="#fff" stroke="#263238" stroke-width="1"/>
          <rect id="Rectangle_45" data-name="Rectangle 45" width="12.479" height="8.53" transform="translate(3.423 25.669)" fill="#fff" stroke="#263238" stroke-width="1"/>
          <rect id="Rectangle_46" data-name="Rectangle 46" width="8.53" height="8.53" transform="translate(3.423 15.271)" fill="#fff" stroke="#263238" stroke-width="1"/>
          <rect id="Rectangle_47" data-name="Rectangle 47" width="8.53" height="8.53" transform="translate(14.319 15.271)" fill="#fff" stroke="#263238" stroke-width="1"/>
          <rect id="Rectangle_48" data-name="Rectangle 48" width="8.53" height="8.53" transform="translate(25.207 15.271)" fill="#fff" stroke="#263238" stroke-width="1"/>
          <rect id="Rectangle_49" data-name="Rectangle 49" width="8.53" height="8.53" transform="translate(36.095 15.271)" fill="#fff" stroke="#263238" stroke-width="1"/>
          <rect id="Rectangle_50" data-name="Rectangle 50" width="8.53" height="8.53" transform="translate(46.991 15.271)" fill="#fff" stroke="#263238" stroke-width="1"/>
          <rect id="Rectangle_51" data-name="Rectangle 51" width="8.53" height="8.53" transform="translate(57.879 15.271)" fill="#fff" stroke="#263238" stroke-width="1"/>
          <rect id="Rectangle_52" data-name="Rectangle 52" width="8.53" height="8.53" transform="translate(68.767 15.271)" fill="#fff" stroke="#263238" stroke-width="1"/>
          <rect id="Rectangle_53" data-name="Rectangle 53" width="8.53" height="8.53" transform="translate(79.663 15.271)" fill="#fff" stroke="#263238" stroke-width="1"/>
          <rect id="Rectangle_54" data-name="Rectangle 54" width="8.53" height="8.53" transform="translate(90.551 15.271)" fill="#fff" stroke="#263238" stroke-width="1"/>
          <rect id="Rectangle_55" data-name="Rectangle 55" width="8.53" height="8.53" transform="translate(101.439 15.271)" fill="#fff" stroke="#263238" stroke-width="1"/>
          <rect id="Rectangle_56" data-name="Rectangle 56" width="8.53" height="8.53" transform="translate(112.335 15.271)" fill="#fff" stroke="#263238" stroke-width="1"/>
          <rect id="Rectangle_57" data-name="Rectangle 57" width="8.53" height="8.53" transform="translate(123.223 15.271)" fill="#fff" stroke="#263238" stroke-width="1"/>
          <rect id="Rectangle_58" data-name="Rectangle 58" width="8.53" height="8.53" transform="translate(134.118 15.271)" fill="#fff" stroke="#263238" stroke-width="1"/>
          <rect id="Rectangle_59" data-name="Rectangle 59" width="8.53" height="8.53" transform="translate(3.423 56.991)" fill="#fff" stroke="#263238" stroke-width="1"/>
          <rect id="Rectangle_60" data-name="Rectangle 60" width="8.53" height="8.53" transform="translate(14.319 56.991)" fill="#fff" stroke="#263238" stroke-width="1"/>
          <rect id="Rectangle_61" data-name="Rectangle 61" width="8.53" height="8.53" transform="translate(25.207 56.991)" fill="#fff" stroke="#263238" stroke-width="1"/>
          <rect id="Rectangle_62" data-name="Rectangle 62" width="10.412" height="8.53" transform="translate(36.095 56.991)" fill="#fff" stroke="#263238" stroke-width="1"/>
          <rect id="Rectangle_63" data-name="Rectangle 63" width="52.098" height="8.53" transform="translate(48.866 56.991)" fill="#fff" stroke="#263238" stroke-width="1"/>
          <rect id="Rectangle_64" data-name="Rectangle 64" width="8.53" height="8.53" transform="translate(118.478 56.991)" fill="#fff" stroke="#263238" stroke-width="1"/>
          <rect id="Rectangle_65" data-name="Rectangle 65" width="8.53" height="8.53" transform="translate(129.367 56.991)" fill="#fff" stroke="#263238" stroke-width="1"/>
          <rect id="Rectangle_66" data-name="Rectangle 66" width="8.53" height="8.53" transform="translate(140.276 56.991)" fill="#fff" stroke="#263238" stroke-width="1"/>
          <rect id="Rectangle_67" data-name="Rectangle 67" width="13.246" height="8.53" transform="translate(103.094 56.991)" fill="#fff" stroke="#263238" stroke-width="1"/>
          <rect id="Rectangle_68" data-name="Rectangle 68" width="8.53" height="8.53" transform="translate(151.512 56.991)" fill="#fff" stroke="#263238" stroke-width="1"/>
          <rect id="Rectangle_69" data-name="Rectangle 69" width="8.53" height="8.53" transform="translate(18.325 25.669)" fill="#fff" stroke="#263238" stroke-width="1"/>
          <rect id="Rectangle_70" data-name="Rectangle 70" width="8.53" height="8.53" transform="translate(29.213 25.669)" fill="#fff" stroke="#263238" stroke-width="1"/>
          <rect id="Rectangle_71" data-name="Rectangle 71" width="8.53" height="8.53" transform="translate(40.108 25.669)" fill="#fff" stroke="#263238" stroke-width="1"/>
          <rect id="Rectangle_72" data-name="Rectangle 72" width="8.53" height="8.53" transform="translate(50.997 25.669)" fill="#fff" stroke="#263238" stroke-width="1"/>
          <rect id="Rectangle_73" data-name="Rectangle 73" width="8.53" height="8.53" transform="translate(61.892 25.669)" fill="#fff" stroke="#263238" stroke-width="1"/>
          <rect id="Rectangle_74" data-name="Rectangle 74" width="8.53" height="8.53" transform="translate(72.78 25.669)" fill="#fff" stroke="#263238" stroke-width="1"/>
          <rect id="Rectangle_75" data-name="Rectangle 75" width="8.53" height="8.53" transform="translate(83.669 25.669)" fill="#fff" stroke="#263238" stroke-width="1"/>
          <rect id="Rectangle_76" data-name="Rectangle 76" width="8.53" height="8.53" transform="translate(94.564 25.669)" fill="#fff" stroke="#263238" stroke-width="1"/>
          <rect id="Rectangle_77" data-name="Rectangle 77" width="8.53" height="8.53" transform="translate(105.452 25.669)" fill="#fff" stroke="#263238" stroke-width="1"/>
          <rect id="Rectangle_78" data-name="Rectangle 78" width="8.53" height="8.53" transform="translate(116.34 25.669)" fill="#fff" stroke="#263238" stroke-width="1"/>
          <rect id="Rectangle_79" data-name="Rectangle 79" width="8.53" height="8.53" transform="translate(127.236 25.669)" fill="#fff" stroke="#263238" stroke-width="1"/>
          <rect id="Rectangle_80" data-name="Rectangle 80" width="8.53" height="8.53" transform="translate(138.124 25.669)" fill="#fff" stroke="#263238" stroke-width="1"/>
          <path id="Path_925" data-name="Path 925" d="M366.51,307.92v18.936h-8.53v-10.4h-2.5V307.92Z" transform="translate(-206.468 -282.251)" fill="#fff" stroke="#263238" stroke-width="1"/>
          <rect id="Rectangle_81" data-name="Rectangle 81" width="8.53" height="8.53" transform="translate(20.825 36.067)" fill="#fff" stroke="#263238" stroke-width="1"/>
          <rect id="Rectangle_82" data-name="Rectangle 82" width="8.53" height="8.53" transform="translate(31.713 36.067)" fill="#fff" stroke="#263238" stroke-width="1"/>
          <rect id="Rectangle_83" data-name="Rectangle 83" width="8.53" height="8.53" transform="translate(42.601 36.067)" fill="#fff" stroke="#263238" stroke-width="1"/>
          <rect id="Rectangle_84" data-name="Rectangle 84" width="8.53" height="8.53" transform="translate(53.497 36.067)" fill="#fff" stroke="#263238" stroke-width="1"/>
          <rect id="Rectangle_85" data-name="Rectangle 85" width="8.53" height="8.53" transform="translate(64.385 36.067)" fill="#fff" stroke="#263238" stroke-width="1"/>
          <rect id="Rectangle_86" data-name="Rectangle 86" width="8.53" height="8.53" transform="translate(75.28 36.067)" fill="#fff" stroke="#263238" stroke-width="1"/>
          <rect id="Rectangle_87" data-name="Rectangle 87" width="8.53" height="8.53" transform="translate(86.169 36.067)" fill="#fff" stroke="#263238" stroke-width="1"/>
          <rect id="Rectangle_88" data-name="Rectangle 88" width="8.53" height="8.53" transform="translate(97.057 36.067)" fill="#fff" stroke="#263238" stroke-width="1"/>
          <rect id="Rectangle_89" data-name="Rectangle 89" width="8.53" height="8.53" transform="translate(107.952 36.067)" fill="#fff" stroke="#263238" stroke-width="1"/>
          <rect id="Rectangle_90" data-name="Rectangle 90" width="8.53" height="8.53" transform="translate(118.841 36.067)" fill="#fff" stroke="#263238" stroke-width="1"/>
          <rect id="Rectangle_91" data-name="Rectangle 91" width="8.53" height="8.53" transform="translate(129.729 36.067)" fill="#fff" stroke="#263238" stroke-width="1"/>
          <rect id="Rectangle_92" data-name="Rectangle 92" width="8.53" height="8.53" transform="translate(140.624 36.067)" fill="#fff" stroke="#263238" stroke-width="1"/>
          <rect id="Rectangle_93" data-name="Rectangle 93" width="8.53" height="8.53" transform="translate(16.194 46.465)" fill="#fff" stroke="#263238" stroke-width="1"/>
          <rect id="Rectangle_94" data-name="Rectangle 94" width="8.53" height="8.53" transform="translate(27.082 46.465)" fill="#fff" stroke="#263238" stroke-width="1"/>
          <rect id="Rectangle_95" data-name="Rectangle 95" width="8.53" height="8.53" transform="translate(37.978 46.465)" fill="#fff" stroke="#263238" stroke-width="1"/>
          <rect id="Rectangle_96" data-name="Rectangle 96" width="8.53" height="8.53" transform="translate(48.866 46.465)" fill="#fff" stroke="#263238" stroke-width="1"/>
          <rect id="Rectangle_97" data-name="Rectangle 97" width="8.53" height="8.53" transform="translate(59.754 46.465)" fill="#fff" stroke="#263238" stroke-width="1"/>
          <rect id="Rectangle_98" data-name="Rectangle 98" width="8.53" height="8.53" transform="translate(70.649 46.465)" fill="#fff" stroke="#263238" stroke-width="1"/>
          <rect id="Rectangle_99" data-name="Rectangle 99" width="8.53" height="8.53" transform="translate(81.538 46.465)" fill="#fff" stroke="#263238" stroke-width="1"/>
          <rect id="Rectangle_100" data-name="Rectangle 100" width="8.53" height="8.53" transform="translate(92.433 46.465)" fill="#fff" stroke="#263238" stroke-width="1"/>
          <rect id="Rectangle_101" data-name="Rectangle 101" width="8.53" height="8.53" transform="translate(103.321 46.465)" fill="#fff" stroke="#263238" stroke-width="1"/>
          <rect id="Rectangle_102" data-name="Rectangle 102" width="8.53" height="8.53" transform="translate(114.21 46.465)" fill="#fff" stroke="#263238" stroke-width="1"/>
          <rect id="Rectangle_103" data-name="Rectangle 103" width="8.53" height="8.53" transform="translate(125.105 46.465)" fill="#fff" stroke="#263238" stroke-width="1"/>
          <rect id="Rectangle_104" data-name="Rectangle 104" width="8.53" height="8.53" transform="translate(20.825 5.384)" fill="#fff" stroke="#263238" stroke-width="1"/>
          <rect id="Rectangle_105" data-name="Rectangle 105" width="8.53" height="8.53" transform="translate(31.713 5.384)" fill="#fff" stroke="#263238" stroke-width="1"/>
          <rect id="Rectangle_106" data-name="Rectangle 106" width="8.53" height="8.53" transform="translate(42.601 5.384)" fill="#fff" stroke="#263238" stroke-width="1"/>
          <rect id="Rectangle_107" data-name="Rectangle 107" width="8.53" height="8.53" transform="translate(53.497 5.384)" fill="#fff" stroke="#263238" stroke-width="1"/>
          <rect id="Rectangle_108" data-name="Rectangle 108" width="8.53" height="8.53" transform="translate(64.385 5.384)" fill="#fff" stroke="#263238" stroke-width="1"/>
          <rect id="Rectangle_109" data-name="Rectangle 109" width="8.53" height="8.53" transform="translate(75.28 5.384)" fill="#fff" stroke="#263238" stroke-width="1"/>
          <rect id="Rectangle_110" data-name="Rectangle 110" width="8.53" height="8.53" transform="translate(86.169 5.384)" fill="#fff" stroke="#263238" stroke-width="1"/>
          <rect id="Rectangle_111" data-name="Rectangle 111" width="8.53" height="8.53" transform="translate(97.057 5.384)" fill="#fff" stroke="#263238" stroke-width="1"/>
          <rect id="Rectangle_112" data-name="Rectangle 112" width="8.53" height="8.53" transform="translate(107.952 5.384)" fill="#fff" stroke="#263238" stroke-width="1"/>
          <rect id="Rectangle_113" data-name="Rectangle 113" width="8.53" height="8.53" transform="translate(118.841 5.384)" fill="#fff" stroke="#263238" stroke-width="1"/>
          <rect id="Rectangle_114" data-name="Rectangle 114" width="8.53" height="8.53" transform="translate(129.729 5.384)" fill="#fff" stroke="#263238" stroke-width="1"/>
          <rect id="Rectangle_115" data-name="Rectangle 115" width="8.53" height="8.53" transform="translate(140.624 5.384)" fill="#fff" stroke="#263238" stroke-width="1"/>
          <rect id="Rectangle_116" data-name="Rectangle 116" width="8.53" height="8.53" transform="translate(151.512 5.384)" fill="#fff" stroke="#263238" stroke-width="1"/>
          <rect id="Rectangle_117" data-name="Rectangle 117" width="10.334" height="8.53" transform="translate(3.423 46.465)" fill="#fff" stroke="#263238" stroke-width="1"/>
          <path id="Path_926" data-name="Path 926" d="M145.68,272.916l3.424-1.136H307.292l2.252,1.122Z" transform="translate(-145.68 -271.78)" fill="#263238"/>
        </g>
        <g id="freepik--Hands--inject-2" transform="translate(84.429 172.119)">
          <path id="Path_927" data-name="Path 927" d="M299.733,398,296.4,377.939a16.385,16.385,0,0,0-4.51-7.855c-6.627-6.392-15.384-12.955-15.761-21.308-.575-12.785-2.571-12.422-2.358-15.583a38.4,38.4,0,0,0,2.28-4.688,27.323,27.323,0,0,0,.966-3.793,2.585,2.585,0,0,1,2.841-2.024,4.4,4.4,0,0,1,2.408,1.129,6.669,6.669,0,0,1,1.8,4.617,19.736,19.736,0,0,1-.71,5.014,32.784,32.784,0,0,1,2.131,8.814c.76-2.344,1.335-4.709,2.1-7.046.156-.085.1-.27.249-.355-1.072-2.3-.163-2.173-2.287-7.238-3.551-8.523-7.557-16.741-10.405-27.452a6.087,6.087,0,0,1,.064-3.012c1.03-3.061,4.183-2.358,5.561-.575a5.881,5.881,0,0,1,.852,1.548,82.719,82.719,0,0,0,6.8,13.1l7.735,11.79s2.692-2.209,3.1-3.2h0c.4-.994.6-9,.6-9s-.611,1.5-1.967,1.421c-.98-.071-2.969.5-4.382-1.094a3.7,3.7,0,0,1-.128-4.645l3.5-4.73a5.313,5.313,0,0,1,5.5-.661,26.154,26.154,0,0,1,6.186,4.333,12.65,12.65,0,0,1,5.384,1.037c2.479,1.193,5.078,4.617,5.078,4.617s2.891.178,4.19,1.122c.327.234,4.737,7.1,3.147,12.451-.945,3.189-1.527,7.813-1.953,9.063l-2.166,31.315,4.368,20.6-9.34,5.206a66.765,66.765,0,0,1-10.675,4.78Z" transform="translate(-192.328 -294.509)" opacity="0.2"/>
          <path id="Path_928" data-name="Path 928" d="M326.618,361.188l.085-31.4c.341-1.264.618-5.924,1.342-9.169,1.236-5.441-3.622-12-3.963-12.216-1.364-.845-4.262-.831-4.262-.831s-2.841-3.246-5.377-4.262A12.691,12.691,0,0,0,309,302.6a26,26,0,0,0-6.463-3.914,5.32,5.32,0,0,0-5.441,1.023l-3.175,4.972a3.7,3.7,0,0,0,.433,4.631c1.52,1.5,3.466.8,4.446.8,1.357,0,1.868-1.534,1.868-1.534s.334,8,0,9.013h0c-.348,1.016-2.891,3.4-2.891,3.4l-8.523-11.243a81.329,81.329,0,0,1-7.649-12.628,6.037,6.037,0,0,0-.959-1.484c-1.492-1.69-4.681-2.18-5.512.938a6.179,6.179,0,0,0,.135,3.011c3.551,10.5,8.083,18.431,12.209,26.7,2.45,4.908,1.541,4.851,2.763,7.067-.142.1-.071.284-.227.376-.6,2.387-1.016,4.78-1.619,7.167a32.673,32.673,0,0,0-2.72-8.651,19.536,19.536,0,0,0,.376-5.057,6.663,6.663,0,0,0-2.131-4.482,4.383,4.383,0,0,0-2.479-.966,2.585,2.585,0,0,0-2.727,2.216,26.628,26.628,0,0,1-.71,3.843,38.678,38.678,0,0,1-1.96,4.83c0,3.168,1.96,2.649,3.388,15.391,1.108,9.944,13.893,16.485,20.853,23.652L307.7,395a143.69,143.69,0,0,0,24.831-12.991Z" transform="translate(-192.692 -294.286)" fill="#ffbda7"/>
          <g id="Group_52" data-name="Group 52" transform="translate(82.322)" clip-path="url(#clip-path)">
            <path id="Path_929" data-name="Path 929" d="M341.362,323.831a5.462,5.462,0,0,1,1.627-2.457,2.081,2.081,0,0,1,2.72.092q-.8-2.436-1.69-4.851a7.5,7.5,0,0,0-1.974-3.324,2.652,2.652,0,0,0-3.551,0,38.384,38.384,0,0,1,.2,11.229c-.263,2.017-.6,4.333.753,5.845.376.305,1.03-.242.788-.661-.114-.2-.511-.213-.71-.2A36.1,36.1,0,0,1,341.362,323.831Z" transform="translate(-293.394 -299.594)" fill="#29b6f6"/>
            <path id="Path_930" data-name="Path 930" d="M341.362,323.831a5.462,5.462,0,0,1,1.627-2.457,2.081,2.081,0,0,1,2.72.092q-.8-2.436-1.69-4.851a7.5,7.5,0,0,0-1.974-3.324,2.652,2.652,0,0,0-3.551,0,38.384,38.384,0,0,1,.2,11.229c-.263,2.017-.6,4.333.753,5.845.376.305,1.03-.242.788-.661-.114-.2-.511-.213-.71-.2A36.1,36.1,0,0,1,341.362,323.831Z" transform="translate(-293.394 -299.594)" fill="#29b6f6"/>
            <path id="Path_931" data-name="Path 931" d="M341.362,323.831a5.462,5.462,0,0,1,1.627-2.457,2.081,2.081,0,0,1,2.72.092q-.8-2.436-1.69-4.851a7.5,7.5,0,0,0-1.974-3.324,2.652,2.652,0,0,0-3.551,0,38.384,38.384,0,0,1,.2,11.229c-.263,2.017-.6,4.333.753,5.845.376.305,1.03-.242.788-.661-.114-.2-.511-.213-.71-.2A36.1,36.1,0,0,1,341.362,323.831Z" transform="translate(-293.394 -299.594)" fill="#ffbda7"/>
            <path id="Path_932" data-name="Path 932" d="M325.738,318.66a20.087,20.087,0,0,0,.384,4.077,5.071,5.071,0,0,0,2.273,3.274c-.71-2.642-.327-5.448.057-8.154l.71-4.972a3.672,3.672,0,0,1,.5-1.648,1.278,1.278,0,0,1,1.5-.54c-.71.412-1.612-.142-2.038-.838a20.9,20.9,0,0,0-1.087-2.188c-.952-1.222-2.983-1.492-4.389-1.165C324.069,310.592,325.575,314.47,325.738,318.66Z" transform="translate(-289.106 -297.79)" fill="#29b6f6"/>
            <path id="Path_933" data-name="Path 933" d="M325.738,318.66a20.087,20.087,0,0,0,.384,4.077,5.071,5.071,0,0,0,2.273,3.274c-.71-2.642-.327-5.448.057-8.154l.71-4.972a3.672,3.672,0,0,1,.5-1.648,1.278,1.278,0,0,1,1.5-.54c-.71.412-1.612-.142-2.038-.838a20.9,20.9,0,0,0-1.087-2.188c-.952-1.222-2.983-1.492-4.389-1.165C324.069,310.592,325.575,314.47,325.738,318.66Z" transform="translate(-289.106 -297.79)" fill="#29b6f6"/>
            <g id="Group_49" data-name="Group 49" transform="translate(34.544 8.59)">
              <path id="Path_934" data-name="Path 934" d="M325.738,318.66a20.087,20.087,0,0,0,.384,4.077,5.071,5.071,0,0,0,2.273,3.274c-.71-2.642-.327-5.448.057-8.154l.71-4.972a3.672,3.672,0,0,1,.5-1.648,1.278,1.278,0,0,1,1.5-.54c-.71.412-1.612-.142-2.038-.838a20.9,20.9,0,0,0-1.087-2.188c-.952-1.222-2.983-1.492-4.389-1.165C324.069,310.592,325.575,314.47,325.738,318.66Z" transform="translate(-323.65 -306.38)" fill="#ffbda7"/>
            </g>
            <path id="Path_935" data-name="Path 935" d="M307.788,307.062a2.494,2.494,0,0,1-.753-1.492,2.13,2.13,0,0,0-.831-1.42c-2.181,1.385-.987,5.441-3.2,6.783-.426.263-.973.412-1.207.852a1.122,1.122,0,0,0,.234,1.25,2.13,2.13,0,0,0,1.207.568,4.865,4.865,0,0,0,4.645-2.017,5.73,5.73,0,0,0,1.037-4.524A1.094,1.094,0,0,1,307.788,307.062Z" transform="translate(-282.747 -297.144)" fill="#29b6f6"/>
            <path id="Path_936" data-name="Path 936" d="M278.333,343.554c0,.149-.064.341.057.44s.433-.085.575-.284a3.8,3.8,0,0,1,4.226-1.371c.575,0,.774-.888.4-1.321a2.053,2.053,0,0,0-1.591-.511,3.1,3.1,0,0,1-1.676-.277,1.662,1.662,0,0,1-.71-1.79C279.249,340.152,278.8,341.849,278.333,343.554Z" transform="translate(-275.971 -307.079)" fill="#29b6f6"/>
            <g id="Group_50" data-name="Group 50" transform="translate(2.346 7.006)">
              <path id="Path_937" data-name="Path 937" d="M307.788,307.062a2.494,2.494,0,0,1-.753-1.492,2.13,2.13,0,0,0-.831-1.42c-2.181,1.385-.987,5.441-3.2,6.783-.426.263-.973.412-1.207.852a1.122,1.122,0,0,0,.234,1.25,2.13,2.13,0,0,0,1.207.568,4.865,4.865,0,0,0,4.645-2.017,5.73,5.73,0,0,0,1.037-4.524A1.094,1.094,0,0,1,307.788,307.062Z" transform="translate(-285.093 -304.15)" fill="#ffbda7"/>
              <path id="Path_938" data-name="Path 938" d="M278.333,343.554c0,.149-.064.341.057.44s.433-.085.575-.284a3.8,3.8,0,0,1,4.226-1.371c.575,0,.774-.888.4-1.321a2.053,2.053,0,0,0-1.591-.511,3.1,3.1,0,0,1-1.676-.277,1.662,1.662,0,0,1-.71-1.79C279.249,340.152,278.8,341.849,278.333,343.554Z" transform="translate(-278.316 -314.085)" fill="#ffbda7"/>
            </g>
            <path id="Path_939" data-name="Path 939" d="M314.688,305.284a9.559,9.559,0,0,1-3.644-.831c-1.35-.8-2.28-2.486-3.85-2.557-1.421-.064-2.436,1.215-3.225,2.365a4.311,4.311,0,0,1,2.8-4,6.946,6.946,0,0,1,5.078.2,19.056,19.056,0,0,1,4.4,2.749,5.9,5.9,0,0,1,1.491,1.421C319.5,307.422,315.782,305.433,314.688,305.284Z" transform="translate(-283.404 -295.905)" fill="#29b6f6"/>
            <path id="Path_940" data-name="Path 940" d="M314.688,305.284a9.559,9.559,0,0,1-3.644-.831c-1.35-.8-2.28-2.486-3.85-2.557-1.421-.064-2.436,1.215-3.225,2.365a4.311,4.311,0,0,1,2.8-4,6.946,6.946,0,0,1,5.078.2,19.056,19.056,0,0,1,4.4,2.749,5.9,5.9,0,0,1,1.491,1.421C319.5,307.422,315.782,305.433,314.688,305.284Z" transform="translate(-283.404 -295.905)" fill="#ffbda7"/>
            <path id="Path_941" data-name="Path 941" d="M287.78,364.086a4.9,4.9,0,0,0,.227-.476A.54.54,0,0,0,287.78,364.086Z" transform="translate(-278.712 -314.372)" fill="#29b6f6"/>
            <path id="Path_942" data-name="Path 942" d="M287.778,344.329c-.142-1.747.107-3.509.035-5.263A6.9,6.9,0,0,0,286,334.257c-1.832-1.726-6.854-.845-5.171,2.436a2.131,2.131,0,0,0,2.607.973,1.9,1.9,0,0,0,.888-2.564,9.1,9.1,0,0,1-.433,10.341,8.253,8.253,0,0,1,2,9.411,1.037,1.037,0,0,1,1.172,0,3.551,3.551,0,0,1,.9,1.605c.249.575.71,1.172,1.335,1.129a10.631,10.631,0,0,0,0-6.662A37.515,37.515,0,0,1,287.778,344.329Z" transform="translate(-276.601 -305.617)" fill="#29b6f6"/>
            <path id="Path_943" data-name="Path 943" d="M315.25,301.841a7.1,7.1,0,0,0-3.36-1.421Z" transform="translate(-285.698 -296.063)" fill="#29b6f6"/>
            <path id="Path_944" data-name="Path 944" d="M324.973,324.632c-.27-1.207-.831-2.33-1.165-3.551-.774-2.777-.284-5.746-.639-8.608a14.859,14.859,0,0,0-5.277-9.553l-1.271-.54a7.167,7.167,0,0,1,2.557,3.722,67,67,0,0,1,1.733,10.441,140.013,140.013,0,0,0,2.948,16.109C324.7,330.038,325.562,327.3,324.973,324.632Z" transform="translate(-287.069 -296.631)" fill="#29b6f6"/>
            <path id="Path_945" data-name="Path 945" d="M308.062,313.293a4.467,4.467,0,0,0,1.5-2.919,12.075,12.075,0,0,0-.078-3,.994.994,0,0,1-1.122.675,2.521,2.521,0,0,1-1.342-1.222l-.256.888-.106-.483-.341.433c.5,1.421.994,3.075.213,4.375a5.134,5.134,0,0,1-1.6,1.477,2.7,2.7,0,0,0,3.132-.227Z" transform="translate(-283.682 -297.92)" fill="#29b6f6"/>
            <path id="Path_946" data-name="Path 946" d="M311.28,307.1l.043.355a.568.568,0,0,0-.043-.355Z" transform="translate(-285.522 -297.999)" fill="#29b6f6"/>
            <path id="Path_947" data-name="Path 947" d="M278.98,295.763c.284,0,1.669-.135,1.818.05a21.6,21.6,0,0,1,4.766,13.772c1-.788,2.379.305,3.161,1.314a231.814,231.814,0,0,1,13.495,19.248c-.81-2.933-.831-6.051-1.7-8.963C299.91,319.365,280.209,294.591,278.98,295.763Z" transform="translate(-276.163 -292.45)" fill="#ffbda7"/>
            <path id="Path_948" data-name="Path 948" d="M341.106,333.45a31.116,31.116,0,0,0,2.223-9.83,16.087,16.087,0,0,0-2.23-8.9c-.412-.661-2.131-3.388-3.047-3.168-1.669.4.518,3.3.9,4.02,1.421,2.734,2.919,5.625,2.841,8.715-.071,2.379-1.072,4.617-1.875,6.854a14.769,14.769,0,0,0-1,4.872c-.121.185-.234.376-.369.547a7.294,7.294,0,0,1-4.46,2.948c.71-2.131,1.371-4.262,2.06-6.392a2.7,2.7,0,0,0-.107-2.323,1.988,1.988,0,0,0,.22-.923,4.7,4.7,0,0,0-.6-1.634c-.952-2.046-.632-4.425-.4-6.669a21.084,21.084,0,0,0-.419-8.282,8.915,8.915,0,0,0-5.334-6.016l.71.71-.895-.653,1.662,3.466-.611.874a1.97,1.97,0,0,1,2.507,1.158,6.094,6.094,0,0,1,.206,3.061,61.223,61.223,0,0,0,.838,17.231A8.368,8.368,0,0,1,332.9,336.9a3.729,3.729,0,0,1-3.551,1.925,3.736,3.736,0,0,0-1.371-3.786c-1.421,1.989-.582,5.078-.369,7.344a79.861,79.861,0,0,0,1.655,10.2,32.97,32.97,0,0,1,1.811-8.523q1.151,4.2,2.316,8.417a4.971,4.971,0,0,1,.44-2.294,1.712,1.712,0,0,1,1.96-.909,2.422,2.422,0,0,1,1.172,1.463,26.1,26.1,0,0,1,1.421,15.363,2.169,2.169,0,0,0,2.749-1.058,6.392,6.392,0,0,0,.5-3.2Q341.347,347.663,341.106,333.45Z" transform="translate(-290.126 -298.048)" fill="#ffbda7"/>
            <path id="Path_949" data-name="Path 949" d="M312.861,348.138c-.455.8,1.421,3.963,1.712,4.716q2.344,5.732,4.695,11.471a54.3,54.3,0,0,0-3.636-14.688C315.312,348.848,313.763,346.554,312.861,348.138Z" transform="translate(-285.959 -309.731)" fill="#29b6f6"/>
            <path id="Path_950" data-name="Path 950" d="M314.632,316.424c-.27.4-.646.9-1.108.76s-.511-.71-.5-1.158q.071-3.985.135-7.976c-2.131,1.541-1.875,3.551-2.024,5.853-.085,1.328.3,7.671-.611,8.445a23.674,23.674,0,0,0,5.284-6.435C315.435,315.607,314.9,316.019,314.632,316.424Z" transform="translate(-285.301 -298.274)" fill="#29b6f6"/>
            <g id="Group_51" data-name="Group 51" transform="translate(3.891 4.357)">
              <path id="Path_951" data-name="Path 951" d="M287.78,364.086a4.9,4.9,0,0,0,.227-.476A.54.54,0,0,0,287.78,364.086Z" transform="translate(-282.603 -318.729)" fill="#ffbda7"/>
              <path id="Path_952" data-name="Path 952" d="M287.778,344.329c-.142-1.747.107-3.509.035-5.263A6.9,6.9,0,0,0,286,334.257c-1.832-1.726-6.854-.845-5.171,2.436a2.131,2.131,0,0,0,2.607.973,1.9,1.9,0,0,0,.888-2.564,9.1,9.1,0,0,1-.433,10.341,8.253,8.253,0,0,1,2,9.411,1.037,1.037,0,0,1,1.172,0,3.551,3.551,0,0,1,.9,1.605c.249.575.71,1.172,1.335,1.129a10.631,10.631,0,0,0,0-6.662A37.515,37.515,0,0,1,287.778,344.329Z" transform="translate(-280.491 -309.974)" fill="#ffbda7"/>
              <path id="Path_953" data-name="Path 953" d="M315.25,301.841a7.1,7.1,0,0,0-3.36-1.421Z" transform="translate(-289.589 -300.42)" fill="#ffbda7"/>
              <path id="Path_954" data-name="Path 954" d="M324.973,324.632c-.27-1.207-.831-2.33-1.165-3.551-.774-2.777-.284-5.746-.639-8.608a14.859,14.859,0,0,0-5.277-9.553l-1.271-.54a7.167,7.167,0,0,1,2.557,3.722,67,67,0,0,1,1.733,10.441,140.013,140.013,0,0,0,2.948,16.109C324.7,330.038,325.562,327.3,324.973,324.632Z" transform="translate(-290.959 -300.988)" fill="#ffbda7"/>
              <path id="Path_955" data-name="Path 955" d="M308.062,313.293a4.467,4.467,0,0,0,1.5-2.919,12.075,12.075,0,0,0-.078-3,.994.994,0,0,1-1.122.675,2.521,2.521,0,0,1-1.342-1.222l-.256.888-.106-.483-.341.433c.5,1.421.994,3.075.213,4.375a5.134,5.134,0,0,1-1.6,1.477,2.7,2.7,0,0,0,3.132-.227Z" transform="translate(-287.572 -302.277)" fill="#ffbda7"/>
              <path id="Path_956" data-name="Path 956" d="M311.28,307.1l.043.355a.568.568,0,0,0-.043-.355Z" transform="translate(-289.412 -302.355)" fill="#ffbda7"/>
              <path id="Path_959" data-name="Path 959" d="M312.861,348.138c-.455.8,1.421,3.963,1.712,4.716q2.344,5.732,4.695,11.471a54.3,54.3,0,0,0-3.636-14.688C315.312,348.848,313.763,346.554,312.861,348.138Z" transform="translate(-289.85 -314.088)" fill="#ffbda7"/>
              <path id="Path_960" data-name="Path 960" d="M314.632,316.424c-.27.4-.646.9-1.108.76s-.511-.71-.5-1.158q.071-3.985.135-7.976c-2.131,1.541-1.875,3.551-2.024,5.853-.085,1.328.3,7.671-.611,8.445a23.674,23.674,0,0,0,5.284-6.435C315.435,315.607,314.9,316.019,314.632,316.424Z" transform="translate(-289.192 -302.631)" fill="#ffbda7"/>
            </g>
          </g>
          <path id="Path_962" data-name="Path 962" d="M324,307.59a55.925,55.925,0,0,1,1.932,14.205,7.68,7.68,0,0,0,.256,2.387,2.372,2.372,0,0,0,1.626,1.626" transform="translate(-206.885 -298.14)" fill="none"/>
          <path id="Path_963" data-name="Path 963" d="M338.11,314.16c2.131,4.446-.05,14.383.107,15.079a2.507,2.507,0,0,0,1.2,1.7" transform="translate(-210.974 -300.044)" fill="none"/>
          <path id="Path_964" data-name="Path 964" d="M310.881,306.242c-.249,1.421-.455,3.047-.71,4.46a8.2,8.2,0,0,1-2.841-5.682" transform="translate(-202.055 -297.396)" fill="none"/>
          <path id="Path_965" data-name="Path 965" d="M292.541,360.09l-1.541.646" transform="translate(-197.324 -313.352)" fill="none"/>
          <path id="Path_966" data-name="Path 966" d="M293.645,361.82a8.877,8.877,0,0,0,0,3.594" transform="translate(-198.037 -313.853)" fill="none"/>
          <path id="Path_967" data-name="Path 967" d="M306.36,343.14c.568,1.016,1.129,2.038,1.7,3.061" transform="translate(-201.774 -308.441)" fill="none"/>
          <path id="Path_968" data-name="Path 968" d="M311,326.386,312.69,324" transform="translate(-203.119 -302.895)" fill="none"/>
          <path id="Path_969" data-name="Path 969" d="M344.221,343.14l-.511,1.868" transform="translate(-212.596 -308.441)" fill="none"/>
          <path id="Path_970" data-name="Path 970" d="M338.61,333.983q.71-2.387,1.5-4.773" transform="translate(-211.118 -304.405)" fill="none"/>
          <path id="Path_971" data-name="Path 971" d="M345.65,323.912a1.925,1.925,0,0,1,2.585.8" transform="translate(-213.158 -302.807)" fill="none"/>
          <path id="Path_972" data-name="Path 972" d="M331.28,312.475a3.672,3.672,0,0,1,3.416.781" transform="translate(-208.995 -299.516)" fill="none"/>
          <path id="Path_973" data-name="Path 973" d="M286.74,318.509a5.192,5.192,0,0,1,4.4-1.662" transform="translate(-196.09 -300.814)" fill="none"/>
          <path id="Path_974" data-name="Path 974" d="M277.71,299.973a4.759,4.759,0,0,1,3.551-.838" transform="translate(-193.473 -295.673)" fill="none"/>
          <path id="Path_975" data-name="Path 975" d="M278.721,345.09a9.064,9.064,0,0,0-2.081,2.337Z" transform="translate(-193.163 -309.006)" fill="#fff"/>
          <path id="Path_976" data-name="Path 976" d="M280.53,339.29c1.122-.8,2.912.987,3.942.071a1.634,1.634,0,0,0,.348-1.534,5.327,5.327,0,0,1-.206-1.627" transform="translate(-194.29 -306.43)" fill="none"/>
          <path id="Path_977" data-name="Path 977" d="M325.12,333.61a12.864,12.864,0,0,1,.781,9.106" transform="translate(-207.21 -305.679)" fill="none"/>
          <path id="Path_978" data-name="Path 978" d="M336.45,339.78a5.916,5.916,0,0,1-.71,3.906" transform="translate(-210.287 -307.467)" fill="none"/>
          <path id="Path_979" data-name="Path 979" d="M307.774,395.006l-7.415-23.339c-6.961-7.167-19.745-13.722-20.853-23.652-1.421-12.742-3.388-12.224-3.388-15.391a38.693,38.693,0,0,0,1.96-4.83,26.641,26.641,0,0,0,.71-3.842,2.585,2.585,0,0,1,2.727-2.216,4.383,4.383,0,0,1,2.479.966,6.662,6.662,0,0,1,2.131,4.482,19.532,19.532,0,0,1-.376,5.057,32.67,32.67,0,0,1,2.72,8.651c.6-2.387,1.023-4.78,1.619-7.167.156-.092.085-.277.227-.376-1.222-2.216-.312-2.131-2.763-7.067-4.127-8.267-8.651-16.2-12.209-26.7a6.179,6.179,0,0,1-.135-3.012c.831-3.118,4.02-2.628,5.512-.937a6.039,6.039,0,0,1,.959,1.484,81.336,81.336,0,0,0,7.649,12.628l8.523,11.243s2.543-2.379,2.891-3.4h0c.334-1.016,0-9.013,0-9.013s-.511,1.534-1.868,1.534c-.98,0-2.926.71-4.446-.8A3.7,3.7,0,0,1,294,304.69l3.175-4.972a5.32,5.32,0,0,1,5.441-1.023,26,26,0,0,1,6.463,3.914,12.694,12.694,0,0,1,5.441.71c2.557,1.03,5.377,4.262,5.377,4.262s2.891,0,4.262.831c.341.213,5.2,6.776,3.963,12.216-.71,3.246-1,7.905-1.342,9.169l-.085,31.4,5.867,20.811" transform="translate(-192.712 -294.289)" fill="none" stroke="#263238" stroke-width="1"/>
          <path id="Path_980" data-name="Path 980" d="M324,307.59a55.925,55.925,0,0,1,1.932,14.205,7.68,7.68,0,0,0,.256,2.387,2.372,2.372,0,0,0,1.626,1.626" transform="translate(-206.885 -298.14)" fill="none" stroke="#263238" stroke-width="1"/>
          <path id="Path_981" data-name="Path 981" d="M338.11,314.16c2.131,4.446-.05,14.383.107,15.079a2.507,2.507,0,0,0,1.2,1.7" transform="translate(-210.974 -300.044)" fill="none" stroke="#263238" stroke-width="1"/>
          <path id="Path_982" data-name="Path 982" d="M310.881,306.242c-.249,1.421-.455,3.047-.71,4.46a8.2,8.2,0,0,1-2.841-5.682" transform="translate(-202.055 -297.396)" fill="none" stroke="#263238" stroke-width="1"/>
          <path id="Path_983" data-name="Path 983" d="M292.541,360.09l-1.541.646" transform="translate(-197.324 -313.352)" fill="none" stroke="#263238" stroke-width="1"/>
          <path id="Path_984" data-name="Path 984" d="M293.645,361.82a8.877,8.877,0,0,0,0,3.594" transform="translate(-198.037 -313.853)" fill="none" stroke="#263238" stroke-width="1"/>
          <path id="Path_985" data-name="Path 985" d="M306.36,343.14c.568,1.016,1.129,2.038,1.7,3.061" transform="translate(-201.774 -308.441)" fill="none" stroke="#263238" stroke-width="1"/>
          <path id="Path_986" data-name="Path 986" d="M311,326.386,312.69,324" transform="translate(-203.119 -302.895)" fill="none" stroke="#263238" stroke-width="1"/>
          <path id="Path_987" data-name="Path 987" d="M344.221,343.14l-.511,1.868" transform="translate(-212.596 -308.441)" fill="none" stroke="#263238" stroke-width="1"/>
          <path id="Path_988" data-name="Path 988" d="M338.61,333.983q.71-2.387,1.5-4.773" transform="translate(-211.118 -304.405)" fill="none" stroke="#263238" stroke-width="1"/>
          <path id="Path_989" data-name="Path 989" d="M345.65,323.912a1.925,1.925,0,0,1,2.585.8" transform="translate(-213.158 -302.807)" fill="none" stroke="#263238" stroke-width="1"/>
          <path id="Path_990" data-name="Path 990" d="M331.28,312.475a3.672,3.672,0,0,1,3.416.781" transform="translate(-208.995 -299.516)" fill="none" stroke="#263238" stroke-width="1"/>
          <path id="Path_991" data-name="Path 991" d="M286.74,318.509a5.192,5.192,0,0,1,4.4-1.662" transform="translate(-196.09 -300.814)" fill="none" stroke="#263238" stroke-width="1"/>
          <path id="Path_992" data-name="Path 992" d="M277.71,299.973a4.759,4.759,0,0,1,3.551-.838" transform="translate(-193.473 -295.673)" fill="none" stroke="#263238" stroke-width="1"/>
          <path id="Path_993" data-name="Path 993" d="M278.721,345.09a9.064,9.064,0,0,0-2.081,2.337" transform="translate(-193.163 -309.006)" fill="none" stroke="#263238" stroke-width="1"/>
          <path id="Path_994" data-name="Path 994" d="M280.53,339.29c1.122-.8,2.912.987,3.942.071a1.634,1.634,0,0,0,.348-1.534,5.327,5.327,0,0,1-.206-1.627" transform="translate(-194.29 -306.43)" fill="none" stroke="#263238" stroke-width="1"/>
          <path id="Path_995" data-name="Path 995" d="M325.12,333.61a12.864,12.864,0,0,1,.781,9.106" transform="translate(-207.21 -305.679)" fill="none" stroke="#263238" stroke-width="1"/>
          <path id="Path_996" data-name="Path 996" d="M336.45,339.78a5.916,5.916,0,0,1-.71,3.906" transform="translate(-210.287 -307.467)" fill="none" stroke="#263238" stroke-width="1"/>
          <path id="Path_997" data-name="Path 997" d="M219.3,338.7a4.3,4.3,0,0,1-.064,1.477c-.462,2.131-1.8,8.367-2.287,11.776-.582,4.162-7.309,17.046-7.309,17.046s-6.193,7.7-9.347,11.705c-1.548,1.967-4,9.944-6.08,17.515q-3.942-1.193-7.813-2.571-3.2-1.14-6.392-2.394a104.469,104.469,0,0,1-11.094-5.4c1.179-4.262,1.967-7.578,1.953-7.77a52.943,52.943,0,0,1,2.529-5.384l-2.237-29.462-1.321-4.482a33.662,33.662,0,0,1-1.3-7.1,34.335,34.335,0,0,1,.916-10.888l3.857-5.725,1.8-.135L180.7,309.1s3.019-.909,3.793,1.364-2.514,6.52-2.514,6.52l-1.129,7.01,2.685,6.563,1.421.511s.469-11.556.149-13.864l2.912-10.5a50.1,50.1,0,0,0,2.315-5.3c.54-1.769,3.715-3.551,5.54-.419a4.567,4.567,0,0,1,.284,3.743c-.746,2.166-1.364,3.871-1.364,3.871s-.71,8.935-.888,9.184,1.314,13.3,1.314,13.3l1.165.518.412-12.465,2.422-11.712s-.2-5.632,3.771-4.972a3.068,3.068,0,0,1,2.919,1.818c1.058,2.024.05,15.5.05,15.5l.98,13.935,1.57,10.746,1.847-7.365s.107-10.554,6.769-11.456c0,0,1.982-.355,2.386,1.023s-.987,4.191-.788,6.89C218.9,335.464,219.167,337.6,219.3,338.7Z" transform="translate(-161.814 -295.729)" opacity="0.2"/>
          <path id="Path_998" data-name="Path 998" d="M214.583,324.463c-.305-1.42-2.3-1.2-2.3-1.2-6.712.4-7.614,10.917-7.614,10.917l-2.408,7.2-.71-10.839.071-13.971s2.031-13.367,1.129-15.462a3.061,3.061,0,0,0-2.777-2.031c-3.906-.98-4.134,4.652-4.134,4.652l-3.3,11.492-1.357,12.394-1.122-.6s-.533-13.154-.305-13.374,1.577-9.084,1.577-9.084.746-1.655,1.655-3.757a4.567,4.567,0,0,0,0-3.757,3,3,0,0,0-5.561,0,50.01,50.01,0,0,1-2.7,5.107l-3.764,10.292c.142,2.33-1.193,13.822-1.193,13.822l-1.357-.618-2.18-6.747,1.662-6.911s3.6-3.977,3-6.307-3.679-1.648-3.679-1.648l-6.186,7.344h-1.811l-4.262,5.405a34.284,34.284,0,0,0-.98,17.962l.98,4.567v29.518a53.463,53.463,0,0,0-2.926,5.178c0,.206-1.207,3.935-2.891,8.587a144.6,144.6,0,0,0,18.2,9.453q3.2,1.257,6.392,2.394c2.7-7.578,5.853-15.682,7.593-17.579,3.452-3.75,10.214-10.966,10.214-10.966s7.678-12.337,8.58-16.435c.71-3.367,2.543-9.482,3.168-11.577a4.1,4.1,0,0,0,.17-1.47c-.05-1.108-.156-3.26-.156-5.156C213.276,328.568,214.881,325.862,214.583,324.463Z" transform="translate(-159.119 -294.537)" fill="#ffbda7"/>
          <g id="Group_54" data-name="Group 54" transform="translate(0.021 0.615)" clip-path="url(#clip-path-2)">
            <path id="Path_999" data-name="Path 999" d="M169.612,320.367c1.151-1.421,3.509-1.982,4.844-.71a5.092,5.092,0,0,1,1.215,2.841,6.058,6.058,0,0,0,1.072,2.926,1.956,1.956,0,0,0,2.77.348c.1,1.555.192,3.111.291,4.666a18.5,18.5,0,0,0,2.443-9.532,20.7,20.7,0,0,1,.1-4.83c.376-1.577,1.591-3.1,3.21-3.175,1.79-.078,3.2,1.662,3.551,3.423s-.057,3.551-.163,5.355a16.293,16.293,0,0,0,1.534,7.962l1.129-2.287c.341,1.534.71,3.061,1.016,4.588q.44-5.05.881-10.093a7.357,7.357,0,0,1,.618-2.77,2.458,2.458,0,0,1,2.28-1.421c1.278.128,2.017,1.492,2.443,2.7,3.2,9.056,1.882,18.992.526,28.5.888.163,1.641-.71,1.861-1.612a20.612,20.612,0,0,1,.476-2.656c.334-.845,1.357-1.534,2.131-1.051,1.122.71.341,2.884,1.513,3.487a16.208,16.208,0,0,1,3.217-7.763c.788-1.023,1.967-2.038,3.217-1.712a2.528,2.528,0,0,1,1.683,2.131c.135.952,1.513-2.983,1.271-2.053.54-5.476-.54-6.051,0-11.535.1-.987,1.7-2.7,1.016-3.423s-2.578-1.7-3.438-1.307-3.644,1.79-4.2,2.55c-3.494,4.823-3.253,11.8-4.34,17.65-.93-8.921-1.847-17.991-.213-26.805.9-4.865,2.564-9.944.994-14.624-.71-2.131-2.621-4.262-4.844-3.878-1.79.327-2.841,2.131-3.6,3.807-2.443,5.611-3.551,11.705-4.6,17.756l3.992-18.218a12.324,12.324,0,0,0,.412-4.787,4.208,4.208,0,0,0-2.955-3.48c-1.577-.334-3.125.6-4.3,1.676-4.262,3.864-5.8,9.759-7.174,15.313a11.023,11.023,0,0,0,.824-4.482,3.76,3.76,0,0,0-2.607-3.4c-1.939-.419-3.693,1.307-4.546,3.09s-1.264,3.85-2.621,5.291a3.223,3.223,0,0,0-4.077-.22,7.877,7.877,0,0,0-2.592,3.551,33.041,33.041,0,0,0-2.749,15.967,5.846,5.846,0,0,1,5.831-3.324c-.142-1.207-.277-2.415-.419-3.629" transform="translate(-160.265 -294.025)" fill="#29b6f6"/>
            <path id="Path_1000" data-name="Path 1000" d="M178.815,348.064c-.064.9-.121,1.79-.185,2.685a1.293,1.293,0,0,1,1.967-.5,2.94,2.94,0,0,1,.447-1.662c.227-.54.249-1.307-.277-1.563s-1.236.412-1.57,1.023a5.5,5.5,0,0,0-.078-.668Z" transform="translate(-164.787 -310.166)" fill="#29b6f6"/>
            <path id="Path_1001" data-name="Path 1001" d="M192.651,346.024a6.279,6.279,0,0,0-1.421,2.969,3.06,3.06,0,0,1,1.044-.767,1.051,1.051,0,0,1,1.179.27c.156.213.213.526.455.646a.561.561,0,0,0,.71-.256,1.619,1.619,0,0,0,.178-.781,4.318,4.318,0,0,0-.085-1.541,1.5,1.5,0,0,0-1.023-1.073.923.923,0,0,0-1.115.781Z" transform="translate(-168.438 -309.731)" fill="#29b6f6"/>
            <path id="Path_1002" data-name="Path 1002" d="M206.512,349.021a8.069,8.069,0,0,0-1.492,3.551,3.11,3.11,0,0,0,1.385-.746,2.742,2.742,0,0,1,1.421-.71.987.987,0,0,1,1.1.867,6.684,6.684,0,0,1,.057-1.8,3.8,3.8,0,0,0-.128-1.79,1.513,1.513,0,0,0-1.371-1.009.952.952,0,0,0-.838,1.278Z" transform="translate(-172.433 -310.285)" fill="#29b6f6"/>
            <path id="Path_1003" data-name="Path 1003" d="M168.571,354.68a7.1,7.1,0,0,0-.831,3.338,1.165,1.165,0,0,1,1.044-1.037,2.33,2.33,0,0,1,1.513.4,4.1,4.1,0,0,0,.1-1.634,1.42,1.42,0,0,0-1.037-1.136c-.547-.085-1.144.433-.994.959l-.163-.4Z" transform="translate(-161.632 -312.379)" fill="#29b6f6"/>
            <path id="Path_1004" data-name="Path 1004" d="M169.612,320.367c1.151-1.421,3.509-1.982,4.844-.71a5.092,5.092,0,0,1,1.215,2.841,6.058,6.058,0,0,0,1.072,2.926,1.956,1.956,0,0,0,2.77.348c.1,1.555.192,3.111.291,4.666a18.5,18.5,0,0,0,2.443-9.532,20.7,20.7,0,0,1,.1-4.83c.376-1.577,1.591-3.1,3.21-3.175,1.79-.078,3.2,1.662,3.551,3.423s-.057,3.551-.163,5.355a16.293,16.293,0,0,0,1.534,7.962l1.129-2.287c.341,1.534.71,3.061,1.016,4.588q.44-5.05.881-10.093a7.357,7.357,0,0,1,.618-2.77,2.458,2.458,0,0,1,2.28-1.421c1.278.128,2.017,1.492,2.443,2.7,3.2,9.056,1.882,18.992.526,28.5.888.163,1.641-.71,1.861-1.612a20.612,20.612,0,0,1,.476-2.656c.334-.845,1.357-1.534,2.131-1.051,1.122.71.341,2.884,1.513,3.487a16.208,16.208,0,0,1,3.217-7.763c.788-1.023,1.967-2.038,3.217-1.712a2.528,2.528,0,0,1,1.683,2.131c.135.952,1.513-2.983,1.271-2.053.54-5.476-.54-6.051,0-11.535.1-.987,1.7-2.7,1.016-3.423s-2.578-1.7-3.438-1.307-3.644,1.79-4.2,2.55c-3.494,4.823-3.253,11.8-4.34,17.65-.93-8.921-1.847-17.991-.213-26.805.9-4.865,2.564-9.944.994-14.624-.71-2.131-2.621-4.262-4.844-3.878-1.79.327-2.841,2.131-3.6,3.807-2.443,5.611-3.551,11.705-4.6,17.756l3.992-18.218a12.324,12.324,0,0,0,.412-4.787,4.208,4.208,0,0,0-2.955-3.48c-1.577-.334-3.125.6-4.3,1.676-4.262,3.864-5.8,9.759-7.174,15.313a11.023,11.023,0,0,0,.824-4.482,3.76,3.76,0,0,0-2.607-3.4c-1.939-.419-3.693,1.307-4.546,3.09s-1.264,3.85-2.621,5.291a3.223,3.223,0,0,0-4.077-.22,7.877,7.877,0,0,0-2.592,3.551,33.041,33.041,0,0,0-2.749,15.967,5.846,5.846,0,0,1,5.831-3.324c-.142-1.207-.277-2.415-.419-3.629" transform="translate(-160.265 -294.025)" fill="#ffbda7"/>
            <g id="Group_53" data-name="Group 53" transform="translate(6.108 35.738)">
              <path id="Path_1005" data-name="Path 1005" d="M178.815,348.064c-.064.9-.121,1.79-.185,2.685a1.293,1.293,0,0,1,1.967-.5,2.94,2.94,0,0,1,.447-1.662c.227-.54.249-1.307-.277-1.563s-1.236.412-1.57,1.023a5.5,5.5,0,0,0-.078-.668Z" transform="translate(-170.895 -345.904)" fill="#ffbda7"/>
              <path id="Path_1006" data-name="Path 1006" d="M192.651,346.024a6.279,6.279,0,0,0-1.421,2.969,3.06,3.06,0,0,1,1.044-.767,1.051,1.051,0,0,1,1.179.27c.156.213.213.526.455.646a.561.561,0,0,0,.71-.256,1.619,1.619,0,0,0,.178-.781,4.318,4.318,0,0,0-.085-1.541,1.5,1.5,0,0,0-1.023-1.073.923.923,0,0,0-1.115.781Z" transform="translate(-174.546 -345.469)" fill="#ffbda7"/>
              <path id="Path_1007" data-name="Path 1007" d="M206.512,349.021a8.069,8.069,0,0,0-1.492,3.551,3.11,3.11,0,0,0,1.385-.746,2.742,2.742,0,0,1,1.421-.71.987.987,0,0,1,1.1.867,6.684,6.684,0,0,1,.057-1.8,3.8,3.8,0,0,0-.128-1.79,1.513,1.513,0,0,0-1.371-1.009.952.952,0,0,0-.838,1.278Z" transform="translate(-178.542 -346.023)" fill="#ffbda7"/>
              <path id="Path_1008" data-name="Path 1008" d="M168.571,354.68a7.1,7.1,0,0,0-.831,3.338,1.165,1.165,0,0,1,1.044-1.037,2.33,2.33,0,0,1,1.513.4,4.1,4.1,0,0,0,.1-1.634,1.42,1.42,0,0,0-1.037-1.136c-.547-.085-1.144.433-.994.959l-.163-.4Z" transform="translate(-167.74 -348.117)" fill="#ffbda7"/>
            </g>
          </g>
          <path id="Path_1010" data-name="Path 1010" d="M159.11,382.612c1.683-4.652,2.891-8.381,2.891-8.587a53.47,53.47,0,0,1,2.926-5.178V339.329l-.98-4.567a34.284,34.284,0,0,1,.98-17.962l4.262-5.405H171l6.151-7.358s3.083-.71,3.679,1.648-3,6.307-3,6.307L176.17,318.9l2.18,6.747,1.357.618s1.335-11.492,1.193-13.822l3.764-10.292a49.993,49.993,0,0,0,2.7-5.107c.71-1.719,3.977-3.225,5.561,0a4.567,4.567,0,0,1,0,3.757c-.909,2.131-1.655,3.757-1.655,3.757s-1.349,8.857-1.577,9.084S190,327.02,190,327.02l1.122.6,1.357-12.394,3.3-11.492s.227-5.632,4.134-4.652a3.061,3.061,0,0,1,2.777,2.031c.9,2.1-1.129,15.462-1.129,15.462l-.05,13.985.71,10.839,2.408-7.2s.9-10.519,7.614-10.917c0,0,2-.206,2.3,1.2s-1.307,4.105-1.307,6.811c0,1.9.106,4.048.156,5.156a4.1,4.1,0,0,1-.17,1.47c-.625,2.131-2.429,8.211-3.168,11.577-.9,4.1-8.58,16.435-8.58,16.435s-6.762,7.216-10.214,10.966c-1.74,1.9-4.894,10-7.593,17.579" transform="translate(-159.11 -294.537)" fill="none" stroke="#263238" stroke-width="1"/>
          <path id="Path_1011" data-name="Path 1011" d="M187.589,340.52a4.262,4.262,0,0,1-1.009,4.048" transform="translate(-167.069 -307.682)" fill="#fff" stroke="#263238" stroke-width="1"/>
          <path id="Path_1012" data-name="Path 1012" d="M171.84,345.147c.973-1.506,1.925-3.587,1.662-5.362-.511-3.487-2.131-7.5-1.421-10.952.455-2.2.909-4.411,1.371-6.613" transform="translate(-162.798 -302.379)" fill="#fff" stroke="#263238" stroke-width="1"/>
          <path id="Path_1013" data-name="Path 1013" d="M211.71,307.714a6.969,6.969,0,0,1,3.551,0,9.319,9.319,0,0,1,.036-.994" transform="translate(-174.35 -297.888)" fill="none" stroke="#263238" stroke-width="1"/>
          <path id="Path_1014" data-name="Path 1014" d="M198.58,301.106a2.273,2.273,0,0,0,3.551-1.9" transform="translate(-170.546 -295.712)" fill="none" stroke="#263238" stroke-width="1"/>
          <path id="Path_1015" data-name="Path 1015" d="M233.386,336.59a4.354,4.354,0,0,0-3.26,4.5l1.74.526" transform="translate(-179.684 -306.543)" fill="none" stroke="#263238" stroke-width="1"/>
          <path id="Path_1016" data-name="Path 1016" d="M202.532,337.81c.078,1.193-.071,4.041,0,5.235" transform="translate(-171.685 -306.896)" fill="#fff" stroke="#263238" stroke-width="1"/>
          <path id="Path_1017" data-name="Path 1017" d="M204.2,340.14q-.213,2.919-.433,5.853v-.746" transform="translate(-172.05 -307.572)" fill="#fff" stroke="#263238" stroke-width="1"/>
          <path id="Path_1018" data-name="Path 1018" d="M219.368,363.31a9.759,9.759,0,0,1-.668,6.435" transform="translate(-176.376 -314.285)" fill="#fff" stroke="#263238" stroke-width="1"/>
          <path id="Path_1019" data-name="Path 1019" d="M193.839,348.9c-1.548,1.7-1.321,5.774-.227,8.012" transform="translate(-168.852 -310.11)" fill="none" stroke="#263238" stroke-width="1"/>
          <path id="Path_1020" data-name="Path 1020" d="M209.626,352.85a7.976,7.976,0,0,1-1.9,5.206" transform="translate(-173.197 -311.254)" fill="none" stroke="#263238" stroke-width="1"/>
          <path id="Path_1021" data-name="Path 1021" d="M178.378,350a7.259,7.259,0,0,0,1.058,4.972" transform="translate(-164.67 -310.428)" fill="none" stroke="#263238" stroke-width="1"/>
          <path id="Path_1022" data-name="Path 1022" d="M169.127,357.51a6.059,6.059,0,0,0,1.094,3.793" transform="translate(-162.01 -312.604)" fill="none" stroke="#263238" stroke-width="1"/>
          <path id="Path_1023" data-name="Path 1023" d="M181.85,311.1a2.252,2.252,0,0,1,2.486.4l.874-1.158" transform="translate(-165.699 -298.937)" fill="none" stroke="#263238" stroke-width="1"/>
          <path id="Path_1024" data-name="Path 1024" d="M192.11,318.582a2.955,2.955,0,0,1,3.757.632" transform="translate(-168.671 -301.206)" fill="none" stroke="#263238" stroke-width="1"/>
          <path id="Path_1025" data-name="Path 1025" d="M208.13,323.583a4.759,4.759,0,0,1,4.041.085" transform="translate(-173.313 -302.656)" fill="none" stroke="#263238" stroke-width="1"/>
          <path id="Path_1026" data-name="Path 1026" d="M172.48,331.377a3.842,3.842,0,0,1,3.722-1.847" transform="translate(-162.984 -304.491)" fill="none" stroke="#263238" stroke-width="1"/>
          <path id="Path_1027" data-name="Path 1027" d="M165.77,340.929a2.017,2.017,0,0,1,1.683-1.889" transform="translate(-161.04 -307.253)" fill="none" stroke="#263238" stroke-width="1"/>
        </g>
        <g id="freepik--Coffee--inject-2" transform="translate(245.456 174.873)">
          <ellipse id="Ellipse_6" data-name="Ellipse 6" cx="29.44" cy="29.44" rx="29.44" ry="29.44" transform="translate(0 0)" fill="#00359f" stroke="#263238" stroke-linecap="round" stroke-linejoin="round" stroke-width="1"/>
          <path id="Path_1028" data-name="Path 1028" d="M451.389,218.544c-6.279,10.292-8.523,8.9-29.916,19.177-10.874,5.213-21.379-11.528-14.269-28.709.348-.838,3.416-5.078,3.416-5.078a15.683,15.683,0,0,1,27.4-6.478,16.933,16.933,0,0,1,15.043-3.594c.249.71.483,1.421.71,2.131.085.27.178.533.256.8.27.831.526,1.662.76,2.5q.71,2.386,1.307,4.8a9.624,9.624,0,0,0-6.989.419c-1.57.767-2.884,2.031-4.517,2.656s-3.892.27-4.517-1.364c.788,3.281,4.262,2.3,7.543,2.948C452.731,209.744,454.031,214.211,451.389,218.544Z" transform="translate(-388.623 -188.33)" opacity="0.2"/>
          <path id="Path_1029" data-name="Path 1029" d="M453.685,222.149s5.27-.71,7.77-.334a4.8,4.8,0,0,1,3.061,1.733,1.685,1.685,0,0,1,.362.945l.284,4.12a1.683,1.683,0,0,1-.455,1.271c-1.03,1.073-4.134,3.026-13.324,3.729C438.435,234.6,453.685,222.149,453.685,222.149Z" transform="translate(-400.586 -197.013)" fill="#fff" stroke="#263238" stroke-linecap="round" stroke-linejoin="round" stroke-width="1"/>
          <path id="Path_1030" data-name="Path 1030" d="M434.422,204.543a19.667,19.667,0,0,1,4.318,12.543c0,4.908-5.682,21.67-20.235,23.716-15.406,2.131-27.793-11.023-25.15-26.89C395.187,202.917,422.056,189.173,434.422,204.543Z" transform="translate(-385.179 -190.054)" fill="#fff" stroke="#263238" stroke-linecap="round" stroke-linejoin="round" stroke-width="1"/>
          <ellipse id="Ellipse_7" data-name="Ellipse 7" cx="22.352" cy="21.159" rx="22.352" ry="21.159" transform="translate(8.069 4.745)" fill="#fff"/>
          <ellipse id="Ellipse_8" data-name="Ellipse 8" cx="18.353" cy="17.366" rx="18.353" ry="17.366" transform="translate(12.025 9.645)" fill="#263238"/>
          <path id="Path_1031" data-name="Path 1031" d="M438.054,214.782c0-11.684-10.008-21.152-22.352-21.152s-22.352,9.5-22.352,21.152" transform="translate(-385.281 -188.878)" fill="none" stroke="#263238" stroke-linecap="round" stroke-linejoin="round" stroke-width="1"/>
          <path id="Path_1032" data-name="Path 1032" d="M448,237.729a20.449,20.449,0,0,0,5.9-14.319" transform="translate(-401.116 -197.507)" fill="none" stroke="#263238" stroke-linecap="round" stroke-linejoin="round" stroke-width="1"/>
          <path id="Path_1033" data-name="Path 1033" d="M402.78,244.67a22.927,22.927,0,0,0,15.626,6.058,23.332,23.332,0,0,0,10.377-2.408" transform="translate(-388.014 -203.667)" fill="none" stroke="#263238" stroke-linecap="round" stroke-linejoin="round" stroke-width="1"/>
          <path id="Path_1034" data-name="Path 1034" d="M398.24,239.36c.291.44.6.867.923,1.278" transform="translate(-386.698 -202.128)" fill="none" stroke="#263238" stroke-linecap="round" stroke-linejoin="round" stroke-width="1"/>
          <path id="Path_1035" data-name="Path 1035" d="M393.35,223.41a20.162,20.162,0,0,0,2.131,9.027" transform="translate(-385.281 -197.507)" fill="none" stroke="#263238" stroke-linecap="round" stroke-linejoin="round" stroke-width="1"/>
          <path id="Path_1036" data-name="Path 1036" d="M466.735,231.031s-3.985-2.791-10.455-.263" transform="translate(-403.515 -199.332)" fill="#fff" stroke="#263238" stroke-linecap="round" stroke-linejoin="round" stroke-width="1"/>
          <path id="Path_1037" data-name="Path 1037" d="M462.807,234.29a40.558,40.558,0,0,1-8.267,1.3" transform="translate(-403.011 -200.659)" fill="#fff" stroke="#263238" stroke-linecap="round" stroke-linejoin="round" stroke-width="1"/>
          <path id="Path_1038" data-name="Path 1038" d="M468.684,233.05a3.865,3.865,0,0,1-.994.518" transform="translate(-406.821 -200.3)" fill="#fff" stroke="#263238" stroke-linecap="round" stroke-linejoin="round" stroke-width="1"/>
        </g>
        <g id="freepik--Monitor--inject-2" transform="translate(37.552)">
          <path id="Path_1040" data-name="Path 1040" d="M336.214,94.836a90.2,90.2,0,0,1-14.134,9.944c-25.861,15.3-55.074,24.461-84.791,28.929s-59.974,4.333-89.919,1.868c-5.881-.483-11.861-1.08-17.266-3.452-4.581-2.017-8.736-5.526-10.654-10.064,6.485-7.387,12.515-14.859,19.227-21.912q2.4-2.521,4.915-4.972c1.421-1.357,2.841-2.692,4.361-4,1.719-1.47,3.445-2.969,5.27-4.389,2.521-1.96,5.178-3.842,8.019-5.639.71-.447,1.421-.881,2.081-1.307,70.82-44.036,122.946-29.646,157.72,0q3.956,3.4,7.614,6.946c1.477,1.421,2.9,2.9,4.262,4.4.156.156.3.32.447.49Q334.836,93.26,336.214,94.836Z" transform="translate(-100.742 -51.953)" opacity="0.2"/>
          <path id="Path_1041" data-name="Path 1041" d="M331.381,98.933,93.11,100.02l3.6-5.405a9.354,9.354,0,0,1,7.77-4.155H320.088a9.333,9.333,0,0,1,7.273,3.487Z" transform="translate(-93.11 -63.11)" fill="#fff" stroke="#263238" stroke-linecap="round" stroke-linejoin="round" stroke-width="1"/>
          <rect id="Rectangle_118" data-name="Rectangle 118" width="61.565" height="61.565" rx="30.783" transform="translate(85.977 71.535)" fill="#757575" stroke="#263238" stroke-linecap="round" stroke-linejoin="round" stroke-width="1"/>
          <path id="Path_1042" data-name="Path 1042" d="M229.91,203.34v8.75a4.972,4.972,0,0,0,4.972,4.972H264.9a4.972,4.972,0,0,0,4.972-4.936c.035-3.942.249-8.786.249-8.786Z" transform="translate(-132.747 -95.816)" fill="#999" stroke="#263238" stroke-linecap="round" stroke-linejoin="round" stroke-width="1"/>
          <path id="Path_1043" data-name="Path 1043" d="M300.158,176.387H124.575a4.5,4.5,0,0,1-4.191-2.841L93.3,104.019a2.77,2.77,0,0,1,2.571-3.779H328.839a2.77,2.77,0,0,1,2.585,3.779l-27.082,69.506A4.5,4.5,0,0,1,300.158,176.387Z" transform="translate(-93.111 -65.944)" fill="#bfbfbf" stroke="#263238" stroke-linecap="round" stroke-linejoin="round" stroke-width="1"/>
          <path id="Path_1044" data-name="Path 1044" d="M303.564,172.132H124.955L100.38,106.44H328.025Z" transform="translate(-95.216 -67.74)" fill="#263238"/>
          <rect id="Rectangle_119" data-name="Rectangle 119" width="39.817" height="2.727" transform="translate(97.355 110.351)" fill="#263238"/>
          <path id="Path_1045" data-name="Path 1045" d="M290.33,170.975H164.2c-.71,0-1.349-.313-1.477-.71l-17.941-57.027c-.2-.639.362-1.158,1.257-1.158h162.45c.895,0,1.421.518,1.25,1.158l-17.934,57.027A1.645,1.645,0,0,1,290.33,170.975Z" transform="translate(-108.07 -69.374)" fill="#a7b0ff"/>
          <path id="Path_1046" data-name="Path 1046" d="M291.77,172.7H166.579L151.33,122.62H307.019Z" transform="translate(-109.979 -72.428)" fill="#263238"/>
          <path id="Path_1047" data-name="Path 1047" d="M188.073,140.13h-23.7c-.59,0-.973.313-.859.71a1.286,1.286,0,0,0,1.25.71h23.566c.582,0,.994-.312.93-.71S188.655,140.13,188.073,140.13Z" transform="translate(-113.503 -77.502)" fill="#fff"/>
          <path id="Path_1048" data-name="Path 1048" d="M190.632,146.22H170.475c-.575,0-.959.305-.852.71a1.257,1.257,0,0,0,1.215.675h20.043c.575,0,.98-.305.916-.675S191.193,146.22,190.632,146.22Z" transform="translate(-115.274 -79.266)" fill="#fff"/>
          <path id="Path_1049" data-name="Path 1049" d="M190.612,152.1h-22.87c-.568,0-.938.3-.838.653a1.25,1.25,0,0,0,1.207.653h22.728c.561,0,.966-.291.9-.653S191.18,152.1,190.612,152.1Z" transform="translate(-114.486 -80.97)" fill="#fff" opacity="0.5"/>
          <path id="Path_1050" data-name="Path 1050" d="M195.5,157.78H182.067c-.554,0-.938.284-.852.632s.6.632,1.158.632h13.36c.554,0,.952-.284.888-.632S196.052,157.78,195.5,157.78Z" transform="translate(-118.634 -82.616)" fill="#fff"/>
          <path id="Path_1051" data-name="Path 1051" d="M192.986,163.26h-22.1c-.54,0-.909.277-.81.618a1.194,1.194,0,0,0,1.158.6h21.975c.547,0,.938-.27.881-.6S193.533,163.26,192.986,163.26Z" transform="translate(-115.405 -84.203)" fill="#fff"/>
          <path id="Path_1052" data-name="Path 1052" d="M195.693,168.57H177.852c-.54,0-.9.263-.817.59s.59.589,1.122.589h17.756c.533,0,.916-.263.859-.589S196.233,168.57,195.693,168.57Z" transform="translate(-117.423 -85.742)" fill="#fff"/>
          <path id="Path_1053" data-name="Path 1053" d="M196.758,173.7H179.207c-.533,0-.888.256-.8.568s.575.575,1.1.575h17.465c.526,0,.9-.256.845-.575S197.291,173.7,196.758,173.7Z" transform="translate(-117.82 -87.228)" fill="#fff"/>
          <path id="Path_1054" data-name="Path 1054" d="M197.01,178.66H177.833c-.518,0-.874.249-.788.554s.568.554,1.087.554h19.056c.518,0,.895-.249.838-.554S197.536,178.66,197.01,178.66Z" transform="translate(-117.426 -88.665)" fill="#fff"/>
          <path id="Path_1055" data-name="Path 1055" d="M200.675,183.47H188.3c-.511,0-.867.241-.8.54s.547.533,1.051.533h12.309c.511,0,.881-.241.831-.533S201.186,183.47,200.675,183.47Z" transform="translate(-120.458 -90.059)" fill="#fff" opacity="0.5"/>
          <path id="Path_1056" data-name="Path 1056" d="M189.365,133.807H171.7c-.6,0-.994.327-.888.71a1.278,1.278,0,0,0,1.257.71h17.558c.6,0,1.016-.32.945-.71A1.179,1.179,0,0,0,189.365,133.807Z" transform="translate(-115.619 -75.668)" fill="#fff" opacity="0.5"/>
          <path id="Path_1057" data-name="Path 1057" d="M185.331,127.258H160.742c-.6,0-1,.341-.881.76a1.364,1.364,0,0,0,1.307.753h24.44c.6,0,1.037-.341.959-.753A1.2,1.2,0,0,0,185.331,127.258Z" transform="translate(-112.444 -73.77)" fill="#fff"/>
          <path id="Path_1058" data-name="Path 1058" d="M198.27,188.13H177.893c-.5,0-.845.234-.767.519s.554.518,1.058.518h20.278c.5,0,.867-.227.817-.518S198.774,188.13,198.27,188.13Z" transform="translate(-117.449 -91.409)" fill="#fff"/>
          <path id="Path_1059" data-name="Path 1059" d="M209.713,141.634h4.6l-.227-1.754H209.45Z" transform="translate(-126.818 -77.429)" fill="#fff" opacity="0.5"/>
          <path id="Path_1060" data-name="Path 1060" d="M210.616,147.678h4.517l-.22-1.7H210.36Z" transform="translate(-127.082 -79.197)" fill="#fff" opacity="0.5"/>
          <path id="Path_1061" data-name="Path 1061" d="M211.491,153.5h4.439l-.213-1.634H211.25Z" transform="translate(-127.34 -80.903)" fill="#fff" opacity="0.5"/>
          <path id="Path_1062" data-name="Path 1062" d="M212.334,159.137H216.7l-.213-1.577H212.1Z" transform="translate(-127.586 -82.552)" fill="#fff" opacity="0.5"/>
          <path id="Path_1063" data-name="Path 1063" d="M213.157,164.577h4.29l-.206-1.527H212.93Z" transform="translate(-127.827 -84.143)" fill="#fff" opacity="0.5"/>
          <path id="Path_1064" data-name="Path 1064" d="M213.94,169.837h4.219l-.192-1.477H213.72Z" transform="translate(-128.056 -85.681)" fill="#fff" opacity="0.5"/>
          <path id="Path_1065" data-name="Path 1065" d="M214.713,174.928h4.148l-.185-1.428H214.5Z" transform="translate(-128.282 -87.17)" fill="#fff" opacity="0.5"/>
          <path id="Path_1066" data-name="Path 1066" d="M215.446,179.848h4.084l-.178-1.378H215.24Z" transform="translate(-128.496 -88.61)" fill="#fff" opacity="0.5"/>
          <path id="Path_1067" data-name="Path 1067" d="M216.166,184.622h4.02l-.178-1.342H215.96Z" transform="translate(-128.705 -90.004)" fill="#fff" opacity="0.5"/>
          <path id="Path_1068" data-name="Path 1068" d="M208.77,135.378h4.681l-.234-1.818H208.5Z" transform="translate(-126.543 -75.598)" fill="#fff" opacity="0.5"/>
          <path id="Path_1069" data-name="Path 1069" d="M207.794,128.879h4.766l-.241-1.889H207.51Z" transform="translate(-126.256 -73.695)" fill="#fff" opacity="0.5"/>
          <path id="Path_1070" data-name="Path 1070" d="M216.859,189.25h3.956l-.17-1.3H216.66Z" transform="translate(-128.907 -91.357)" fill="#fff" opacity="0.5"/>
          <path id="Path_1071" data-name="Path 1071" d="M251.05,179.214c0-.305.4-.554.916-.554h68.057c.518,0,.867.249.781.554a1.151,1.151,0,0,1-1.094.554H252C251.483,179.768,251.057,179.519,251.05,179.214Z" transform="translate(-138.872 -88.665)" fill="#fff"/>
          <path id="Path_1072" data-name="Path 1072" d="M333.393,174.844H295.707c-.526,0-.923-.256-.888-.575s.49-.568,1.023-.568H333.72c.526,0,.881.256.788.568a1.158,1.158,0,0,1-1.115.575Z" transform="translate(-151.553 -87.228)" fill="#fff"/>
          <path id="Path_1073" data-name="Path 1073" d="M278.32,174.844H266.615c-.526,0-.952-.256-.945-.575s.433-.568.966-.568H278.4c.526,0,.938.256.909.568S278.845,174.844,278.32,174.844Z" transform="translate(-143.108 -87.228)" fill="#fff" opacity="0.5"/>
          <path id="Path_1074" data-name="Path 1074" d="M295.827,169.749H242.671c-.533,0-.98-.263-1-.59s.4-.589.938-.589h53.44c.533,0,.923.263.859.589S296.367,169.749,295.827,169.749Z" transform="translate(-136.154 -85.742)" fill="#fff"/>
          <path id="Path_1075" data-name="Path 1075" d="M227.061,168.57h3.793c.533,0,.994.263,1.023.59s-.384.589-.916.589h-3.771c-.533,0-.994-.263-1.03-.589S226.528,168.57,227.061,168.57Z" transform="translate(-131.659 -85.742)" fill="#fff" opacity="0.5"/>
          <path id="Path_1076" data-name="Path 1076" d="M307.457,163.878c-.071.334-.568.6-1.115.6H256.254c-.547,0-.987-.27-.994-.6s.433-.618.973-.618H306.6C307.144,163.26,307.528,163.537,307.457,163.878Z" transform="translate(-140.091 -84.203)" fill="#fff"/>
          <path id="Path_1077" data-name="Path 1077" d="M226.492,163.26H240.7c.547,0,1,.277,1.016.618s-.419.6-.959.6H226.62c-.54,0-1.009-.27-1.051-.6S225.945,163.26,226.492,163.26Z" transform="translate(-131.488 -84.203)" fill="#fff"/>
          <path id="Path_1078" data-name="Path 1078" d="M225.9,157.78h54.647c.554,0,.966.284.916.632s-.533.632-1.087.632H226.035c-.547,0-1.03-.284-1.065-.632S225.346,157.78,225.9,157.78Z" transform="translate(-131.314 -82.616)" fill="#fff"/>
          <path id="Path_1079" data-name="Path 1079" d="M275.827,153.407c-.561,0-1-.291-.987-.653s.483-.653,1.051-.653H304.72c.568,0,.973.3.909.653s-.568.653-1.129.653Z" transform="translate(-145.764 -80.97)" fill="#fff"/>
          <path id="Path_1080" data-name="Path 1080" d="M225.291,152.1h24.951c.568,0,1.023.3,1.023.653s-.462.653-1.023.653H225.433c-.568,0-1.051-.291-1.094-.653S224.722,152.1,225.291,152.1Z" transform="translate(-131.131 -80.97)" fill="#fff"/>
          <path id="Path_1081" data-name="Path 1081" d="M328.486,147.565H259.8c-.568,0-1.037-.305-1.037-.675s.462-.71,1.037-.71H328.87c.575,0,.952.305.845.71a1.286,1.286,0,0,1-1.229.675Z" transform="translate(-141.106 -79.255)" fill="#fff"/>
          <path id="Path_1082" data-name="Path 1082" d="M333.576,141.531H273.14c-.582,0-1.044-.313-1.03-.71s.5-.71,1.08-.71H333.98c.582,0,.966.313.852.71a1.3,1.3,0,0,1-1.257.71Z" transform="translate(-144.973 -77.496)" fill="#fff"/>
          <path id="Path_1083" data-name="Path 1083" d="M354.911,135.278H342.254c-.6,0-1-.32-.909-.71a1.257,1.257,0,0,1,1.25-.71H355.3c.6,0,.987.327.867.71a1.321,1.321,0,0,1-1.257.71Z" transform="translate(-165.03 -75.683)" fill="#fff" opacity="0.5"/>
          <path id="Path_1084" data-name="Path 1084" d="M310.768,135.281H264.3c-.59,0-1.073-.32-1.065-.71s.483-.71,1.08-.71h46.749c.6,0,1.009.327.93.71A1.214,1.214,0,0,1,310.768,135.281Z" transform="translate(-142.401 -75.685)" fill="#fff"/>
          <path id="Path_1085" data-name="Path 1085" d="M228.651,183.47h42.921c.511,0,.9.241.866.54s-.462.533-.973.533H228.786c-.511,0-.952-.241-.987-.533S228.154,183.47,228.651,183.47Z" transform="translate(-132.134 -90.059)" fill="#fff"/>
          <path id="Path_1086" data-name="Path 1086" d="M229.172,188.13h65.94c.5,0,.859.234.8.519s-.511.518-1.016.518H229.285c-.5,0-.938-.227-.966-.518S228.667,188.13,229.172,188.13Z" transform="translate(-132.285 -91.409)" fill="#fff"/>
          <path id="Path_1087" data-name="Path 1087" d="M312.788,128.773H279.221c-.6,0-1.073-.341-1.051-.753s.526-.76,1.136-.76h33.766c.611,0,1.037.341.959.76A1.236,1.236,0,0,1,312.788,128.773Z" transform="translate(-146.729 -73.773)" fill="#fff"/>
          <path id="Path_1088" data-name="Path 1088" d="M253.309,128.773H222.768c-.6,0-1.136-.341-1.179-.753s.4-.76,1.016-.76h30.719c.6,0,1.094.341,1.087.76S253.913,128.773,253.309,128.773Z" transform="translate(-130.335 -73.773)" fill="#fff" opacity="0.5"/>
          <path id="Path_1089" data-name="Path 1089" d="M301.1,183.47c.511,0,.895.241.852.54s-.49.533-1,.533h-3.3c-.5,0-.888-.241-.852-.533s.476-.54.987-.54Z" transform="translate(-152.126 -90.059)" fill="#fff" opacity="0.5"/>
          <path id="Path_1090" data-name="Path 1090" d="M242.926,179.214c0,.305-.391.554-.909.554H237.5c-.518,0-.959-.249-.98-.554s.376-.554.895-.554h4.539C242.472,178.66,242.912,178.9,242.926,179.214Z" transform="translate(-134.661 -88.665)" fill="#fff" opacity="0.5"/>
          <path id="Path_1091" data-name="Path 1091" d="M319.31,158.412c-.064.348-.568.632-1.115.632H312.91c-.554,0-.952-.284-.9-.632s.554-.632,1.108-.632h5.313C318.983,157.78,319.381,158.064,319.31,158.412Z" transform="translate(-156.533 -82.616)" fill="#fff" opacity="0.5"/>
          <path id="Path_1092" data-name="Path 1092" d="M343.305,163.258c.547,0,.916.277.824.618a1.179,1.179,0,0,1-1.143.6h-4.212c-.547,0-.916-.27-.838-.6a1.151,1.151,0,0,1,1.136-.618Z" transform="translate(-164.043 -84.201)" fill="#fff" opacity="0.5"/>
          <path id="Path_1093" data-name="Path 1093" d="M248.075,147.565c-.568,0-1.044-.305-1.065-.675s.44-.71,1.016-.71h4.482c.575,0,1.044.305,1.051.71s-.455.675-1.023.675Z" transform="translate(-137.701 -79.255)" fill="#fff" opacity="0.5"/>
          <path id="Path_1094" data-name="Path 1094" d="M160.766,116.469a1.513,1.513,0,0,1-1.492,2.131,3.154,3.154,0,0,1-2.8-2.131,1.513,1.513,0,0,1,1.477-2.131A3.139,3.139,0,0,1,160.766,116.469Z" transform="translate(-111.431 -70.028)" fill="#fff"/>
          <path id="Path_1095" data-name="Path 1095" d="M168.917,116.52a1.563,1.563,0,0,1-1.563,2.131,3.033,3.033,0,0,1-2.727-2.131,1.57,1.57,0,0,1,1.548-2.131A3.012,3.012,0,0,1,168.917,116.52Z" transform="translate(-113.801 -70.043)" fill="#fff"/>
          <path id="Path_1096" data-name="Path 1096" d="M177.156,116.47a1.612,1.612,0,0,1-1.626,2.131,2.9,2.9,0,0,1-2.663-2.131,1.619,1.619,0,0,1,1.619-2.131A2.884,2.884,0,0,1,177.156,116.47Z" transform="translate(-116.194 -70.028)" fill="#fff"/>
          <path id="Path_1097" data-name="Path 1097" d="M100.38,106.44l19.141,51.16,23.091-51.16Z" transform="translate(-95.216 -67.74)" fill="#fff" opacity="0.1"/>
          <path id="Path_1098" data-name="Path 1098" d="M145.85,172.132l38.3-65.692h40.094l-56.373,65.692Z" transform="translate(-108.391 -67.74)" fill="#fff" opacity="0.1"/>
          <path id="Path_1099" data-name="Path 1099" d="M256.2,105.98,196.5,172h9.2l61.842-65.692Z" transform="translate(-123.066 -67.607)" fill="#fff" opacity="0.1"/>
          <path id="Path_1100" data-name="Path 1100" d="M297.16,172.132l65.614-65.692h9.262l-67.652,65.692Z" transform="translate(-152.232 -67.74)" fill="#fff" opacity="0.1"/>
        </g>
        <g id="freepik--speech-bubbles--inject-2" transform="translate(47.588 122.24)">
          <path id="Path_1101" data-name="Path 1101" d="M164.341,239.07H149.361a3.551,3.551,0,0,0-3.551,3.551v7.287a3.551,3.551,0,0,0,3.551,3.551h3.914l2.969,6.726,4.183-6.726h3.914a3.551,3.551,0,0,0,3.551-3.551v-7.337a3.551,3.551,0,0,0-3.551-3.5Z" transform="translate(-118.415 -228.409)" fill="#fff" stroke="#263238" stroke-linecap="round" stroke-linejoin="round" stroke-width="1"/>
          <path id="Path_1102" data-name="Path 1102" d="M158.42,244.65a.711.711,0,1,1,.71.661A.71.71,0,0,1,158.42,244.65Zm.156,1.484h1.144v4.872h-1.144Z" transform="translate(-122.069 -229.82)" fill="#263238"/>
          <path id="Path_1103" data-name="Path 1103" d="M163.341,245.971v.291h1.335v.916h-1.3V251.1h-1.143v-3.921h-.8v-.916h.8v-.305a1.577,1.577,0,0,1,1.74-1.69,1.875,1.875,0,0,1,1.037.263l-.32.859a1.129,1.129,0,0,0-.632-.2C163.589,245.19,163.341,245.452,163.341,245.971Z" transform="translate(-122.941 -229.912)" fill="#263238"/>
          <path id="Path_1104" data-name="Path 1104" d="M228.552,240.5h-15A3.551,3.551,0,0,0,210,244.051v7.294a3.551,3.551,0,0,0,3.551,3.551h3.921l2.962,6.726,4.183-6.726h3.921a3.551,3.551,0,0,0,3.551-3.551v-7.323A3.551,3.551,0,0,0,228.552,240.5Z" transform="translate(-137.014 -228.823)" fill="#fff" stroke="#263238" stroke-linecap="round" stroke-linejoin="round" stroke-width="1"/>
          <path id="Path_1105" data-name="Path 1105" d="M217.434,251.247h-3.828a1.477,1.477,0,0,0,1.584,1.172,1.747,1.747,0,0,0,1.321-.533l.611.71a2.734,2.734,0,0,1-4.652-1.7,2.422,2.422,0,0,1,2.514-2.493,2.372,2.372,0,0,1,2.465,2.521C217.448,251.006,217.441,251.141,217.434,251.247Zm-3.835-.753h2.8a1.321,1.321,0,0,0-1.378-1.186A1.342,1.342,0,0,0,213.6,250.494Z" transform="translate(-137.729 -231.112)" fill="#263238"/>
          <path id="Path_1106" data-name="Path 1106" d="M221,245.8h1.136v6.769H221Z" transform="translate(-140.201 -230.359)" fill="#263238"/>
          <path id="Path_1107" data-name="Path 1107" d="M224,252.836l.433-.867a3.281,3.281,0,0,0,1.7.483c.71,0,1.023-.2,1.023-.54,0-.93-3.011-.057-3.011-2,0-.923.831-1.527,2.131-1.527a3.914,3.914,0,0,1,1.825.419l-.44.867a2.685,2.685,0,0,0-1.421-.362c-.71,0-1.023.227-1.023.547,0,.987,3.012.107,3.012,2.017,0,.909-.838,1.506-2.209,1.506A3.835,3.835,0,0,1,224,252.836Z" transform="translate(-141.07 -231.109)" fill="#263238"/>
          <path id="Path_1108" data-name="Path 1108" d="M235.744,251.247h-3.828a1.477,1.477,0,0,0,1.584,1.172,1.747,1.747,0,0,0,1.321-.533l.611.71a2.734,2.734,0,0,1-4.652-1.7,2.422,2.422,0,0,1,2.514-2.493,2.372,2.372,0,0,1,2.465,2.521C235.758,251.006,235.751,251.141,235.744,251.247Zm-3.835-.753h2.763a1.321,1.321,0,0,0-1.378-1.186A1.342,1.342,0,0,0,231.909,250.494Z" transform="translate(-143.034 -231.112)" fill="#263238"/>
          <path id="Path_1109" data-name="Path 1109" d="M290.818,239.9H275.831a3.551,3.551,0,0,0-3.551,3.516v7.294a3.551,3.551,0,0,0,3.551,3.551h3.921l2.962,6.726,4.183-6.726h3.921a3.551,3.551,0,0,0,3.551-3.551v-7.294A3.551,3.551,0,0,0,290.818,239.9Z" transform="translate(-155.059 -228.649)" fill="#fff" stroke="#263238" stroke-linecap="round" stroke-linejoin="round" stroke-width="1"/>
          <path id="Path_1110" data-name="Path 1110" d="M281.341,246.8v.291h1.335v.916h-1.307v3.921h-1.136v-3.921h-.8v-.916h.8v-.305a1.577,1.577,0,0,1,1.733-1.69,1.8,1.8,0,0,1,1.03.263l-.32.859a1.093,1.093,0,0,0-.625-.2C281.589,246.02,281.341,246.283,281.341,246.8Z" transform="translate(-157.13 -230.153)" fill="#263238"/>
          <path id="Path_1111" data-name="Path 1111" d="M284.419,250.189a2.6,2.6,0,1,1,2.592,2.5,2.457,2.457,0,0,1-2.592-2.5Zm4.041,0a1.42,1.42,0,1,0-.376,1.074A1.421,1.421,0,0,0,288.461,250.189Z" transform="translate(-158.575 -230.849)" fill="#263238"/>
          <path id="Path_1112" data-name="Path 1112" d="M296.077,247.777v1.087a1.842,1.842,0,0,0-.263,0,1.328,1.328,0,0,0-1.421,1.506v2.365H293.25v-4.872h1.087v.71A1.925,1.925,0,0,1,296.077,247.777Z" transform="translate(-161.135 -230.929)" fill="#263238"/>
          <path id="Path_1113" data-name="Path 1113" d="M352.178,239.07H337.191a3.551,3.551,0,0,0-3.551,3.551v7.287a3.551,3.551,0,0,0,3.551,3.551h3.921l2.962,6.726,4.183-6.726h3.921a3.551,3.551,0,0,0,3.551-3.551v-7.337A3.551,3.551,0,0,0,352.178,239.07Z" transform="translate(-172.837 -228.409)" fill="#fff" stroke="#263238" stroke-linecap="round" stroke-linejoin="round" stroke-width="1"/>
          <path id="Path_1114" data-name="Path 1114" d="M346.45,246.69h4.2v.93h-4.2Zm0,2.209h4.2v.916h-4.2Z" transform="translate(-176.549 -230.617)" fill="#263238"/>
          <path id="Path_1115" data-name="Path 1115" d="M196.509,227.19H181.551A3.551,3.551,0,0,0,178,230.741v7.287a3.551,3.551,0,0,0,3.551,3.551h3.921l2.962,6.726,4.183-6.726h3.921a3.551,3.551,0,0,0,3.551-3.551v-7.316a3.551,3.551,0,0,0-3.58-3.523Z" transform="translate(-127.742 -224.967)" fill="#fff" stroke="#263238" stroke-linecap="round" stroke-linejoin="round" stroke-width="1"/>
          <path id="Path_1116" data-name="Path 1116" d="M188.55,231.45h2.18v.916h-1.044v6.712h1.044v.916h-2.18Z" transform="translate(-130.799 -226.201)" fill="#263238"/>
          <path id="Path_1117" data-name="Path 1117" d="M195.6,239.994v-.916h1.03v-6.712H195.6v-.916h2.166v8.523Z" transform="translate(-132.841 -226.201)" fill="#263238"/>
          <path id="Path_1118" data-name="Path 1118" d="M259.218,226.14H244.231a3.551,3.551,0,0,0-3.551,3.551v7.287a3.551,3.551,0,0,0,3.551,3.551h3.921l2.969,6.726,4.183-6.726h3.913a3.551,3.551,0,0,0,3.551-3.551v-7.316A3.551,3.551,0,0,0,259.218,226.14Z" transform="translate(-145.903 -224.663)" fill="#fff" stroke="#263238" stroke-linecap="round" stroke-linejoin="round" stroke-width="1"/>
          <path id="Path_1119" data-name="Path 1119" d="M251.418,234.638c.362.114.54.362.54.93V237.3a.611.611,0,0,0,.71.71h.192v.916H252.4a1.357,1.357,0,0,1-1.548-1.492v-1.875c0-.305-.156-.44-.412-.44h-.3v-.93h.3c.256,0,.412-.135.412-.44v-1.875a1.357,1.357,0,0,1,1.548-1.492h.462v.916h-.192a.611.611,0,0,0-.71.71v1.733C251.958,234.269,251.781,234.518,251.418,234.638Z" transform="translate(-148.644 -225.888)" fill="#263238"/>
          <path id="Path_1120" data-name="Path 1120" d="M260.624,234.143v.909h-.312c-.249,0-.4.135-.4.44v1.875a1.356,1.356,0,0,1-1.555,1.492h-.462v-.895h.192a.618.618,0,0,0,.71-.71v-1.733c0-.568.163-.817.526-.93-.362-.121-.526-.369-.526-.938V231.92a.618.618,0,0,0-.71-.71h-.192v-.916h.462a1.357,1.357,0,0,1,1.555,1.492v1.875c0,.305.156.44.4.44Z" transform="translate(-150.889 -225.861)" fill="#263238"/>
          <path id="Path_1121" data-name="Path 1121" d="M321.278,224.06H306.291a3.551,3.551,0,0,0-3.551,3.551V234.9a3.551,3.551,0,0,0,3.551,3.551H310.2l2.969,6.726,4.183-6.726h3.921a3.551,3.551,0,0,0,3.551-3.551v-7.33A3.551,3.551,0,0,0,321.278,224.06Z" transform="translate(-163.884 -224.06)" fill="#fff" stroke="#263238" stroke-linecap="round" stroke-linejoin="round" stroke-width="1"/>
          <path id="Path_1122" data-name="Path 1122" d="M317.449,231.323a.753.753,0,1,1,.352.713A.753.753,0,0,1,317.449,231.323Zm1.5,3.473a2.132,2.132,0,0,1-.213.788l-.469,1.286h-.71l.369-1.42a.71.71,0,0,1-.433-.675.742.742,0,0,1,1.484,0Z" transform="translate(-168.145 -225.925)" fill="#263238"/>
          <path id="Path_1123" data-name="Path 1123" d="M244.911,394.9h14.979a3.551,3.551,0,0,0,3.551-3.551v-7.259a3.551,3.551,0,0,0-3.551-3.551h-3.914l-1.143-6.726-6.009,6.726h-3.914a3.551,3.551,0,0,0-3.551,3.551v7.287A3.551,3.551,0,0,0,244.911,394.9Z" transform="translate(-146.1 -267.449)" fill="#fff" stroke="#263238" stroke-linecap="round" stroke-linejoin="round" stroke-width="1"/>
          <path id="Path_1124" data-name="Path 1124" d="M252.055,390.926l-3.146,1.207,3.146,1.172v.959l-4.2-1.634v-.987l4.2-1.634Z" transform="translate(-147.98 -272.142)" fill="#263238"/>
          <path id="Path_1125" data-name="Path 1125" d="M257.221,386.63h1.016l-3.011,8.6H254.21Z" transform="translate(-149.823 -271.163)" fill="#263238"/>
          <path id="Path_1126" data-name="Path 1126" d="M264.395,391.605v.987l-4.2,1.634v-.952l3.146-1.172-3.146-1.179V390Z" transform="translate(-151.556 -272.14)" fill="#263238"/>
          <path id="Path_1127" data-name="Path 1127" d="M110.791,320.148h14.979a3.551,3.551,0,0,0,3.551-3.516v-7.294a3.551,3.551,0,0,0-3.551-3.551h-3.914l.852-6.726-8,6.726h-3.914a3.551,3.551,0,0,0-3.551,3.551v7.294A3.551,3.551,0,0,0,110.791,320.148Z" transform="translate(-107.24 -245.791)" fill="#fff" stroke="#263238" stroke-linecap="round" stroke-linejoin="round" stroke-width="1"/>
          <path id="Path_1128" data-name="Path 1128" d="M118.49,319.906a.71.71,0,1,1,.71.71A.71.71,0,0,1,118.49,319.906Zm.064-5.746H119.9l-.227,4.262h-.9Z" transform="translate(-110.5 -250.166)" fill="#263238"/>
          <path id="Path_1129" data-name="Path 1129" d="M122.14,316.46h4.2v.916h-4.2Zm0,2.209h4.2v.916h-4.2Z" transform="translate(-111.557 -250.832)" fill="#263238"/>
        </g>
      </g>
    </g>
  </g>
</svg>
