<svg xmlns="http://www.w3.org/2000/svg" width="64" height="64" viewBox="0 0 64 64">
  <g id="fingerprint-03-svgrepo-com" transform="translate(-0.058 -0.238)">
    <g id="Rectangle_451" data-name="Rectangle 451" transform="translate(0.058 0.238)" fill="#fff" stroke="#e7e7e7" stroke-width="2">
      <rect width="64" height="64" rx="13" stroke="none"/>
      <rect x="1" y="1" width="62" height="62" rx="12" fill="none"/>
    </g>
    <g id="finger" transform="translate(14.111 14.895)">
      <path id="Path_9393" data-name="Path 9393" d="M10.076,32.96A23.045,23.045,0,0,1,5.893,19.688a11.573,11.573,0,1,1,23.146,0" transform="translate(-0.11 3.47)" fill="none" stroke="#263238" stroke-linecap="round" stroke-linejoin="round" stroke-width="2"/>
      <path id="Path_9394" data-name="Path 9394" d="M10.076,32.96A23.045,23.045,0,0,1,5.893,19.688a11.573,11.573,0,1,1,23.146,0" transform="translate(-0.11 3.47)" fill="none" stroke="#263238" stroke-linecap="round" stroke-linejoin="round" stroke-width="2"/>
      <path id="Path_9395" data-name="Path 9395" d="M24.2,25.767c-.208.012-.413.031-.623.031A11.576,11.576,0,0,1,12,14.219" transform="translate(5.358 8.939)" fill="none" stroke="#263238" stroke-linecap="round" stroke-linejoin="round" stroke-width="2"/>
      <path id="Path_9396" data-name="Path 9396" d="M24.2,25.767c-.208.012-.413.031-.623.031A11.576,11.576,0,0,1,12,14.219" transform="translate(5.358 8.939)" fill="none" stroke="#263238" stroke-linecap="round" stroke-linejoin="round" stroke-width="2"/>
      <path id="Path_9397" data-name="Path 9397" d="M22.605,37.171a17.358,17.358,0,0,1-8.192-14.748,5.788,5.788,0,1,1,11.575,0,5.788,5.788,0,1,0,11.575,0,17.361,17.361,0,1,0-34.722,0,29.047,29.047,0,0,0,.679,6.228" transform="translate(-2.842 0.735)" fill="none" stroke="#263238" stroke-linecap="round" stroke-linejoin="round" stroke-width="2"/>
      <path id="Path_9398" data-name="Path 9398" d="M22.605,37.171a17.358,17.358,0,0,1-8.192-14.748,5.788,5.788,0,1,1,11.575,0,5.788,5.788,0,1,0,11.575,0,17.361,17.361,0,1,0-34.722,0,29.047,29.047,0,0,0,.679,6.228" transform="translate(-2.842 0.735)" fill="none" stroke="#263238" stroke-linecap="round" stroke-linejoin="round" stroke-width="2"/>
      <path id="Path_9399" data-name="Path 9399" d="M35.792,9.322a21.491,21.491,0,0,0-32.317,0" transform="translate(-2.275 -2)" fill="none" stroke="#263238" stroke-linecap="round" stroke-linejoin="round" stroke-width="2"/>
      <path id="Path_9400" data-name="Path 9400" d="M35.792,9.322a21.491,21.491,0,0,0-32.317,0" transform="translate(-2.275 -2)" fill="none" stroke="#263238" stroke-linecap="round" stroke-linejoin="round" stroke-width="2"/>
    </g>
  </g>
</svg>
