<svg xmlns="http://www.w3.org/2000/svg" xmlns:xlink="http://www.w3.org/1999/xlink" width="419" height="428.24" viewBox="0 0 419 428.24">
  <defs>
    <filter id="Path_850" x="152.935" y="56.475" width="131.462" height="199.349" filterUnits="userSpaceOnUse">
      <feOffset dx="2" dy="3" input="SourceAlpha"/>
      <feGaussianBlur stdDeviation="2" result="blur"/>
      <feFlood flood-opacity="0.271" result="color"/>
      <feComposite operator="out" in="SourceGraphic" in2="blur"/>
      <feComposite operator="in" in="color"/>
      <feComposite operator="in" in2="SourceGraphic"/>
    </filter>
  </defs>
  <g id="Group_57" data-name="Group 57" transform="translate(-55.446 -90)">
    <path id="Path_633" data-name="Path 633" d="M149.1.844c90.979-8.071,91.163,43.244,132.162,91.075s49.782,69.526,34.323,124.663-67.545,98.4-131.986,73.877-101.354-.968-142-22.745-55.761-63.766-25.988-113.291S36.884,10.844,149.1.844Z" transform="translate(474.446 238.744) rotate(120)" fill="#3f3f3f"/>
    <g id="Typewriter-bro" transform="translate(125.129 146.475)">
      <g id="Reading_a_letter-rafiki" data-name="Reading a letter-rafiki" transform="translate(0 0)">
        <g id="freepik--Letter--inject-2" transform="translate(58.763)">
          <path id="Path_847" data-name="Path 847" d="M392.975,411.982H222.307a3.867,3.867,0,0,1-3.867-3.866V291.1l81.768-61.865A8.574,8.574,0,0,1,310.4,229.1l86.446,62v117.04a3.867,3.867,0,0,1-3.867,3.838Z" transform="translate(-218.44 -157.535)" fill="#436fe3"/>
          <path id="Path_848" data-name="Path 848" d="M389.968,411.982l-157.2-8.419c-2.135,0-4.708,2.135-4.708,0L224.44,291.1,297.2,229.24a8.574,8.574,0,0,1,10.188-.135L401.025,291l-7.19,117.143a3.867,3.867,0,0,1-3.867,3.838Z" transform="translate(-222.939 -157.535)" opacity="0.2"/>
          <g data-type="innerShadowGroup">
            <path id="Path_850-2" data-name="Path 850" d="M363.569,354.469H242.74a10.633,10.633,0,0,0,4.833-8.922V164.158a9.956,9.956,0,0,1,5.8-9.038H374.2a9.956,9.956,0,0,0-5.8,9.038V345.547a10.633,10.633,0,0,1-4.833,8.922Z" transform="translate(-218.251 -155.12)" fill="#2a2a2a"/>
            <g transform="matrix(1, 0, 0, 1, -128.45, -56.48)" filter="url(#Path_850)">
              <path id="Path_850-3" data-name="Path 850" d="M363.569,354.469H242.74a10.633,10.633,0,0,0,4.833-8.922V164.158a9.956,9.956,0,0,1,5.8-9.038H374.2a9.956,9.956,0,0,0-5.8,9.038V345.547a10.633,10.633,0,0,1-4.833,8.922Z" transform="translate(-89.8 -98.64)" fill="#fff"/>
            </g>
          </g>
          <path id="Path_851" data-name="Path 851" d="M360.463,211.23c-1.711-.851-6.844.077-8.187.232s-1.982.077-3.209.222-1.353,0-1.566-.454-2.359-.155-2.9-.358-5.365.822-10.527.812-1.7.087-2.446-.812-3.229.667-3.77.764-1.817.135-2.011-.793-1.527.967-2.832.773,1.518-2.233-.271-1.315-5.906,1.315-5.906,1.315l1.3.967c-4.93.077-9.222.155-10.082.232s-1.392.077-2.359-1.479-.86.4-4.5,1.324-4.5.7-6.225-.155-2.571.077-3.867.232-1.982.077-3.209.222-1.344,0-1.566-.454-2.359-.155-2.9-.358-5.365.822-10.527.812-1.7.087-2.446-.812-3.229.667-3.76.764-1.827.135-2.011-.793-1.537.967-2.832.773,1.518-2.233-.28-1.315-5.906,1.315-5.906,1.315" transform="translate(-219.682 -156.953)" fill="none" stroke="#ddd" stroke-linecap="round" stroke-linejoin="round" stroke-width="1"/>
          <path id="Path_852" data-name="Path 852" d="M287.712,173.832c-.541-.2-5.365.822-10.527.812s-1.7.087-2.436-.812-3.238.667-3.77.764-1.827.135-2.011-.793-1.527.967-2.832.773,1.518-2.233-.271-1.3-5.916,1.3-5.916,1.3" transform="translate(-219.825 -155.718)" fill="none" stroke="#ddd" stroke-linecap="round" stroke-linejoin="round" stroke-width="1"/>
          <path id="Path_853" data-name="Path 853" d="M363.122,314.392c-.532-.2-5.355.822-10.517.812s-1.711.087-2.446-.812-3.229.667-3.77.764-1.817.135-2.011-.793-1.527.967-2.832.773,1.518-2.233-.271-1.315-5.916,1.315-5.916,1.315" transform="translate(-222.341 -160.407)" fill="none" stroke="#ddd" stroke-linecap="round" stroke-linejoin="round" stroke-width="1"/>
          <path id="Path_854" data-name="Path 854" d="M255.56,222.635a2.784,2.784,0,0,1,2.175,0l.87-.619c.5.609,1.46.445,2.156.1a4.041,4.041,0,0,1,2.165-.773c-.048.329-.106.667-.155.967a11.08,11.08,0,0,0,2.987-.831.6.6,0,0,0,.251.8,1.566,1.566,0,0,0,.9.135l8.932-.319,1.576-.058a.367.367,0,0,1,.232.445,5.278,5.278,0,0,0,2.987-1.634,1.334,1.334,0,0,0,1.015,1.489,2.736,2.736,0,0,0,1.933-.348,2.425,2.425,0,0,1,.831-.319.638.638,0,0,1,.686.454c.551-.251,1.141.184,1.73.338a3.869,3.869,0,0,0,1.112.068l12.064-.493,2.948.57s4.128-.387,5.916-1.3-1.025,1.073.271,1.3,2.649-1.7,2.832-.773,1.479.889,2.011.793,3.035-1.653,3.77-.754-2.716.793,2.446.8,9.985-.967,10.517-.8,2.687-.106,2.9.348.329.6,1.566.454,1.866-.068,3.209-.222,2.194-1.073,3.915-.232,2.571,1.083,6.225.155,3.538-2.9,4.5-1.315,6.612,1.547,7.462,1.469" transform="translate(-219.679 -157.3)" fill="none" stroke="#ddd" stroke-linecap="round" stroke-linejoin="round" stroke-width="1"/>
          <path id="Path_855" data-name="Path 855" d="M360.711,203.029c-.367,0,.367,0,0-.068-.58-.155.551-.59,0-.338-.048-.3-5.452-.474-5.751-.445a2.291,2.291,0,0,0-.831.309,2.736,2.736,0,0,1-1.933.348,1.334,1.334,0,0,1-.967-1.489,5.345,5.345,0,0,1-2.987,1.643.377.377,0,0,0-.232-.454l-1.576.058-8.932.329a1.663,1.663,0,0,1-.9-.145.6.6,0,0,1-.251-.8,11.076,11.076,0,0,1-2.987.831c.058-.338.106-.677.155-.967a4.128,4.128,0,0,0-2.165.773c-.7.348-1.653.512-2.156-.1l-.87.628a2.745,2.745,0,0,0-2.175,0l-8.7-.851s-4.021.087-4.659-.271-2.9.9-2.9.9h-2.9l-3.7.135v-.706a28.6,28.6,0,0,1-4.34.57c-2.088.077-2.571.377-2.668-.57s-2.8.261-4.949.706-1.711.358-2.359-.706-1.45.145-2.571.58a4.572,4.572,0,0,1-3.7,0c-.967-.59-5.152.367-6.853.387s-.068-.474-.425-1.3-1.576,1.392-2.726,1.3.967-2.214-.648-2.049a14.276,14.276,0,0,0-4.321,1.788" transform="translate(-220.085 -156.66)" fill="none" stroke="#ddd" stroke-linecap="round" stroke-linejoin="round" stroke-width="1"/>
          <path id="Path_856" data-name="Path 856" d="M353.056,231.526c-.638,0-1.508-.493-1.46-1.885-.435-.425-.909.338-1.324.87s-1.112.59-1.228-.435a1.276,1.276,0,0,1-2-.155,1.634,1.634,0,0,1-1.866,1.179l-17.071-.715a1.933,1.933,0,0,1-1.2-.338c-.251-.193-.474-.5-.735-.609-.7-.309-1.324.889-1.933,1.6s-1.663.57-1.769-.967c-.725,1.4-1.817,1.808-2.716.967-.406.338-.841.677-1.266.522a2.03,2.03,0,0,1-.744-1.933,3.248,3.248,0,0,1-1.933,2.562,3.664,3.664,0,0,1-2.349-.445l-6.853.271a21,21,0,0,1-6.766-.551c.058.474-.667.657-1.2.667l-4.5.077a2.435,2.435,0,0,1-.967-.126.657.657,0,0,1-.445-.735,6.1,6.1,0,0,1-2.832.058c-.532-.28-1.112.251-1.663.493a3.712,3.712,0,0,1-1.576.2l-7.781-.126a2.263,2.263,0,0,1-1.885-.609,9.067,9.067,0,0,0-3.074,1.933,3.14,3.14,0,0,0,0-1.692,7.5,7.5,0,0,0-2.233,1.276c-.087-1.054-.184-2.107-.28-3.151-1.547.174-2.62,1.643-4.176,1.8a19.976,19.976,0,0,0-2.629-.058c-.686.155-1.518.638-2,.164-.135-.126-.2-.319-.377-.406a.889.889,0,0,0-.7.068,10.343,10.343,0,0,1-6.215.28" transform="translate(-219.67 -157.598)" fill="none" stroke="#ddd" stroke-linecap="round" stroke-linejoin="round" stroke-width="1"/>
          <path id="Path_857" data-name="Path 857" d="M254.5,252.017s3.3-.387,4.727-1.315-.822,1.083.222,1.315,2.117-1.711,2.272-.783,1.179.9,1.6.8,2.426-1.663,3.016-.764-2.175.8,1.933.812,7.994-.967,8.419-.812,2.146-.106,2.32.358.261.59,1.247.454,1.5-.068,2.571-.222,1.759-1.083,3.142-.232,2.059,1.073,4.978.155,2.832-2.9,3.605-1.324,1.2,1.556,1.885,1.479,4.128-.155,8.071-.232l7.134-.242a10.3,10.3,0,0,0,6.206-.271.889.889,0,0,1,.7-.068c.174.087.251.271.387.406.474.464,1.3,0,2-.174a21.856,21.856,0,0,1,2.629.068c1.547-.155,2.62-1.624,4.176-1.808.087,1.054.184,2.107.28,3.151a7.424,7.424,0,0,1,2.223-1.266,3.054,3.054,0,0,1,0,1.692,8.836,8.836,0,0,1,3.074-1.933c.367.532,1.179.6,1.875.609l7.791.126a3.75,3.75,0,0,0,1.576-.2c.551-.242,1.131-.773,1.663-.5a5.973,5.973,0,0,0,2.832-.048.657.657,0,0,0,.445.735,2.436,2.436,0,0,0,.967.116l4.5-.077c.532,0,1.247-.184,1.2-.657,2.194.541,1.933.735,4.156.551" transform="translate(-219.643 -158.273)" fill="none" stroke="#ddd" stroke-linecap="round" stroke-linejoin="round" stroke-width="1"/>
          <path id="Path_858" data-name="Path 858" d="M361.027,241.176c-2.9.918-1.692.686-3.064-.155s-2.059.077-3.132.232-1.595.077-2.581.222-1.073,0-1.247-.454-1.885-.155-2.32-.358-4.292.822-8.419.812-1.363.087-1.933-.812-2.581.667-3.016.764-1.46.135-1.6-.8-1.228.967-2.272.783,1.218-2.233-.213-1.315a15.157,15.157,0,0,1-4.736,1.315l-8.168-.251-6.138.068c-.638,0-1.5-.493-1.45-1.933-.445-.425-.909.338-1.334.87s-1.112.59-1.218-.435a1.286,1.286,0,0,1-2.011-.155,1.634,1.634,0,0,1-1.856,1.179l-17.071-.715a1.934,1.934,0,0,1-1.208-.338,4.108,4.108,0,0,0-.725-.609c-.706-.309-1.334.889-1.933,1.6s-1.672.58-1.769-.967c-.735,1.4-1.827,1.808-2.726.967-.406.338-.831.686-1.257.522a2.049,2.049,0,0,1-.754-1.933,3.267,3.267,0,0,1-1.933,2.562,3.7,3.7,0,0,1-2.359-.445" transform="translate(-220.246 -157.92)" fill="none" stroke="#ddd" stroke-linecap="round" stroke-linejoin="round" stroke-width="1"/>
          <path id="Path_859" data-name="Path 859" d="M362.985,175.581l-17.071-.725a1.865,1.865,0,0,1-1.2-.338,4.237,4.237,0,0,0-.735-.609c-.7-.3-1.324.889-1.933,1.614s-1.672.57-1.769-.967c-.735,1.4-1.827,1.808-2.726.967-.406.338-.831.686-1.266.532a2.059,2.059,0,0,1-.744-1.933,3.267,3.267,0,0,1-1.933,2.562,3.809,3.809,0,0,1-2.359-.445" transform="translate(-222.204 -155.745)" fill="none" stroke="#ddd" stroke-linecap="round" stroke-linejoin="round" stroke-width="1"/>
          <path id="Path_860" data-name="Path 860" d="M362.985,322.821l-17.071-.715a1.933,1.933,0,0,1-1.2-.338,4.3,4.3,0,0,0-.735-.619c-.7-.3-1.324.9-1.933,1.614s-1.672.57-1.769-.967c-.735,1.4-1.827,1.808-2.726.967-.406.338-.831.677-1.266.522a2.059,2.059,0,0,1-.744-1.933,3.267,3.267,0,0,1-1.933,2.562,3.683,3.683,0,0,1-2.359-.445" transform="translate(-222.204 -160.658)" fill="none" stroke="#ddd" stroke-linecap="round" stroke-linejoin="round" stroke-width="1"/>
          <path id="Path_861" data-name="Path 861" d="M254.5,270.756a15.853,15.853,0,0,0,7.733-.28,1.362,1.362,0,0,1,.87-.068c.213.087.3.271.474.406.6.464,1.624,0,2.484-.174,1.054-.193,2.175.155,3.258.068,1.933-.155,3.258-1.624,5.191-1.808l.348,3.151a10.343,10.343,0,0,1,2.765-1.266,2.484,2.484,0,0,1,0,1.692,11.679,11.679,0,0,1,3.818-1.933,3.3,3.3,0,0,0,2.339.609l9.666.126a5.646,5.646,0,0,0,1.933-.2c.686-.242,1.4-.773,2.069-.493a9.367,9.367,0,0,0,3.519-.058c-.126.29.164.6.541.735a4.022,4.022,0,0,0,1.237.126l5.6-.087c.657,0,1.556-.184,1.489-.657a32.574,32.574,0,0,0,8.41.551l6.9.367a5.4,5.4,0,0,1,3.084,0l1.228-.628c.715.609,2.078.454,3.064.1a7.734,7.734,0,0,1,3.074-.773c-.068.338-.145.667-.213.967a21.179,21.179,0,0,0,4.234-.831c-.261.261,0,.648.348.8a3.334,3.334,0,0,0,1.286.145l12.663-.329,2.243-.058c.251.048.416.271.329.454a7.733,7.733,0,0,0,3.915-1.634c-.232.648-.9,1.315,0,1.479" transform="translate(-219.643 -158.916)" fill="none" stroke="#ddd" stroke-linecap="round" stroke-linejoin="round" stroke-width="1"/>
          <path id="Path_862" data-name="Path 862" d="M360.224,260.773c-.667-.271.686.251,0,.5s.657.2,0,.2l-10.788-.135a3.344,3.344,0,0,1-2.339-.6,11.85,11.85,0,0,0-3.818,1.933,2.456,2.456,0,0,0,0-1.682,9.775,9.775,0,0,0-2.765,1.266l-.348-3.151c-1.933.184-3.258,1.653-5.191,1.808a30.675,30.675,0,0,0-3.257-.068c-.86.164-1.933.638-2.484.164-.174-.126-.261-.319-.474-.406a1.431,1.431,0,0,0-.87.068,15.622,15.622,0,0,1-7.733.28l-2.832.251-17.119.493a7.857,7.857,0,0,1-1.585-.068c-.831-.155-1.672-.59-2.455-.338-.077-.3-.551-.474-.967-.454a4.045,4.045,0,0,0-1.17.319,5.355,5.355,0,0,1-2.7.348c-.909-.164-1.672-.841-1.44-1.489a8.7,8.7,0,0,1-4.234,1.634c.077-.174-.077-.4-.338-.454l-2.233.068-12.663.319a3.3,3.3,0,0,1-1.286-.135c-.377-.164-.609-.551-.358-.8a20.916,20.916,0,0,1-4.234.831c.077-.338.145-.677.222-1.015a7.539,7.539,0,0,0-3.074.783c-.967.348-2.359.512-3.064-.1l-1.237.619a5.481,5.481,0,0,0-3.084,0" transform="translate(-219.637 -158.59)" fill="none" stroke="#ddd" stroke-linecap="round" stroke-linejoin="round" stroke-width="1"/>
          <path id="Path_863" data-name="Path 863" d="M254.29,281.021a7.734,7.734,0,0,0,2.446.213,2.63,2.63,0,0,0,2.049-1.266.967.967,0,0,0,.773.967,2.532,2.532,0,0,0,1.315-.261,2.7,2.7,0,0,0,2.832-.5c.106.773,1.179.851,1.837.493s1.315-.967,2.04-.8a5.671,5.671,0,0,1,.764.3,3.643,3.643,0,0,0,1.247.174l17.757.358a2.281,2.281,0,0,0,1.933-.59,2.368,2.368,0,0,0,2.088.077c.116.512.841.474,1.276.213s.918-.638,1.373-.425c-.048.686.851.967,1.518.967h6.38l2.262-.116a5.4,5.4,0,0,1,3.084,0l1.237-.628c.715.609,2.078.445,3.064.1a7.52,7.52,0,0,1,3.074-.773c-.077.338-.145.667-.222.967a21.137,21.137,0,0,0,4.243-.831c-.261.261,0,.648.348.8a3.294,3.294,0,0,0,1.286.145l12.663-.329,2.233-.058c.261.048.416.271.338.454a8.826,8.826,0,0,0,4.234-1.643c-.232.657.541,1.324,1.44,1.489a5.229,5.229,0,0,0,2.7-.348,4,4,0,0,1,1.179-.309c.416,0,.889.145.967.445a5.377,5.377,0,0,1,2.455.338,7.208,7.208,0,0,0,1.585.068" transform="translate(-219.636 -159.254)" fill="none" stroke="#ddd" stroke-linecap="round" stroke-linejoin="round" stroke-width="1"/>
          <path id="Path_864" data-name="Path 864" d="M396.843,293.3V410.35a3.867,3.867,0,0,1-3.451,3.809H221.912a3.867,3.867,0,0,1-3.432-3.809V293.3l75.987,52.45,4.156,2.9,6.67,4.611,7.047-4.611,4.389-2.9Z" transform="translate(-218.441 -159.731)" fill="#a8c0ff"/>
          <path id="Path_865" data-name="Path 865" d="M396.843,410.633v1.15a4.089,4.089,0,0,1-3.451,4.176H221.911a4.089,4.089,0,0,1-3.432-4.176v-1.16l75.987-63.073,4.157,2.9,6.67,4.611,7.047-4.611,4.389-2.9Z" transform="translate(-218.441 -161.541)" opacity="0.2"/>
          <path id="Path_866" data-name="Path 866" d="M396.842,411.1v1.054a3.867,3.867,0,0,1-3.867,3.867H222.307a3.867,3.867,0,0,1-3.867-3.867V411.1l80.144-60.676,1.624-1.228a8.584,8.584,0,0,1,10.188-.135l1.933,1.363Z" transform="translate(-218.44 -161.538)" fill="#a8c0ff"/>
        </g>
        <g id="freepik--Character--inject-2" transform="translate(0 7.222)">
          <path id="Path_867" data-name="Path 867" d="M190.584,165.181a7.791,7.791,0,0,1,7.288-2.446c4.833.764,14.5,9.193,13.6,18.3s-3.7,17.4-6.563,17.767c0,0-2.542-3.238-15.9-2.832s-10.933-8.042-8.758-14.78S181.788,162.02,190.584,165.181Z" transform="translate(-158.346 -162.591)" fill="#263238"/>
          <path id="Path_868" data-name="Path 868" d="M209.338,204.08c2.658,2.484,11.29,17.109,12.305,17.747s1.45-6.022,1.45-6.022l4.708-.831s2.542,16.133-4.282,14.664c-7.656-1.663-17.709-15.621-17.709-15.621s.725-4.524,1.092-6.177S209.338,204.08,209.338,204.08Z" transform="translate(-159.256 -163.976)" fill="#29b6f6"/>
          <path id="Path_869" data-name="Path 869" d="M223.519,229.638c-5.916-1.286-13.253-9.9-16.288-13.755-.9-1.141-1.421-1.866-1.421-1.866s.387-2.388.725-4.321c.135-.735.271-1.4.367-1.856.377-1.663,2.436-3.76,2.436-3.76,2.658,2.484,11.29,17.109,12.305,17.747s1.45-6.022,1.45-6.022l4.708-.831S230.343,231.068,223.519,229.638Z" transform="translate(-159.256 -163.976)" fill="#a8c0ff"/>
          <path id="Path_870" data-name="Path 870" d="M207.231,216.076c-.9-1.141-1.421-1.866-1.421-1.866s.387-2.388.725-4.321A12.005,12.005,0,0,1,207.231,216.076Z" transform="translate(-159.256 -164.17)" opacity="0.2"/>
          <path id="Path_871" data-name="Path 871" d="M203.838,215.836c-1.237,3.712-2.2,6.921-2.987,9.8a109.831,109.831,0,0,0-4.05,22.117l-29.763-3.2c-.783-21.266,0-32.991.648-38.83.725-6.215,1.692-6.428,1.692-6.428s6.766-.522,12.644-.358a95.018,95.018,0,0,1,13.533,1.692,88.425,88.425,0,0,1,12.479,3.277c-.725,1.933-1.382,3.789-1.991,5.519C205.23,211.727,204.5,213.854,203.838,215.836Z" transform="translate(-157.951 -163.803)" fill="#29b6f6"/>
          <path id="Path_872" data-name="Path 872" d="M208.033,203.907c-.725,1.933-1.382,3.789-1.991,5.52-.812,2.3-1.547,4.427-2.2,6.409-1.237,3.712-2.2,6.921-2.987,9.8a109.829,109.829,0,0,0-4.05,22.117l-29.763-3.2c-.1-2.62-.164-5.084-.222-7.424-.116-5.259-.135-9.811-.077-13.746v-2.03c.135-6.5.454-11.136.773-14.345.058-.464.1-.889.145-1.286.725-6.215,1.692-6.428,1.692-6.428s6.766-.522,12.644-.367a96.437,96.437,0,0,1,13.533,1.7A88.432,88.432,0,0,1,208.033,203.907Z" transform="translate(-157.951 -163.803)" fill="#a8c0ff"/>
          <path id="Path_873" data-name="Path 873" d="M170.443,208.353s-.706,7.849-3.673,13.282c.135-6.5.454-11.136.773-14.345A13.05,13.05,0,0,1,170.443,208.353Z" transform="translate(-157.953 -164.083)" opacity="0.2"/>
          <path id="Path_874" data-name="Path 874" d="M195.3,236.739l-8.816-1.063s-1.324,2.629-3.422,2.9-6.989-3.48-6.989-3.48a25.363,25.363,0,0,1-9.26,2.9c-.116-5.258-.135-9.811-.077-13.745,2.7.193,9.666,1.15,19.516,5.6C187.464,230.369,195.3,236.739,195.3,236.739Z" transform="translate(-157.951 -164.649)" opacity="0.2"/>
          <path id="Path_875" data-name="Path 875" d="M225,408.962l-6.1,1.073-2.5-8.313-2.281-7.627,7.027-2.465L223.2,400.8Z" transform="translate(-159.533 -170.234)" fill="#ffbda7"/>
          <path id="Path_876" data-name="Path 876" d="M223.226,401l-6.8.889-2.291-7.714,7.018-2.494Z" transform="translate(-159.534 -170.235)" opacity="0.2"/>
          <path id="Path_877" data-name="Path 877" d="M182.989,411.842h-6.2l-1.015-8.719-.918-7.955,7.346-1.228.416,9.473Z" transform="translate(-158.223 -170.311)" fill="#ffbda7"/>
          <path id="Path_878" data-name="Path 878" d="M182.622,403.5l-6.844-.309-.918-7.994,7.346-1.237Z" transform="translate(-158.223 -170.311)" opacity="0.2"/>
          <path id="Path_879" data-name="Path 879" d="M222,391.213l-10.024,1.769c-10.111-25.2-17.3-46.234-22.387-63.691-2.736-9.415-5.017-17.8-6.66-25.229l.309,27.433v61.8h-9.879c-24.755-117.929-7.047-147.373-7.047-147.373l29.463-2.359a133.719,133.719,0,0,1,2.484,16.636l1.334,9.831,11.6,59.806Z" transform="translate(-157.733 -165.293)" fill="#263238"/>
          <path id="Path_880" data-name="Path 880" d="M190.375,330.471c-2.736-9.415-4.833-17.8-6.505-25.229a232.086,232.086,0,0,1,1.933-26.3S190.124,312.83,190.375,330.471Z" transform="translate(-158.524 -166.474)" opacity="0.2"/>
          <path id="Path_881" data-name="Path 881" d="M166.935,241.11l30.517,1.788-.483,5.258L166.22,246.3Z" transform="translate(-157.935 -165.211)"/>
          <path id="Path_882" data-name="Path 882" d="M188.5,242.567a2.126,2.126,0,0,0-1.421-.7l-3.751-.242a1.556,1.556,0,0,0-1.7,1.614v2.417a2.223,2.223,0,0,0,1.866,2.146h.164l3.751.232a1.556,1.556,0,0,0,1.692-1.614v-2.407A2.165,2.165,0,0,0,188.5,242.567Zm-1.179,4.514-3.751-.232a1.015,1.015,0,0,1-.7-.338,1.073,1.073,0,0,1-.29-.715v-2.407a.764.764,0,0,1,.831-.783l3.751.232h.077a1.1,1.1,0,0,1,.609.338,1.044,1.044,0,0,1,.29.706v.367a.406.406,0,0,0-.145,0l-1.054-.077a.551.551,0,0,0-.59.6.783.783,0,0,0,.686.7l1.054.077h.048v.793a.754.754,0,0,1-.822.744Z" transform="translate(-158.449 -165.228)" fill="#fff"/>
          <path id="Path_883" data-name="Path 883" d="M175.33,408.079c0-.638,7.965-.135,7.965-.135s4.882,4.968,9.666,6.09,2.1,3.963-3.209,3.963H176.587C172.817,418,175.175,414.758,175.33,408.079Z" transform="translate(-158.21 -170.772)" fill="#263238"/>
          <path id="Path_884" data-name="Path 884" d="M187.8,409.923a9.946,9.946,0,0,1-3.3-.967l-.068-.048h0a.241.241,0,0,1,0-.164c0-.077.7-1.933,1.779-2.378a1.189,1.189,0,0,1,1.025,0q.551.261.522.667c0,.416-.59.841-1.237,1.179a3.257,3.257,0,0,1,1.788.193.86.86,0,0,1,.416.541.783.783,0,0,1-.184.851A1.131,1.131,0,0,1,187.8,409.923Zm-2.562-1.141c1.17.5,2.62.967,3,.628,0,0,.135-.106,0-.416a.425.425,0,0,0-.222-.28A5.229,5.229,0,0,0,185.242,408.783Zm1.421-2.185a.831.831,0,0,0-.329.068,3.567,3.567,0,0,0-1.363,1.711c1.179-.454,2.32-1.063,2.339-1.421,0-.116-.174-.222-.28-.271A.889.889,0,0,0,186.663,406.6Z" transform="translate(-158.542 -170.721)" fill="#263238"/>
          <path id="Path_885" data-name="Path 885" d="M217.33,408.079c0-.638,7.965-.135,7.965-.135s4.882,4.968,9.666,6.09,2.1,3.963-3.209,3.963H218.587C214.817,418,217.175,414.758,217.33,408.079Z" transform="translate(-159.611 -170.772)" fill="#263238"/>
          <path id="Path_886" data-name="Path 886" d="M229.8,409.923a9.945,9.945,0,0,1-3.3-.967l-.068-.048h0a.242.242,0,0,1,0-.164c0-.077.7-1.933,1.779-2.378a1.189,1.189,0,0,1,1.025,0q.551.261.522.667c0,.416-.59.841-1.237,1.179a3.257,3.257,0,0,1,1.788.193.86.86,0,0,1,.416.541.783.783,0,0,1-.184.851,1.131,1.131,0,0,1-.744.126Zm-2.562-1.141c1.17.5,2.62.967,3,.628,0,0,.135-.106,0-.416a.425.425,0,0,0-.222-.28A5.229,5.229,0,0,0,227.242,408.783Zm1.421-2.185a.831.831,0,0,0-.329.068,3.566,3.566,0,0,0-1.363,1.711c1.179-.454,2.32-1.063,2.339-1.421,0-.116-.174-.222-.28-.271A.889.889,0,0,0,228.663,406.6Z" transform="translate(-159.944 -170.721)" fill="#263238"/>
          <path id="Path_887" data-name="Path 887" d="M218.047,197.17s-8.477,7.868-8.825,10.73-2.281,13.7-2.281,13.7h14.741s2.3-10.382,3.441-12.228,7.269-7.008,7.269-7.008Z" transform="translate(-159.293 -163.745)" fill="#29b6f6"/>
          <path id="Path_888" data-name="Path 888" d="M218.047,197.17s-8.477,7.868-8.825,10.73-2.281,13.7-2.281,13.7h14.741s2.3-10.382,3.441-12.228,7.269-7.008,7.269-7.008Z" transform="translate(-159.293 -163.745)" fill="#2a2a2a"/>
          <path id="Path_889" data-name="Path 889" d="M174.16,198.987a20.444,20.444,0,0,0,14.693,9.454c10.043,1.15,13.533-6.38,13.533-6.38S188.853,197.218,174.16,198.987Z" transform="translate(-158.2 -163.793)" fill="#ffbda7"/>
          <path id="Path_890" data-name="Path 890" d="M189.421,206.578c-6.283-3.335-7.2-6.9-7.2-6.9C187.9,197.308,187,189.15,187,189.15l7.385,4.485a25.335,25.335,0,0,0-1.576,3.219c-1.875,4.833.28,5.674.28,5.674C193.51,205.66,189.421,206.578,189.421,206.578Z" transform="translate(-158.469 -163.478)" fill="#ffbda7"/>
          <path id="Path_891" data-name="Path 891" d="M194.555,193.634a25.333,25.333,0,0,0-1.576,3.219c-5.365-2.02-5.8-7.733-5.8-7.733Z" transform="translate(-158.634 -163.477)" opacity="0.2"/>
          <path id="Path_892" data-name="Path 892" d="M198.471,169.086c7.047,2.223,8.12,6.766,6.341,14.142-2.223,9.28-6.273,15.089-14.5,10.362C179.2,187.181,186.765,165.383,198.471,169.086Z" transform="translate(-158.557 -162.794)" fill="#ffbda7"/>
          <path id="Path_893" data-name="Path 893" d="M200.876,181.83a15.59,15.59,0,0,0,1.131,3.577,2.03,2.03,0,0,1-2.107.2Z" transform="translate(-159.059 -163.233)" fill="#d4827d"/>
          <path id="Path_894" data-name="Path 894" d="M196.591,179.786c-.164.58-.619.967-.967.851a1.031,1.031,0,0,1-.406-1.266c.164-.59.628-.967.967-.851A1.031,1.031,0,0,1,196.591,179.786Z" transform="translate(-158.9 -163.122)" fill="#263238"/>
          <path id="Path_895" data-name="Path 895" d="M196.05,178.5l1.421-.126S196.524,179.25,196.05,178.5Z" transform="translate(-158.93 -163.118)" fill="#263238"/>
          <path id="Path_896" data-name="Path 896" d="M204.129,181.836c-.174.58-.628.967-1.015.851s-.57-.677-.4-1.257.619-.967,1.015-.851S204.293,181.256,204.129,181.836Z" transform="translate(-159.15 -163.191)" fill="#263238"/>
          <path id="Path_897" data-name="Path 897" d="M203.59,180.555,205,180.42S204.064,181.309,203.59,180.555Z" transform="translate(-159.182 -163.186)" fill="#263238"/>
          <path id="Path_898" data-name="Path 898" d="M198.043,174.758a3.867,3.867,0,0,0-3.393.1" transform="translate(-158.883 -162.986)" fill="none" stroke="#263238" stroke-linecap="round" stroke-linejoin="round" stroke-width="0.725"/>
          <path id="Path_899" data-name="Path 899" d="M203.55,176.14a3.46,3.46,0,0,1,2.629,1.46" transform="translate(-159.18 -163.044)" fill="none" stroke="#263238" stroke-linecap="round" stroke-linejoin="round" stroke-width="0.725"/>
          <path id="Path_900" data-name="Path 900" d="M197.765,188.184a18.153,18.153,0,0,0-1.595,2.185l-.445-.184c-1.933-.86-2.62-1.933-2.726-2.823a2.784,2.784,0,0,1,.184-1.3,2.823,2.823,0,0,1,.358-.667,10.227,10.227,0,0,0,3.548,2.484C197.494,188.077,197.765,188.184,197.765,188.184Z" transform="translate(-158.828 -163.352)" fill="#263238"/>
          <path id="Path_901" data-name="Path 901" d="M197.1,187.914l-.483.638c-1.866-.812-3.074-1.634-3.422-2.455a2.821,2.821,0,0,1,.358-.667A10.227,10.227,0,0,0,197.1,187.914Z" transform="translate(-158.835 -163.353)" fill="#fff"/>
          <path id="Path_902" data-name="Path 902" d="M195.726,190.253c-1.933-.86-2.62-1.933-2.726-2.823a6.767,6.767,0,0,1,2.011,1.392A2.513,2.513,0,0,1,195.726,190.253Z" transform="translate(-158.828 -163.42)" fill="#de5753"/>
          <path id="Path_903" data-name="Path 903" d="M186.977,178.416s5.123-4.746,6.032-9.376c0,0,15.766-1.3,11.977,13.1,0,0,5.346-12.151-6.679-16.259s-17.573,13.63-12.992,20.879C185.315,186.758,183.788,181.442,186.977,178.416Z" transform="translate(-158.519 -162.681)" fill="#263238"/>
          <path id="Path_904" data-name="Path 904" d="M187.615,180.645a3.238,3.238,0,0,0-2.436-3.867c-2.262-.445-4.717,3.7.377,6.5C186.281,183.671,186.968,183.043,187.615,180.645Z" transform="translate(-158.48 -163.064)" fill="#ffbda7"/>
          <path id="Path_905" data-name="Path 905" d="M227.98,215.065l-.367-3.1s.715-1.933.367-2.726c-.657-1.576-4.833-3.519-5.461-3.867s-3.577,4.34-3.19,5.287,5.23,3.122,5.23,3.122v1.933Z" transform="translate(-159.706 -164.018)" fill="#ffbda7"/>
          <path id="Path_906" data-name="Path 906" d="M201.232,229.534l-4-5.674s-10.275,1.189-10.411,1.5l-3.142,7.337a.638.638,0,0,0,.377.851l13.069,4.427a.638.638,0,0,0,.783-.348l3.277-7.366A1.557,1.557,0,0,0,201.232,229.534Z" transform="translate(-158.516 -164.636)" fill="#436fe3"/>
          <path id="Path_907" data-name="Path 907" d="M201.372,229.794a11.532,11.532,0,0,1-6.041.58c-3.374-.754-8.4-5.036-8.4-5.036.135-.309,10.411-1.5,10.411-1.5l4,5.674S201.362,229.649,201.372,229.794Z" transform="translate(-158.626 -164.635)" opacity="0.1"/>
          <path id="Path_908" data-name="Path 908" d="M187.63,225.59a47.646,47.646,0,0,0,13.765,4.263S193.6,227.262,187.63,225.59Z" transform="translate(-158.649 -164.693)" opacity="0.1"/>
          <path id="Path_909" data-name="Path 909" d="M168.207,228.924l11.339.822s1.788-1.2,2.755-.967,6.128,3.055,6.235,3.867-2.639,4.466-3.867,4.292-5.345-3.287-5.626-3.731l-13.533.251Z" transform="translate(-157.911 -164.799)" fill="#ffbda7"/>
          <path id="Path_910" data-name="Path 910" d="M169.955,199.248c1.363.435,2.446,4.669-1.121,11.861,0,0-4.833,10.913-3.867,12.74,1.092,2.214,10.836,4.021,10.836,4.021l-.773,6.244s-12.924,1.788-16.616-6.273S165.354,197.759,169.955,199.248Z" transform="translate(-157.649 -163.812)" fill="#29b6f6"/>
          <path id="Path_911" data-name="Path 911" d="M169.955,199.248c1.363.435,2.446,4.669-1.121,11.861,0,0-4.833,10.913-3.867,12.74,1.092,2.214,10.836,4.021,10.836,4.021l-.773,6.244s-12.924,1.788-16.616-6.273S165.354,197.759,169.955,199.248Z" transform="translate(-157.649 -163.812)" fill="#a8c0ff"/>
          <path id="Path_912" data-name="Path 912" d="M197.51,165.528s5.8-4.1,12.305,4.949a18.878,18.878,0,0,1,2.552,17.892" transform="translate(-158.979 -162.659)" fill="none" stroke="#263238" stroke-linecap="round" stroke-linejoin="round" stroke-width="0.5"/>
        </g>
      </g>
    </g>
  </g>
</svg>
