<svg xmlns="http://www.w3.org/2000/svg" xmlns:xlink="http://www.w3.org/1999/xlink" width="340.131" height="320.903" viewBox="0 0 340.131 320.903">
  <defs>
    <clipPath id="clip-path">
      <rect id="Rectangle_14" data-name="Rectangle 14" width="200.295" height="181.745" rx="8.79" fill="#29b6f6" stroke="#263238" stroke-linecap="round" stroke-linejoin="round" stroke-width="1"/>
    </clipPath>
    <clipPath id="clip-path-2">
      <path id="Path_733" data-name="Path 733" d="M297.364,94.614H143.534a174.84,174.84,0,0,0-6.754-31.4H304.148a167.77,167.77,0,0,0-6.784,31.4Z" transform="translate(-136.78 -63.21)" fill="#fff" stroke="#263238" stroke-linecap="round" stroke-linejoin="round" stroke-width="1"/>
    </clipPath>
    <clipPath id="clip-path-3">
      <rect id="Rectangle_22" data-name="Rectangle 22" width="6.176" height="17.274" fill="#757575" stroke="#263238" stroke-linecap="round" stroke-linejoin="round" stroke-width="1"/>
    </clipPath>
    <clipPath id="clip-path-4">
      <rect id="Rectangle_27" data-name="Rectangle 27" width="6.176" height="17.274" transform="translate(6.176 17.274) rotate(180)" fill="#757575" stroke="#263238" stroke-linecap="round" stroke-linejoin="round" stroke-width="1"/>
    </clipPath>
    <clipPath id="clip-path-5">
      <path id="Path_789" data-name="Path 789" d="M297.364,139.834H143.534a80.614,80.614,0,0,1-6.754-31.4H304.148C304.148,122.973,297.364,139.834,297.364,139.834Z" transform="translate(-136.78 -108.43)" fill="#fff" stroke="#263238" stroke-linecap="round" stroke-linejoin="round" stroke-width="1"/>
    </clipPath>
    <clipPath id="clip-path-6">
      <rect id="Rectangle_33" data-name="Rectangle 33" width="4.585" height="32.027" fill="#757575" stroke="#263238" stroke-linecap="round" stroke-linejoin="round" stroke-width="1"/>
    </clipPath>
    <clipPath id="clip-path-8">
      <path id="Path_795" data-name="Path 795" d="M318.23,151.362v52.385a3.332,3.332,0,0,1-3.339,3.332H111.819a3.332,3.332,0,0,1-3.339-3.332V151.362a3.347,3.347,0,0,1,3.339-3.339h93.574v3.339s-15.983,13.852-43.523,18.97c3.947,17.867,25.513,31.517,51.545,31.517S261,188.184,264.952,170.332c-27.584-5.118-43.56-18.97-43.56-18.97V148h93.529A3.339,3.339,0,0,1,318.23,151.362Z" transform="translate(-108.48 -148)" fill="#90f" stroke="#263238" stroke-linecap="round" stroke-linejoin="round" stroke-width="1"/>
    </clipPath>
  </defs>
  <g id="Group_56" data-name="Group 56" transform="translate(0.503)">
    <path id="Path_633" data-name="Path 633" d="M181.967,28.553C275.016,20.3,275.2,72.781,317.136,121.7s50.914,71.107,35.1,127.5-69.081,100.643-134.988,75.557-103.659-.991-145.231-23.262S14.99,236.277,45.441,185.625,67.2,38.781,181.967,28.553Z" transform="translate(-27.127 -27.69)" fill="#3f3f3f"/>
    <g id="Typewriter-bro" transform="translate(0 26.654)">
      <g id="freepik--Bubbles--inject-326" transform="translate(0 108.059)">
        <path id="Path_635" data-name="Path 635" d="M426.745,321.486l-.585,5.253L436.373,314.8a35.937,35.937,0,0,0,3.677.2" transform="translate(-126.141 -234.067)" fill="none" stroke="#ddd" stroke-linecap="round" stroke-linejoin="round" stroke-width="1"/>
        <path id="Path_636" data-name="Path 636" d="M409.044,275.43a15.323,15.323,0,0,0-2.454,6.754c-.968,8.727,5.876,16.981,16.216,20.8l-.525,4.69" transform="translate(-121.234 -224.24)" fill="none" stroke="#ddd" stroke-linecap="round" stroke-linejoin="round" stroke-width="1"/>
        <path id="Path_637" data-name="Path 637" d="M414.551,269.64a20.9,20.9,0,0,0-1.891,1.733" transform="translate(-122.772 -222.795)" fill="none" stroke="#ddd" stroke-linecap="round" stroke-linejoin="round" stroke-width="1"/>
        <path id="Path_638" data-name="Path 638" d="M455.2,267.651a33.707,33.707,0,0,0-15.676-5.733,33.318,33.318,0,0,0-17.454,2.566" transform="translate(-125.12 -220.806)" fill="none" stroke="#ddd" stroke-linecap="round" stroke-linejoin="round" stroke-width="1"/>
        <path id="Path_639" data-name="Path 639" d="M454.14,303.594c9.755-2.019,17.147-8.254,18.009-16.344.63-5.658-2.019-11.113-6.753-15.3" transform="translate(-133.125 -223.372)" fill="none" stroke="#ddd" stroke-linecap="round" stroke-linejoin="round" stroke-width="1"/>
        <path id="Path_640" data-name="Path 640" d="M422.08,277.03a6.371,6.371,0,0,0,4.787-1.02l3.647,2.829c-.255.083-.233-.458.038-.473s.473.233.66.428a3.738,3.738,0,0,0,3.519.675,15.19,15.19,0,0,1,3.662-.705,9.006,9.006,0,0,1,2.169.5,102.219,102.219,0,0,0,15.421,3.1" transform="translate(-125.123 -224.385)" fill="none" stroke="#ddd" stroke-linecap="round" stroke-linejoin="round" stroke-width="1"/>
        <path id="Path_641" data-name="Path 641" d="M416.34,284.313c.75-.045,4.93,0,5.53-.5l1.021,1.778,1.126-1.088c.2.75.39,1.5.578,2.206.848.2.75-1.433,1.5-1.921a1.02,1.02,0,0,1,1.328.4,2.949,2.949,0,0,1,.345,1.5l5.133.42,1,.082a2.92,2.92,0,0,1,1.5-1.163c-.188,1.186,1.306,1.861,2.491,2.1q8.757,1.786,17.6,3.084" transform="translate(-123.69 -226.332)" fill="none" stroke="#ddd" stroke-linecap="round" stroke-linejoin="round" stroke-width="1"/>
        <path id="Path_642" data-name="Path 642" d="M419.38,295.217c.473.33,1.051-.285,1.628-.36s1.05.36,1.561.623,1.351.15,1.381-.42c.12.75,1.05,1.021,1.808,1.126l19.705,2.769" transform="translate(-124.449 -229.087)" fill="none" stroke="#ddd" stroke-linecap="round" stroke-linejoin="round" stroke-width="1"/>
        <path id="Path_643" data-name="Path 643" d="M68,247.958l7.894,10.626-1.583-13.9a36.587,36.587,0,0,0,5.4-3.219c8.089-5.853,11.346-15.271,8.382-22.857-2.079-5.3-6.949-8.9-13.1-10.393" transform="translate(-36.742 -207.462)" fill="none" stroke="#ddd" stroke-linecap="round" stroke-linejoin="round" stroke-width="1"/>
        <path id="Path_644" data-name="Path 644" d="M26.424,238.84a15.27,15.27,0,0,0,.961,7.091c3.2,8.179,13.087,12.306,24.013,10.881" transform="translate(-26.344 -215.107)" fill="none" stroke="#ddd" stroke-linecap="round" stroke-linejoin="round" stroke-width="1"/>
        <path id="Path_645" data-name="Path 645" d="M28.153,231.25a21.65,21.65,0,0,0-.863,2.416" transform="translate(-26.58 -213.213)" fill="none" stroke="#ddd" stroke-linecap="round" stroke-linejoin="round" stroke-width="1"/>
        <path id="Path_646" data-name="Path 646" d="M63.391,207.451a33.67,33.67,0,0,0-16.554,2.191A33.3,33.3,0,0,0,32.58,220.027" transform="translate(-27.901 -207.213)" fill="none" stroke="#ddd" stroke-linecap="round" stroke-linejoin="round" stroke-width="1"/>
        <path id="Path_647" data-name="Path 647" d="M38.14,231.211a6.393,6.393,0,0,0,3.752-3.122l4.5.81c-.2.188-.42-.3-.188-.443s.525,0,.75.075a3.728,3.728,0,0,0,3.429-1.036,14.364,14.364,0,0,1,2.919-2.326,9.209,9.209,0,0,1,2.154-.57,101.613,101.613,0,0,0,15.1-4.42" transform="translate(-29.289 -210.45)" fill="none" stroke="#ddd" stroke-linecap="round" stroke-linejoin="round" stroke-width="1"/>
        <path id="Path_648" data-name="Path 648" d="M36.36,239.831c.668-.4,4.367-2.3,4.667-3l1.733,1.1c.165-.5.33-1,.488-1.5l1.538,1.688c.848-.21,0-1.613.405-2.379a1.013,1.013,0,0,1,1.358-.263,2.911,2.911,0,0,1,1,1.148l4.735-2.011.93-.39a2.949,2.949,0,0,1,.75-1.733c.39,1.148,2.026,1.043,3.182.705q8.592-2.476,17.026-5.448" transform="translate(-28.844 -212.339)" fill="none" stroke="#ddd" stroke-linecap="round" stroke-linejoin="round" stroke-width="1"/>
        <path id="Path_649" data-name="Path 649" d="M44.1,249.117c.578.075.8-.75,1.276-1.081s1.1-.158,1.673-.173,1.268-.488,1.028-1.005c.458.608,1.411.413,2.124.158l18.76-6.716" transform="translate(-30.776 -215.472)" fill="none" stroke="#ddd" stroke-linecap="round" stroke-linejoin="round" stroke-width="1"/>
      </g>
      <g id="freepik--Typewritter--inject-326" transform="translate(44.075 0)">
        <path id="Path_843" data-name="Path 843" d="M11.431,0H188.864a11.431,11.431,0,0,1,11.431,11.431V170.314a11.431,11.431,0,0,1-11.431,11.431H11.431A11.431,11.431,0,0,1,0,170.314V11.431A11.431,11.431,0,0,1,11.431,0Z" transform="translate(22.302 19.818)" fill="#98b4ff"/>
        <g id="Group_36" data-name="Group 36" transform="translate(22.302 19.818)" clip-path="url(#clip-path)">
          <path id="Path_650" data-name="Path 650" d="M315.095,222.29v75.79a6.4,6.4,0,0,1-6.393,6.4H121.2a6.4,6.4,0,0,1-6.4-6.4V283.072h.4v10.115a7.316,7.316,0,0,0,7.324,7.316H303.659a7.316,7.316,0,0,0,7.324-7.316V233.531a5.1,5.1,0,0,0-5.1-5.1H114.8V222.29Z" transform="translate(-114.8 -122.735)" opacity="0.2"/>
        </g>
        <rect id="Rectangle_15" data-name="Rectangle 15" width="200.295" height="181.745" rx="8.79" transform="translate(22.302 19.818)" fill="none" stroke="#263238" stroke-linecap="round" stroke-linejoin="round" stroke-width="1"/>
        <path id="Path_651" data-name="Path 651" d="M301.318,247.094v-8.682a3.2,3.2,0,0,0-3.212-3.212H139.113a3.212,3.212,0,0,0-3.212,3.212v8.682a3.212,3.212,0,0,1-3.212,3.212h0a3.219,3.219,0,0,0-3.219,3.219v17.131a14.9,14.9,0,0,0,14.9,14.9h0a2.394,2.394,0,0,1,2.394,2.394v5.133a7.144,7.144,0,0,0,7.144,7.144H283.316a7.144,7.144,0,0,0,7.144-7.144v-5.133a2.394,2.394,0,0,1,2.394-2.394h0a14.9,14.9,0,0,0,14.9-14.9V253.525a3.219,3.219,0,0,0-3.212-3.219h0A3.219,3.219,0,0,1,301.318,247.094Z" transform="translate(-96.16 -106.14)" fill="#263238"/>
        <path id="Path_652" data-name="Path 652" d="M151.567,241.75h-5.56a2.566,2.566,0,0,0-2.566,2.566v1.426c0,2.957,2.394,6.708,5.35,6.708s5.35-3.752,5.35-6.708v-1.426A2.574,2.574,0,0,0,151.567,241.75Z" transform="translate(-99.647 -107.775)" fill="#98b4ff" stroke="#263238" stroke-linecap="round" stroke-linejoin="round" stroke-width="1"/>
        <path id="Path_653" data-name="Path 653" d="M169.294,241.75h-5.56a2.574,2.574,0,0,0-2.574,2.566v1.426c0,2.957,2.394,6.708,5.35,6.708s5.35-3.752,5.35-6.708v-1.426a2.566,2.566,0,0,0-2.566-2.566Z" transform="translate(-104.07 -107.775)" fill="#98b4ff" stroke="#263238" stroke-linecap="round" stroke-linejoin="round" stroke-width="1"/>
        <path id="Path_654" data-name="Path 654" d="M187.1,241.75h-5.56a2.566,2.566,0,0,0-2.566,2.566v1.426c0,2.957,2.394,6.708,5.343,6.708s5.35-3.752,5.35-6.708v-1.426a2.566,2.566,0,0,0-2.566-2.566Z" transform="translate(-108.516 -107.775)" fill="#98b4ff" stroke="#263238" stroke-linecap="round" stroke-linejoin="round" stroke-width="1"/>
        <path id="Path_655" data-name="Path 655" d="M204.857,241.75H199.3a2.566,2.566,0,0,0-2.566,2.566v1.426c0,2.957,2.394,6.708,5.35,6.708s5.343-3.752,5.343-6.708v-1.426a2.566,2.566,0,0,0-2.566-2.566Z" transform="translate(-112.949 -107.775)" fill="#98b4ff" stroke="#263238" stroke-linecap="round" stroke-linejoin="round" stroke-width="1"/>
        <path id="Path_656" data-name="Path 656" d="M222.617,241.75h-5.56a2.566,2.566,0,0,0-2.566,2.566v1.426c0,2.957,2.394,6.708,5.35,6.708s5.35-3.752,5.35-6.708v-1.426A2.574,2.574,0,0,0,222.617,241.75Z" transform="translate(-117.382 -107.775)" fill="#98b4ff" stroke="#263238" stroke-linecap="round" stroke-linejoin="round" stroke-width="1"/>
        <path id="Path_657" data-name="Path 657" d="M240.384,241.75h-5.56a2.574,2.574,0,0,0-2.574,2.566v1.426c0,2.957,2.394,6.708,5.35,6.708s5.35-3.752,5.35-6.708v-1.426a2.566,2.566,0,0,0-2.566-2.566Z" transform="translate(-121.815 -107.775)" fill="#98b4ff" stroke="#263238" stroke-linecap="round" stroke-linejoin="round" stroke-width="1"/>
        <path id="Path_658" data-name="Path 658" d="M258.147,241.75h-5.56a2.566,2.566,0,0,0-2.566,2.566v1.426c0,2.957,2.394,6.708,5.343,6.708s5.35-3.752,5.35-6.708v-1.426A2.566,2.566,0,0,0,258.147,241.75Z" transform="translate(-126.25 -107.775)" fill="#98b4ff" stroke="#263238" stroke-linecap="round" stroke-linejoin="round" stroke-width="1"/>
        <path id="Path_659" data-name="Path 659" d="M275.907,241.75h-5.56a2.566,2.566,0,0,0-2.566,2.566v1.426c0,2.957,2.394,6.708,5.35,6.708s5.343-3.752,5.343-6.708v-1.426A2.566,2.566,0,0,0,275.907,241.75Z" transform="translate(-130.683 -107.775)" fill="#98b4ff" stroke="#263238" stroke-linecap="round" stroke-linejoin="round" stroke-width="1"/>
        <path id="Path_660" data-name="Path 660" d="M293.677,241.75h-5.53a2.566,2.566,0,0,0-2.566,2.566v1.426c0,2.957,2.394,6.709,5.35,6.709s5.35-3.752,5.35-6.709v-1.426a2.574,2.574,0,0,0-2.6-2.566Z" transform="translate(-135.126 -107.775)" fill="#9ca6ff" stroke="#263238" stroke-linecap="round" stroke-linejoin="round" stroke-width="1"/>
        <path id="Path_661" data-name="Path 661" d="M311.434,241.75h-5.56a2.574,2.574,0,0,0-2.574,2.566v1.426c0,2.957,2.394,6.708,5.35,6.708S314,248.7,314,245.742v-1.426A2.566,2.566,0,0,0,311.434,241.75Z" transform="translate(-139.549 -107.775)" fill="#98b4ff" stroke="#263238" stroke-linecap="round" stroke-linejoin="round" stroke-width="1"/>
        <path id="Path_662" data-name="Path 662" d="M329.2,241.75h-5.56a2.566,2.566,0,0,0-2.566,2.566v1.426c0,2.957,2.394,6.708,5.343,6.708s5.35-3.752,5.35-6.708v-1.426a2.566,2.566,0,0,0-2.566-2.566Z" transform="translate(-143.985 -107.775)" fill="#98b4ff" stroke="#263238" stroke-linecap="round" stroke-linejoin="round" stroke-width="1"/>
        <path id="Path_663" data-name="Path 663" d="M346.957,241.75H341.4a2.566,2.566,0,0,0-2.566,2.566v1.426c0,2.949,2.379,6.7,5.38,6.7s5.343-3.752,5.343-6.709v-1.426a2.566,2.566,0,0,0-2.6-2.559Z" transform="translate(-148.418 -107.775)" fill="#98b4ff" stroke="#263238" stroke-linecap="round" stroke-linejoin="round" stroke-width="1"/>
        <path id="Path_664" data-name="Path 664" d="M151.567,279.39h-5.56a2.566,2.566,0,0,0-2.566,2.566v1.426c0,2.956,2.394,6.708,5.35,6.708s5.35-3.752,5.35-6.708v-1.426a2.574,2.574,0,0,0-2.574-2.566Z" transform="translate(-99.647 -117.17)" fill="#98b4ff" stroke="#263238" stroke-linecap="round" stroke-linejoin="round" stroke-width="1"/>
        <path id="Path_665" data-name="Path 665" d="M169.294,279.39h-5.56a2.574,2.574,0,0,0-2.574,2.566v1.426c0,2.957,2.394,6.708,5.35,6.708s5.35-3.752,5.35-6.708v-1.426A2.566,2.566,0,0,0,169.294,279.39Z" transform="translate(-104.07 -117.17)" fill="#29b6f6" stroke="#263238" stroke-linecap="round" stroke-linejoin="round" stroke-width="1"/>
        <path id="Path_666" data-name="Path 666" d="M187.1,279.39h-5.56a2.566,2.566,0,0,0-2.566,2.566v1.426c0,2.957,2.394,6.708,5.343,6.708s5.35-3.752,5.35-6.708v-1.426A2.566,2.566,0,0,0,187.1,279.39Z" transform="translate(-108.516 -117.17)" fill="#98b4ff" stroke="#263238" stroke-linecap="round" stroke-linejoin="round" stroke-width="1"/>
        <path id="Path_667" data-name="Path 667" d="M204.857,279.39H199.3a2.566,2.566,0,0,0-2.566,2.566v1.426c0,2.957,2.394,6.708,5.35,6.708s5.343-3.752,5.343-6.708v-1.426A2.566,2.566,0,0,0,204.857,279.39Z" transform="translate(-112.949 -117.17)" fill="#29b6f6" stroke="#263238" stroke-linecap="round" stroke-linejoin="round" stroke-width="1"/>
        <path id="Path_668" data-name="Path 668" d="M222.617,279.39h-5.56a2.566,2.566,0,0,0-2.566,2.566v1.426c0,2.956,2.394,6.708,5.35,6.708s5.35-3.752,5.35-6.708v-1.426a2.574,2.574,0,0,0-2.574-2.566Z" transform="translate(-117.382 -117.17)" fill="#98b4ff" stroke="#263238" stroke-linecap="round" stroke-linejoin="round" stroke-width="1"/>
        <path id="Path_669" data-name="Path 669" d="M240.384,279.39h-5.56a2.574,2.574,0,0,0-2.574,2.566v1.426c0,2.957,2.394,6.708,5.35,6.708s5.35-3.752,5.35-6.708v-1.426A2.566,2.566,0,0,0,240.384,279.39Z" transform="translate(-121.815 -117.17)" fill="#98b4ff" stroke="#263238" stroke-linecap="round" stroke-linejoin="round" stroke-width="1"/>
        <path id="Path_670" data-name="Path 670" d="M258.147,279.39h-5.56a2.566,2.566,0,0,0-2.566,2.566v1.426c0,2.957,2.394,6.708,5.343,6.708s5.35-3.752,5.35-6.708v-1.426A2.566,2.566,0,0,0,258.147,279.39Z" transform="translate(-126.25 -117.17)" fill="#98b4ff" stroke="#263238" stroke-linecap="round" stroke-linejoin="round" stroke-width="1"/>
        <path id="Path_671" data-name="Path 671" d="M275.907,279.39h-5.56a2.566,2.566,0,0,0-2.566,2.566v1.426c0,2.957,2.394,6.708,5.35,6.708s5.343-3.752,5.343-6.708v-1.426A2.566,2.566,0,0,0,275.907,279.39Z" transform="translate(-130.683 -117.17)" fill="#98b4ff" stroke="#263238" stroke-linecap="round" stroke-linejoin="round" stroke-width="1"/>
        <path id="Path_672" data-name="Path 672" d="M293.677,279.39h-5.53a2.566,2.566,0,0,0-2.566,2.566v1.426c0,2.957,2.394,6.708,5.35,6.708s5.35-3.752,5.35-6.708v-1.426a2.574,2.574,0,0,0-2.6-2.566Z" transform="translate(-135.126 -117.17)" fill="#9ca6ff" stroke="#263238" stroke-linecap="round" stroke-linejoin="round" stroke-width="1"/>
        <path id="Path_673" data-name="Path 673" d="M311.434,279.39h-5.56a2.574,2.574,0,0,0-2.574,2.566v1.426c0,2.957,2.394,6.708,5.35,6.708s5.35-3.752,5.35-6.708v-1.426A2.566,2.566,0,0,0,311.434,279.39Z" transform="translate(-139.549 -117.17)" fill="#98b4ff" stroke="#263238" stroke-linecap="round" stroke-linejoin="round" stroke-width="1"/>
        <path id="Path_674" data-name="Path 674" d="M329.2,279.39h-5.56a2.566,2.566,0,0,0-2.566,2.566v1.426c0,2.957,2.394,6.708,5.343,6.708s5.35-3.752,5.35-6.708v-1.426A2.566,2.566,0,0,0,329.2,279.39Z" transform="translate(-143.985 -117.17)" fill="#29b6f6" stroke="#263238" stroke-linecap="round" stroke-linejoin="round" stroke-width="1"/>
        <path id="Path_675" data-name="Path 675" d="M346.957,279.39H341.4a2.566,2.566,0,0,0-2.566,2.566v1.426c0,2.957,2.394,6.708,5.35,6.708s5.343-3.752,5.343-6.708v-1.426A2.566,2.566,0,0,0,346.957,279.39Z" transform="translate(-148.418 -117.17)" fill="#29b6f6" stroke="#263238" stroke-linecap="round" stroke-linejoin="round" stroke-width="1"/>
        <path id="Path_676" data-name="Path 676" d="M142.692,261.18h-5.545a2.566,2.566,0,0,0-2.566,2.566v1.426c0,2.949,2.394,6.709,5.35,6.709s5.343-3.752,5.343-6.709v-1.426a2.566,2.566,0,0,0-2.581-2.566Z" transform="translate(-97.436 -112.625)" fill="#98b4ff" stroke="#263238" stroke-linecap="round" stroke-linejoin="round" stroke-width="1"/>
        <path id="Path_677" data-name="Path 677" d="M160.447,261.18h-5.56a2.566,2.566,0,0,0-2.566,2.566v1.426c0,2.949,2.394,6.708,5.35,6.708s5.35-3.752,5.35-6.708v-1.426a2.574,2.574,0,0,0-2.574-2.566Z" transform="translate(-101.864 -112.625)" fill="#98b4ff" stroke="#263238" stroke-linecap="round" stroke-linejoin="round" stroke-width="1"/>
        <path id="Path_678" data-name="Path 678" d="M178.214,261.18h-5.56a2.574,2.574,0,0,0-2.574,2.566v1.426c0,2.949,2.4,6.708,5.35,6.708s5.35-3.752,5.35-6.708v-1.426A2.566,2.566,0,0,0,178.214,261.18Z" transform="translate(-106.297 -112.625)" fill="#29b6f6" stroke="#263238" stroke-linecap="round" stroke-linejoin="round" stroke-width="1"/>
        <path id="Path_679" data-name="Path 679" d="M195.977,261.18h-5.56a2.566,2.566,0,0,0-2.566,2.566v1.426c0,2.949,2.394,6.708,5.343,6.708s5.35-3.752,5.35-6.708v-1.426A2.566,2.566,0,0,0,195.977,261.18Z" transform="translate(-110.732 -112.625)" fill="#98b4ff" stroke="#263238" stroke-linecap="round" stroke-linejoin="round" stroke-width="1"/>
        <path id="Path_680" data-name="Path 680" d="M213.729,261.18h-5.583a2.566,2.566,0,0,0-2.566,2.566v1.426c0,2.949,2.394,6.708,5.35,6.708s5.343-3.752,5.343-6.708v-1.426a2.566,2.566,0,0,0-2.544-2.566Z" transform="translate(-115.158 -112.625)" fill="#98b4ff" stroke="#263238" stroke-linecap="round" stroke-linejoin="round" stroke-width="1"/>
        <path id="Path_681" data-name="Path 681" d="M231.5,261.18h-5.56a2.566,2.566,0,0,0-2.566,2.566v1.426c0,2.949,2.394,6.708,5.35,6.708s5.35-3.752,5.35-6.708v-1.426A2.574,2.574,0,0,0,231.5,261.18Z" transform="translate(-119.598 -112.625)" fill="#98b4ff" stroke="#263238" stroke-linecap="round" stroke-linejoin="round" stroke-width="1"/>
        <path id="Path_682" data-name="Path 682" d="M249.294,261.18h-5.56a2.574,2.574,0,0,0-2.574,2.566v1.426c0,2.949,2.4,6.708,5.35,6.708s5.35-3.752,5.35-6.708v-1.426a2.566,2.566,0,0,0-2.566-2.566Z" transform="translate(-124.039 -112.625)" fill="#98b4ff" stroke="#263238" stroke-linecap="round" stroke-linejoin="round" stroke-width="1"/>
        <path id="Path_683" data-name="Path 683" d="M267.027,261.18h-5.56a2.566,2.566,0,0,0-2.566,2.566v1.426c0,2.949,2.394,6.708,5.343,6.708s5.35-3.752,5.35-6.708v-1.426A2.566,2.566,0,0,0,267.027,261.18Z" transform="translate(-128.467 -112.625)" fill="#98b4ff" stroke="#263238" stroke-linecap="round" stroke-linejoin="round" stroke-width="1"/>
        <path id="Path_684" data-name="Path 684" d="M284.787,261.18h-5.56a2.566,2.566,0,0,0-2.566,2.566v1.426c0,2.949,2.394,6.708,5.35,6.708s5.343-3.752,5.343-6.708v-1.426a2.566,2.566,0,0,0-2.566-2.566Z" transform="translate(-132.9 -112.625)" fill="#98b4ff" stroke="#263238" stroke-linecap="round" stroke-linejoin="round" stroke-width="1"/>
        <path id="Path_685" data-name="Path 685" d="M302.547,261.18h-5.56a2.566,2.566,0,0,0-2.566,2.566v1.426c0,2.949,2.394,6.708,5.35,6.708s5.35-3.752,5.35-6.708v-1.426A2.574,2.574,0,0,0,302.547,261.18Z" transform="translate(-137.333 -112.625)" fill="#98b4ff" stroke="#263238" stroke-linecap="round" stroke-linejoin="round" stroke-width="1"/>
        <path id="Path_686" data-name="Path 686" d="M320.294,261.18h-5.56a2.574,2.574,0,0,0-2.574,2.566v1.426c0,2.949,2.4,6.708,5.35,6.708s5.35-3.752,5.35-6.708v-1.426A2.566,2.566,0,0,0,320.294,261.18Z" transform="translate(-141.761 -112.625)" fill="#9ca6ff" stroke="#263238" stroke-linecap="round" stroke-linejoin="round" stroke-width="1"/>
        <path id="Path_687" data-name="Path 687" d="M338.089,261.18h-5.56A2.566,2.566,0,0,0,330,263.746v1.426c0,2.949,2.394,6.708,5.343,6.708s5.35-3.752,5.35-6.708v-1.426a2.566,2.566,0,0,0-2.6-2.566Z" transform="translate(-146.214 -112.625)" fill="#98b4ff" stroke="#263238" stroke-linecap="round" stroke-linejoin="round" stroke-width="1"/>
        <path id="Path_688" data-name="Path 688" d="M355.837,261.18h-5.56a2.566,2.566,0,0,0-2.566,2.566v1.426c0,2.949,2.394,6.708,5.35,6.708s5.343-3.752,5.343-6.708v-1.426A2.566,2.566,0,0,0,355.837,261.18Z" transform="translate(-150.634 -112.625)" fill="#98b4ff" stroke="#263238" stroke-linecap="round" stroke-linejoin="round" stroke-width="1"/>
        <rect id="Rectangle_16" data-name="Rectangle 16" width="106.631" height="12.126" rx="3.21" transform="translate(69.134 176.447)" fill="#98b4ff" stroke="#263238" stroke-linecap="round" stroke-linejoin="round" stroke-width="1"/>
        <path id="Path_689" data-name="Path 689" d="M331.567,299.3h-5.56a2.566,2.566,0,0,0-2.566,2.566v1.426c0,2.957,2.394,6.708,5.35,6.708s5.343-3.752,5.343-6.708v-1.426A2.566,2.566,0,0,0,331.567,299.3Z" transform="translate(-144.576 -122.14)" fill="#29b6f6" stroke="#263238" stroke-linecap="round" stroke-linejoin="round" stroke-width="1"/>
        <path id="Path_690" data-name="Path 690" d="M166.957,299.3H161.4a2.566,2.566,0,0,0-2.566,2.566v1.426c0,2.956,2.394,6.708,5.35,6.708s5.35-3.752,5.35-6.708v-1.426A2.574,2.574,0,0,0,166.957,299.3Z" transform="translate(-103.489 -122.14)" fill="#29b6f6" stroke="#263238" stroke-linecap="round" stroke-linejoin="round" stroke-width="1"/>
        <path id="Path_691" data-name="Path 691" d="M152.356,246.309a4.563,4.563,0,0,1,.8.075V244.8a1.118,1.118,0,0,0-1.118-1.111h-5.56a1.118,1.118,0,0,0-1.111,1.111v1.426c0,2.049,1.5,4.63,3.272,5.148C148.094,249.1,149.325,246.309,152.356,246.309Z" transform="translate(-100.129 -108.259)" opacity="0.2"/>
        <path id="Path_692" data-name="Path 692" d="M170.419,245.916a3.747,3.747,0,0,1,.51,0v-1.156a1.118,1.118,0,0,0-1.111-1.111h-5.56a1.118,1.118,0,0,0-1.118,1.111v1.426c0,2.251,1.778,5.065,3.752,5.253C165.984,249.113,167.177,245.916,170.419,245.916Z" transform="translate(-104.564 -108.249)" opacity="0.2"/>
        <path id="Path_693" data-name="Path 693" d="M188.577,245.729h.113v-.938a1.111,1.111,0,0,0-1.111-1.111h-5.56a1.118,1.118,0,0,0-1.118,1.111v1.426c0,2.289,1.891,5.253,3.895,5.253a1.944,1.944,0,0,0,.293,0C184.082,249.1,185.245,245.729,188.577,245.729Z" transform="translate(-108.997 -108.257)" opacity="0.2"/>
        <path id="Path_694" data-name="Path 694" d="M205.481,245.338a4.275,4.275,0,0,1,.931.075v-.653a1.111,1.111,0,0,0-1.111-1.111h-5.56a1.111,1.111,0,0,0-1.111,1.111v1.426c0,2.146,1.651,4.878,3.512,5.253C200.866,249.083,201.969,245.338,205.481,245.338Z" transform="translate(-113.423 -108.249)" opacity="0.2"/>
        <path id="Path_695" data-name="Path 695" d="M223.934,245.343h.285v-.563a1.118,1.118,0,0,0-1.118-1.111h-5.56a1.118,1.118,0,0,0-1.111,1.111v1.426c0,2.289,1.891,5.253,3.895,5.253a2.147,2.147,0,0,0,.308,0C219.319,249.1,220.422,245.343,223.934,245.343Z" transform="translate(-117.866 -108.254)" opacity="0.2"/>
        <path id="Path_696" data-name="Path 696" d="M241.807,245.413h.173v-.653a1.118,1.118,0,0,0-1.111-1.111h-5.56a1.118,1.118,0,0,0-1.118,1.111v1.426c0,2.289,1.891,5.253,3.895,5.253a2.044,2.044,0,0,0,.368,0C237.222,249.075,238.34,245.413,241.807,245.413Z" transform="translate(-122.299 -108.249)" opacity="0.2"/>
        <path id="Path_697" data-name="Path 697" d="M259.1,245.348a5.679,5.679,0,0,1,.638.045V244.8a1.111,1.111,0,0,0-1.111-1.111h-5.56a1.111,1.111,0,0,0-1.111,1.111v1.426c0,2.251,1.861,5.208,3.85,5.253C254.481,249.123,255.577,245.348,259.1,245.348Z" transform="translate(-126.734 -108.259)" opacity="0.2"/>
        <path id="Path_698" data-name="Path 698" d="M277.5,245.541v-.75a1.111,1.111,0,0,0-1.111-1.111h-5.56a1.111,1.111,0,0,0-1.11,1.111v1.426c0,2.289,1.883,5.253,3.894,5.253a2.042,2.042,0,0,0,.593-.1C273.127,249.06,274.23,245.646,277.5,245.541Z" transform="translate(-131.167 -108.257)" opacity="0.2"/>
        <path id="Path_699" data-name="Path 699" d="M294.184,245.251a4.21,4.21,0,0,1,1.1.143V244.8a1.118,1.118,0,0,0-1.118-1.111h-5.53a1.118,1.118,0,0,0-1.111,1.111v1.426c0,2.116,1.606,4.788,3.429,5.193C289.546,249.07,290.634,245.251,294.184,245.251Z" transform="translate(-135.61 -108.259)" opacity="0.2"/>
        <path id="Path_700" data-name="Path 700" d="M312.234,245.251a4.4,4.4,0,0,1,.8.075V244.8a1.118,1.118,0,0,0-1.111-1.111h-5.56a1.118,1.118,0,0,0-1.118,1.111v1.426c0,2.251,1.8,5.11,3.752,5.253C307.581,249.123,308.662,245.251,312.234,245.251Z" transform="translate(-140.033 -108.259)" opacity="0.2"/>
        <path id="Path_701" data-name="Path 701" d="M330.206,245.634a4.872,4.872,0,0,1,.585.045V244.8a1.111,1.111,0,0,0-1.111-1.111h-5.56a1.111,1.111,0,0,0-1.111,1.111v1.426c0,2.251,1.8,5.1,3.752,5.253C325.674,249.108,326.822,245.634,330.206,245.634Z" transform="translate(-144.469 -108.259)" opacity="0.2"/>
        <path id="Path_702" data-name="Path 702" d="M348.552,245.461v-.66a1.11,1.11,0,0,0-1.111-1.111h-5.56a1.111,1.111,0,0,0-1.111,1.111v1.426c0,2.289,1.883,5.253,3.895,5.253a2.2,2.2,0,0,0,.84-.18C344.439,249.033,345.445,245.716,348.552,245.461Z" transform="translate(-148.902 -108.259)" opacity="0.2"/>
        <path id="Path_703" data-name="Path 703" d="M152.741,282.578a3.968,3.968,0,0,1,.428,0v-.158a1.118,1.118,0,0,0-1.118-1.111h-5.56a1.118,1.118,0,0,0-1.111,1.111v1.426c0,2.289,1.891,5.253,3.895,5.253a2.484,2.484,0,0,0,.413-.045C148.006,286.773,149.027,282.578,152.741,282.578Z" transform="translate(-100.131 -117.649)" opacity="0.2"/>
        <path id="Path_704" data-name="Path 704" d="M170.231,282.586a4.235,4.235,0,0,1,.7.06v-.2a1.118,1.118,0,0,0-1.111-1.111h-5.56a1.118,1.118,0,0,0-1.118,1.111v1.426c0,2.289,1.891,5.253,3.895,5.253h.165C165.481,286.818,166.494,282.586,170.231,282.586Z" transform="translate(-104.564 -117.657)" opacity="0.2"/>
        <path id="Path_705" data-name="Path 705" d="M187.9,282.771a4.306,4.306,0,0,1,.75.068v-.4a1.111,1.111,0,0,0-1.111-1.111h-5.56a1.118,1.118,0,0,0-1.118,1.111v1.426c0,2.251,1.861,5.2,3.85,5.253C183.216,286.785,184.259,282.771,187.9,282.771Z" transform="translate(-108.987 -117.654)" opacity="0.2"/>
        <path id="Path_706" data-name="Path 706" d="M205.874,282.868a4.666,4.666,0,0,1,.578.038v-.465a1.111,1.111,0,0,0-1.111-1.111h-5.56a1.111,1.111,0,0,0-1.111,1.111v1.426c0,2.289,1.884,5.253,3.895,5.253h.09C201.214,286.77,202.287,282.868,205.874,282.868Z" transform="translate(-113.433 -117.654)" opacity="0.2"/>
        <path id="Path_707" data-name="Path 707" d="M223.364,282.586a4.5,4.5,0,0,1,.855.083v-.218a1.118,1.118,0,0,0-1.118-1.111h-5.56a1.118,1.118,0,0,0-1.111,1.111v1.426c0,2.289,1.891,5.253,3.895,5.253h0C218.614,286.833,219.619,282.586,223.364,282.586Z" transform="translate(-117.866 -117.657)" opacity="0.2"/>
        <path id="Path_708" data-name="Path 708" d="M241.326,282.673a4.5,4.5,0,0,1,.653.053v-.285a1.118,1.118,0,0,0-1.111-1.111h-5.56a1.118,1.118,0,0,0-1.118,1.111v1.426c0,2.289,1.891,5.253,3.895,5.253h.143C236.606,286.793,237.642,282.673,241.326,282.673Z" transform="translate(-122.299 -117.654)" opacity="0.2"/>
        <path id="Path_709" data-name="Path 709" d="M259.584,282.956h.158v-.525a1.11,1.11,0,0,0-1.111-1.111h-5.56a1.111,1.111,0,0,0-1.111,1.111v1.426c0,2.289,1.883,5.253,3.887,5.253a2.093,2.093,0,0,0,.435-.052C254.992,286.715,256.065,282.956,259.584,282.956Z" transform="translate(-126.734 -117.652)" opacity="0.2"/>
        <path id="Path_710" data-name="Path 710" d="M277.434,282.673h.045v-.233a1.111,1.111,0,0,0-1.111-1.111h-5.538a1.111,1.111,0,0,0-1.11,1.111v1.426c0,2.289,1.883,5.253,3.894,5.253a2.138,2.138,0,0,0,.675-.12C272.767,286.673,273.825,282.673,277.434,282.673Z" transform="translate(-131.167 -117.654)" opacity="0.2"/>
        <path id="Path_711" data-name="Path 711" d="M294.851,282.383h.42a1.118,1.118,0,0,0-1.111-1.073h-5.53a1.118,1.118,0,0,0-1.111,1.111v1.426c0,2.289,1.891,5.253,3.895,5.253a2.253,2.253,0,0,0,.54-.083C290.071,286.78,291.047,282.383,294.851,282.383Z" transform="translate(-135.61 -117.649)" opacity="0.2"/>
        <path id="Path_712" data-name="Path 712" d="M313,282.586h0v-.135a1.118,1.118,0,0,0-1.111-1.111h-5.56a1.118,1.118,0,0,0-1.118,1.111v1.426c0,2.289,1.891,5.253,3.895,5.253a2.367,2.367,0,0,0,.75-.135C308.287,286.668,309.322,282.586,313,282.586Z" transform="translate(-140.026 -117.657)" opacity="0.2"/>
        <path id="Path_713" data-name="Path 713" d="M330.511,282.581h.3v-.15a1.111,1.111,0,0,0-1.111-1.111h-5.56a1.111,1.111,0,0,0-1.111,1.111v1.426c0,2.289,1.884,5.253,3.887,5.253a2.063,2.063,0,0,0,.525-.075C325.769,286.738,326.8,282.581,330.511,282.581Z" transform="translate(-144.474 -117.652)" opacity="0.2"/>
        <path id="Path_714" data-name="Path 714" d="M348.071,283.141h.48v-.75a1.111,1.111,0,0,0-1.111-1.111h-5.56a1.111,1.111,0,0,0-1.111,1.111v1.426c0,2.289,1.883,5.253,3.895,5.253h0C343.5,286.743,344.627,283.141,348.071,283.141Z" transform="translate(-148.902 -117.642)" opacity="0.2"/>
        <path id="Path_715" data-name="Path 715" d="M144.2,264.6h.1v-.368a1.118,1.118,0,0,0-1.118-1.111h-5.545a1.111,1.111,0,0,0-1.111,1.111v1.426c0,2.289,1.883,5.253,3.895,5.253a2.2,2.2,0,0,0,.57-.09C139.544,268.478,140.632,264.6,144.2,264.6Z" transform="translate(-97.92 -113.109)" opacity="0.2"/>
        <path id="Path_716" data-name="Path 716" d="M161.674,264.593h.375v-.383a1.118,1.118,0,0,0-1.118-1.111h-5.56a1.118,1.118,0,0,0-1.111,1.111v1.426c0,2.289,1.891,5.253,3.895,5.253a2.453,2.453,0,0,0,.33,0C157.006,268.54,158.072,264.593,161.674,264.593Z" transform="translate(-102.348 -113.104)" opacity="0.2"/>
        <path id="Path_717" data-name="Path 717" d="M179.737,264.6h.068v-.368a1.118,1.118,0,0,0-1.111-1.111h-5.56A1.118,1.118,0,0,0,172,264.231v1.426c0,2.289,1.891,5.253,3.895,5.253a2,2,0,0,0,.593-.1C175.084,268.478,176.157,264.6,179.737,264.6Z" transform="translate(-106.776 -113.109)" opacity="0.2"/>
        <path id="Path_718" data-name="Path 718" d="M197.226,264.536h.345v-.285a1.111,1.111,0,0,0-1.111-1.111H190.9a1.111,1.111,0,0,0-1.111,1.111v1.426c0,2.289,1.883,5.253,3.887,5.253a2.307,2.307,0,0,0,.405-.045C192.529,268.55,193.579,264.536,197.226,264.536Z" transform="translate(-111.216 -113.114)" opacity="0.2"/>
        <path id="Path_719" data-name="Path 719" d="M214.634,264.6a4.28,4.28,0,0,1,.713.06v-.428a1.111,1.111,0,0,0-1.111-1.111h-5.605a1.111,1.111,0,0,0-1.111,1.111v1.426c0,2.289,1.883,5.253,3.895,5.253h0C209.929,268.575,210.987,264.6,214.634,264.6Z" transform="translate(-115.642 -113.109)" opacity="0.2"/>
        <path id="Path_720" data-name="Path 720" d="M232.491,264.118a5.167,5.167,0,0,1,.6.038,1.118,1.118,0,0,0-1.111-1.036h-5.56a1.118,1.118,0,0,0-1.111,1.111v1.426c0,2.289,1.891,5.253,3.895,5.253a2.077,2.077,0,0,0,.428-.052C227.681,268.628,228.634,264.118,232.491,264.118Z" transform="translate(-120.082 -113.109)" opacity="0.2"/>
        <path id="Path_721" data-name="Path 721" d="M250.356,264.678h.5v-.488a1.118,1.118,0,0,0-1.111-1.111h-5.56a1.118,1.118,0,0,0-1.118,1.111v1.426c0,2.289,1.891,5.253,3.895,5.253h.15C245.711,268.543,246.769,264.678,250.356,264.678Z" transform="translate(-124.515 -113.099)" opacity="0.2"/>
        <path id="Path_722" data-name="Path 722" d="M268.622,264.231a1.111,1.111,0,0,0-1.111-1.111h-5.56a1.111,1.111,0,0,0-1.111,1.111v1.426c0,2.289,1.884,5.253,3.887,5.253a2.438,2.438,0,0,0,1.141-.315C264.352,268.358,265.267,264.531,268.622,264.231Z" transform="translate(-128.951 -113.109)" opacity="0.2"/>
        <path id="Path_723" data-name="Path 723" d="M286.412,264.536v-.285a1.111,1.111,0,0,0-1.111-1.111h-5.56a1.111,1.111,0,0,0-1.111,1.111v1.426c0,2.289,1.883,5.253,3.895,5.253a2.252,2.252,0,0,0,.93-.218C282.082,268.423,283.065,264.723,286.412,264.536Z" transform="translate(-133.391 -113.114)" opacity="0.2"/>
        <path id="Path_724" data-name="Path 724" d="M303.684,264.3h.465v-.1a1.118,1.118,0,0,0-1.118-1.111h-5.56a1.118,1.118,0,0,0-1.111,1.111v1.426c0,2.289,1.891,5.253,3.895,5.253a1.952,1.952,0,0,0,.42-.053C298.934,268.568,299.932,264.3,303.684,264.3Z" transform="translate(-137.817 -113.101)" opacity="0.2"/>
        <path id="Path_725" data-name="Path 725" d="M321.909,264.793v-.563a1.118,1.118,0,0,0-1.111-1.111h-5.56a1.118,1.118,0,0,0-1.118,1.111v1.426c0,2.289,1.891,5.253,3.895,5.253a2.249,2.249,0,0,0,.668-.113C317.459,268.47,318.532,264.883,321.909,264.793Z" transform="translate(-142.25 -113.109)" opacity="0.2"/>
        <path id="Path_726" data-name="Path 726" d="M339.041,264.4a5.513,5.513,0,0,1,.63.045v-.218a1.111,1.111,0,0,0-1.111-1.111H333a1.111,1.111,0,0,0-1.111,1.111v1.426c0,2.289,1.883,5.253,3.887,5.253a1.8,1.8,0,0,0,.21,0C334.306,268.59,335.327,264.4,339.041,264.4Z" transform="translate(-146.685 -113.109)" opacity="0.2"/>
        <path id="Path_727" data-name="Path 727" d="M356.914,264.981a3.837,3.837,0,0,1,.518,0v-.75a1.111,1.111,0,0,0-1.111-1.111h-5.56a1.111,1.111,0,0,0-1.111,1.111v1.426c0,2.251,1.868,5.253,3.872,5.253C352.351,268.545,353.485,264.981,356.914,264.981Z" transform="translate(-151.118 -113.109)" opacity="0.2"/>
        <rect id="Rectangle_17" data-name="Rectangle 17" width="9.215" height="103.719" rx="1.21" transform="translate(174.309 177.903) rotate(90)" opacity="0.2"/>
        <path id="Path_728" data-name="Path 728" d="M333.162,303.091v-.75a1.111,1.111,0,0,0-1.111-1.111h-5.56a1.111,1.111,0,0,0-1.111,1.111v1.426c0,2.289,1.884,5.253,3.895,5.253a2.253,2.253,0,0,0,.5-.068C328.659,306.61,329.792,303.114,333.162,303.091Z" transform="translate(-145.06 -122.621)" opacity="0.2"/>
        <path id="Path_729" data-name="Path 729" d="M167.906,302.613a4.5,4.5,0,0,1,.653.053v-.315a1.118,1.118,0,0,0-1.118-1.111h-5.56a1.118,1.118,0,0,0-1.111,1.111v1.426c0,2.289,1.891,5.253,3.895,5.253h.128C163.194,306.7,164.244,302.613,167.906,302.613Z" transform="translate(-103.973 -122.624)" opacity="0.2"/>
        <path id="Path_730" data-name="Path 730" d="M124.115,94.5H308.051a4.765,4.765,0,0,1,4.765,4.765v42.022H119.35V99.265A4.765,4.765,0,0,1,124.115,94.5Z" transform="translate(-93.634 -71.02)" opacity="0.2"/>
        <path id="Path_731" data-name="Path 731" d="M297.364,94.614H143.534a174.84,174.84,0,0,0-6.754-31.4H304.148a167.77,167.77,0,0,0-6.784,31.4Z" transform="translate(-97.985 -63.21)" fill="#fff"/>
        <g id="Group_37" data-name="Group 37" transform="translate(38.795)" clip-path="url(#clip-path-2)">
          <path id="Path_732" data-name="Path 732" d="M300.62,91.57c-1.118,6.108-1.5,10.123-1.5,10.123H145.288s-.39-3.94-1.538-10.123Z" transform="translate(-138.52 -70.289)" opacity="0.2"/>
        </g>
        <path id="Path_734" data-name="Path 734" d="M297.364,94.614H143.534a174.84,174.84,0,0,0-6.754-31.4H304.148a167.77,167.77,0,0,0-6.784,31.4Z" transform="translate(-97.985 -63.21)" fill="none" stroke="#263238" stroke-linecap="round" stroke-linejoin="round" stroke-width="1"/>
        <rect id="Rectangle_18" data-name="Rectangle 18" width="150.912" height="62.088" transform="translate(46.374 57.848)" fill="#263238"/>
        <g id="Group_38" data-name="Group 38" transform="translate(72.308 67.595)" opacity="0.4">
          <path id="Path_735" data-name="Path 735" d="M242.42,200.257l.8.038q1.5-23.225,3-46.524Q244.3,177.077,242.42,200.257Z" transform="translate(-196.661 -153.41)" fill="#fff"/>
          <path id="Path_736" data-name="Path 736" d="M239,200.064l.8.068q2.6-23.075,5.2-46.352Q242,177.072,239,200.064Z" transform="translate(-195.807 -153.412)" fill="#fff"/>
          <path id="Path_737" data-name="Path 737" d="M235.67,199.777a7.163,7.163,0,0,1,.8.09q3.692-22.827,7.429-46.1Q239.767,177.062,235.67,199.777Z" transform="translate(-194.976 -153.41)" fill="#fff"/>
          <path id="Path_738" data-name="Path 738" d="M232.3,199.386l.8.128q4.788-22.512,9.65-45.774Q237.5,177.025,232.3,199.386Z" transform="translate(-194.135 -153.402)" fill="#fff"/>
          <path id="Path_739" data-name="Path 739" d="M228.94,198.919l.81.165Q235.6,177,241.614,153.76,235.221,177.007,228.94,198.919Z" transform="translate(-193.296 -153.407)" fill="#fff"/>
          <path id="Path_740" data-name="Path 740" d="M225.6,198.346l.81.2c4.6-14.393,9.327-29.318,14.07-44.8C235.46,169.231,230.455,184.088,225.6,198.346Z" transform="translate(-192.463 -153.405)" fill="#fff"/>
          <path id="Path_741" data-name="Path 741" d="M222.27,197.666l.818.24c5.253-13.987,10.753-28.71,16.261-44.176C233.563,169.2,227.8,183.836,222.27,197.666Z" transform="translate(-191.631 -153.4)" fill="#fff"/>
          <path id="Path_742" data-name="Path 742" d="M219,196.9l.818.263c5.936-13.507,12.164-28,18.437-43.44C231.674,169.163,225.161,183.548,219,196.9Z" transform="translate(-190.815 -153.397)" fill="#fff"/>
          <path id="Path_743" data-name="Path 743" d="M215.68,196.015l.825.3c6.573-13,13.56-27.194,20.6-42.615C229.772,169.121,222.494,183.191,215.68,196.015Z" transform="translate(-189.987 -153.392)" fill="#fff"/>
          <path id="Path_744" data-name="Path 744" d="M212.44,195.019l.825.345c7.174-12.411,14.918-26.264,22.729-41.684C227.868,169.071,219.846,182.848,212.44,195.019Z" transform="translate(-189.178 -153.387)" fill="#fff"/>
          <path id="Path_745" data-name="Path 745" d="M209.23,193.9l.825.4c7.744-11.744,16.246-25.288,24.838-40.641C225.994,169.013,217.2,182.43,209.23,193.9Z" transform="translate(-188.377 -153.382)" fill="#fff"/>
          <path id="Path_746" data-name="Path 746" d="M206.07,192.665l.825.45c8.254-11.008,17.537-24.17,26.909-39.486a451.586,451.586,0,0,1-27.734,39.035Z" transform="translate(-187.588 -153.375)" fill="#fff"/>
          <path id="Path_747" data-name="Path 747" d="M203,191.31c.27.173.555.33.833.5a392.3,392.3,0,0,0,28.935-38.195A356.914,356.914,0,0,1,203,191.31Z" transform="translate(-186.822 -153.37)" fill="#fff"/>
          <path id="Path_748" data-name="Path 748" d="M199.93,189.817l.818.563a311.987,311.987,0,0,0,30.924-36.769A285.344,285.344,0,0,1,199.93,189.817Z" transform="translate(-186.055 -153.37)" fill="#fff"/>
          <path id="Path_749" data-name="Path 749" d="M230.64,153.55A232.021,232.021,0,0,1,197,188.173l.8.623A252.63,252.63,0,0,0,230.64,153.55Z" transform="translate(-185.324 -153.355)" fill="#fff"/>
          <path id="Path_750" data-name="Path 750" d="M229.629,153.52C216.767,168.528,204.2,179.5,194.15,186.4l.8.683C204.858,179.746,217.1,168.565,229.629,153.52Z" transform="translate(-184.613 -153.347)" fill="#fff"/>
          <path id="Path_751" data-name="Path 751" d="M228.63,153.49c-13.635,14.9-26.917,25.221-37.189,30.984.248.255.5.51.75.75C202.366,179,215.355,168.423,228.63,153.49Z" transform="translate(-183.936 -153.34)" fill="#fff"/>
          <path id="Path_752" data-name="Path 752" d="M227.728,153.45c-14.378,14.745-28.35,24.388-38.788,28.965l.75.818C200.023,178.153,213.68,168.24,227.728,153.45Z" transform="translate(-183.312 -153.33)" fill="#fff"/>
          <path id="Path_753" data-name="Path 753" d="M186.64,180.217c.218.3.443.6.668.893,10.468-3.865,24.763-13.087,39.553-27.69C211.771,167.955,197.168,176.877,186.64,180.217Z" transform="translate(-182.738 -153.322)" fill="#fff"/>
          <path id="Path_754" data-name="Path 754" d="M184.6,177.918c.2.315.4.63.6.946,10.505-2.641,25.423-11.128,40.851-25.513C210.324,167.653,195.143,175.824,184.6,177.918Z" transform="translate(-182.229 -153.305)" fill="#fff"/>
          <path id="Path_755" data-name="Path 755" d="M182.86,175.6c.165.33.338.653.51.983,10.505-1.426,25.934-9.162,41.947-23.225C209.041,167.287,193.366,174.7,182.86,175.6Z" transform="translate(-181.794 -153.307)" fill="#fff"/>
          <path id="Path_756" data-name="Path 756" d="M181.44,173.213c.135.33.278.668.42,1,10.445-.255,26.264-7.226,42.772-20.921C207.936,166.842,191.87,173.476,181.44,173.213Z" transform="translate(-181.44 -153.29)" fill="#fff"/>
          <path id="Path_757" data-name="Path 757" d="M245.81,200.364h.788q.36-23.262.75-46.584Q246.56,177.087,245.81,200.364Z" transform="translate(-197.507 -153.412)" fill="#fff"/>
          <path id="Path_758" data-name="Path 758" d="M248.955,200.384h.8q-.75-23.262-1.5-46.584Z" transform="translate(-198.116 -153.417)" fill="#fff"/>
          <path id="Path_759" data-name="Path 759" d="M251.587,200.314h.8q-1.876-23.187-3.752-46.524Q250.108,177.1,251.587,200.314Z" transform="translate(-198.211 -153.415)" fill="#fff"/>
          <path id="Path_760" data-name="Path 760" d="M254.268,200.154l.8-.06q-3-23.015-6-46.314Q251.641,177.08,254.268,200.154Z" transform="translate(-198.318 -153.412)" fill="#fff"/>
          <path id="Path_761" data-name="Path 761" d="M256.849,199.912l.8-.1q-4.082-22.744-8.254-46.044Q253.149,177.07,256.849,199.912Z" transform="translate(-198.401 -153.41)" fill="#fff"/>
          <path id="Path_762" data-name="Path 762" d="M259.485,199.574l.8-.12q-5.178-22.4-10.468-45.684Q254.683,177.062,259.485,199.574Z" transform="translate(-198.508 -153.41)" fill="#fff"/>
          <path id="Path_763" data-name="Path 763" d="M262.106,199.144l.8-.15q-6.251-21.956-12.689-45.234Q256.208,177.037,262.106,199.144Z" transform="translate(-198.608 -153.407)" fill="#fff"/>
          <path id="Path_764" data-name="Path 764" d="M264.712,198.616l.818-.188c-4.863-14.257-9.875-29.168-14.91-44.678Q257.756,177.02,264.712,198.616Z" transform="translate(-198.708 -153.405)" fill="#fff"/>
          <path id="Path_765" data-name="Path 765" d="M267.319,198l.81-.233c-5.538-13.86-11.308-28.515-17.109-44.033C256.535,169.233,262.028,183.948,267.319,198Z" transform="translate(-198.808 -153.4)" fill="#fff"/>
          <path id="Path_766" data-name="Path 766" d="M269.9,197.265l.825-.27c-6.206-13.372-12.757-27.765-19.308-43.275C257.708,169.2,263.952,183.706,269.9,197.265Z" transform="translate(-198.908 -153.397)" fill="#fff"/>
          <path id="Path_767" data-name="Path 767" d="M272.471,196.427l.825-.308c-6.829-12.824-14.122-26.954-21.476-42.42C258.881,169.166,265.882,183.393,272.471,196.427Z" transform="translate(-199.007 -153.392)" fill="#fff"/>
          <path id="Path_768" data-name="Path 768" d="M275.017,195.484c.278-.12.563-.225.833-.345-7.429-12.2-15.488-26.016-23.63-41.459C260.062,169.123,267.813,183.043,275.017,195.484Z" transform="translate(-199.107 -153.387)" fill="#fff"/>
          <path id="Path_769" data-name="Path 769" d="M277.541,194.439l.833-.4c-7.992-11.5-16.824-24.958-25.753-40.371C261.242,169.068,269.767,182.658,277.541,194.439Z" transform="translate(-199.207 -153.385)" fill="#fff"/>
          <path id="Path_770" data-name="Path 770" d="M280.014,193.251c.278-.143.555-.3.825-.45A453.717,453.717,0,0,1,253,153.63C262.425,169.013,271.76,182.213,280.014,193.251Z" transform="translate(-199.302 -153.375)" fill="#fff"/>
          <path id="Path_771" data-name="Path 771" d="M282.475,191.948l.84-.5a357.818,357.818,0,0,1-29.9-37.842,392.052,392.052,0,0,0,29.055,38.338Z" transform="translate(-199.407 -153.37)" fill="#fff"/>
          <path id="Path_772" data-name="Path 772" d="M253.82,153.58a312.338,312.338,0,0,0,31.059,36.934l.833-.563A285.7,285.7,0,0,1,253.82,153.58Z" transform="translate(-199.507 -153.362)" fill="#fff"/>
          <path id="Path_773" data-name="Path 773" d="M254.22,153.55a251.783,251.783,0,0,0,33.017,35.389c.278-.2.54-.413.81-.623A231.391,231.391,0,0,1,254.22,153.55Z" transform="translate(-199.606 -153.355)" fill="#fff"/>
          <path id="Path_774" data-name="Path 774" d="M254.62,153.52c12.607,15.135,24.928,26.361,34.871,33.7.27-.225.548-.45.81-.683C280.216,179.649,267.564,168.648,254.62,153.52Z" transform="translate(-199.706 -153.347)" fill="#fff"/>
          <path id="Path_775" data-name="Path 775" d="M255,153.49c13.395,15.008,26.451,25.656,36.657,31.877.263-.248.51-.51.75-.75C282.127,178.861,268.747,168.5,255,153.49Z" transform="translate(-199.801 -153.34)" fill="#fff"/>
          <path id="Path_776" data-name="Path 776" d="M255.42,153.45c14.16,14.9,27.922,24.861,38.27,29.9l.75-.825C284,178,269.918,168.323,255.42,153.45Z" transform="translate(-199.906 -153.33)" fill="#fff"/>
          <path id="Path_777" data-name="Path 777" d="M295.636,181.215c.233-.3.45-.6.675-.908-10.543-3.264-25.281-12.216-40.521-26.887C270.708,168.15,285.145,177.4,295.636,181.215Z" transform="translate(-199.998 -153.322)" fill="#fff"/>
          <path id="Path_778" data-name="Path 778" d="M297.369,178.946l.615-.961C287.426,176,272.1,167.8,256.21,153.38,271.811,167.885,286.819,176.395,297.369,178.946Z" transform="translate(-200.103 -153.312)" fill="#fff"/>
          <path id="Path_779" data-name="Path 779" d="M298.947,176.6c.18-.33.353-.66.525-1-10.505-.75-26.346-8.172-42.772-22.264C272.818,167.552,288.442,175.3,298.947,176.6Z" transform="translate(-200.225 -153.302)" fill="#fff"/>
          <path id="Path_780" data-name="Path 780" d="M257,153.29c16.689,13.852,32.717,20.823,43.148,20.928.15-.338.293-.675.435-1.013C290.167,173.633,273.929,166.992,257,153.29Z" transform="translate(-200.3 -153.29)" fill="#fff"/>
        </g>
        <path id="Path_781" data-name="Path 781" d="M207.472,155.263c-2.844,7.294.233,28.515,20.756,28.515s27.975-14.91,27.142-24.125l27.4-4.412s8.4,23.2-9.432,39.433-79.632,15.18-92.7,2.844-5.816-36.709-5.816-36.709Z" transform="translate(-106.98 -86.181)" opacity="0.2"/>
        <path id="Path_782" data-name="Path 782" d="M379.24,108.485v-5.118a.885.885,0,0,1,.623-.848l3.752-1.171V96.231a2.311,2.311,0,0,1,2.311-2.311h4.5a.855.855,0,0,1,.871.81v1.651a.856.856,0,0,1-.848.855h-5.725v5.005a.9.9,0,0,1-.428.75l-3.2,1.936v3.564Z" transform="translate(-158.504 -70.875)" fill="#999" stroke="#263238" stroke-linecap="round" stroke-linejoin="round" stroke-width="1"/>
        <rect id="Rectangle_19" data-name="Rectangle 19" width="4.938" height="14.768" transform="translate(220.736 37.61)" fill="#263238"/>
        <rect id="Rectangle_20" data-name="Rectangle 20" width="6.176" height="17.274" transform="translate(225.673 36.357)" fill="#757575"/>
        <g id="Group_39" data-name="Group 39" transform="translate(225.673 36.357)" clip-path="url(#clip-path-3)">
          <rect id="Rectangle_21" data-name="Rectangle 21" width="6.161" height="6.754" transform="translate(0 10.521)" opacity="0.2"/>
        </g>
        <rect id="Rectangle_23" data-name="Rectangle 23" width="6.176" height="17.274" transform="translate(225.673 36.357)" fill="none" stroke="#263238" stroke-linecap="round" stroke-linejoin="round" stroke-width="1"/>
        <rect id="Rectangle_24" data-name="Rectangle 24" width="4.938" height="14.768" transform="translate(24.163 52.37) rotate(180)" fill="#263238"/>
        <rect id="Rectangle_25" data-name="Rectangle 25" width="6.176" height="17.274" transform="translate(19.225 53.623) rotate(180)" fill="#757575"/>
        <g id="Group_40" data-name="Group 40" transform="translate(13.049 36.349)" clip-path="url(#clip-path-4)">
          <rect id="Rectangle_26" data-name="Rectangle 26" width="6.176" height="6.588" transform="translate(0.008 10.528)" opacity="0.2"/>
        </g>
        <rect id="Rectangle_28" data-name="Rectangle 28" width="6.176" height="17.274" transform="translate(19.225 53.623) rotate(180)" fill="none" stroke="#263238" stroke-linecap="round" stroke-linejoin="round" stroke-width="1"/>
        <path id="Path_783" data-name="Path 783" d="M108.5,120.923h0a6,6,0,0,0-1.771-6.754l-3.632-3a2.2,2.2,0,0,0-3.2.39L85.5,131.421a2.154,2.154,0,0,0-.42,1.283v21.334a2.161,2.161,0,0,0,2.191,2.161h0a2.161,2.161,0,0,0,2.161-2.161V136.711a2.071,2.071,0,0,1,.383-1.193l10.768-15.008a1.171,1.171,0,0,1,1.711-.21l1.981,1.681a2.717,2.717,0,0,0,1.756.645h0A2.664,2.664,0,0,0,108.5,120.923Z" transform="translate(-85.08 -75.051)" fill="#8f979a" stroke="#263238" stroke-linecap="round" stroke-linejoin="round" stroke-width="1"/>
        <ellipse id="Ellipse_2" data-name="Ellipse 2" cx="1.028" cy="1.028" rx="1.028" ry="1.028" transform="translate(19.42 41.872)" fill="#999" stroke="#263238" stroke-linecap="round" stroke-linejoin="round" stroke-width="1"/>
        <rect id="Rectangle_29" data-name="Rectangle 29" width="187.411" height="29.025" transform="translate(28.748 30.473)" fill="#263238"/>
        <rect id="Rectangle_30" data-name="Rectangle 30" width="184.139" height="6.769" rx="1.38" transform="translate(30.346 32.657)" fill="#fff" opacity="0.2"/>
        <path id="Path_784" data-name="Path 784" d="M297.364,139.834H143.534a80.614,80.614,0,0,1-6.754-31.4H304.148C304.148,122.973,297.364,139.834,297.364,139.834Z" transform="translate(-97.985 -74.497)" fill="#fff"/>
        <g id="Group_42" data-name="Group 42" transform="translate(38.795 33.933)" clip-path="url(#clip-path-5)">
          <g id="Group_41" data-name="Group 41" transform="translate(16.081 22.092)" opacity="0.7">
            <path id="Path_785" data-name="Path 785" d="M162.36,146.568a14.063,14.063,0,0,0,5.253-1.313c1.884-1.133,1.748,1.021,2.829,1.163s3.632-.75,4.983-.75.323.825,1.846.75.705.075,1.5-.075l6.521-1.088s3.309-.638,3.977-.315,1.546,1.914,2.521,1.5.458-.75,1.929-.75a9.754,9.754,0,0,1,2.686.39s.135-.383.81-.39h1.208s2.559.675,2.964.675,3.429-.668,3.534-.675,3-.75,3-.75a4.87,4.87,0,0,0,2.251,1.336c1.1.143,2.251-.15,3.077.218s3.542-.15,3.542-.15a13.714,13.714,0,0,1,1.936.15,5.065,5.065,0,0,0,2.544-.075,9.7,9.7,0,0,1,4.652-.075c2.439.443,4.682-.668,5.718-.675s5.178.458,6.6.458,5.2.51,7.827.218,4.345.368,6.108.368,3.647-.075,4.052-.075a11.154,11.154,0,0,1,5.148-.968c2.791.308.308-.383,2.026,0s3.077.75,3.8.825a8.667,8.667,0,0,0,1.748-.075l3-.218h14.963" transform="translate(-159.246 -139.613)" fill="none" stroke="#263238" stroke-linecap="round" stroke-linejoin="round" stroke-width="1"/>
            <path id="Path_786" data-name="Path 786" d="M158.21,139.033s9.267,0,10.941-.15,2.566-1.006,3.459-1.006,5.4.855,5.4.855a1.5,1.5,0,0,1,1.5-.855c1.223,0,.6.113,1.726.563s.54,0,1.133.443a10.507,10.507,0,0,0,2.776.81s4.18.2,4.337-.81,2.251.81,2.251.81,5.673-.81,7.864-.81,7.684-.443,7.684-.443,4.5.593,4.712.593.953,1.178,1.756.66a3.724,3.724,0,0,1,2.529-.96,11.684,11.684,0,0,1,2.551.96l2.094-1.111,2.4.15s2.446,1.628,4.195.96a38.329,38.329,0,0,0,3.895-1.816l2.154,1.816h1.411l4.18-.81a2.529,2.529,0,0,0,2.739.81c1.771-.51,18.692,0,23,0s5.253-1.111,5.253-1.111l3.317,1.111h16.509" transform="translate(-158.21 -137.871)" fill="none" stroke="#263238" stroke-linecap="round" stroke-linejoin="round" stroke-width="1"/>
          </g>
          <path id="Path_787" data-name="Path 787" d="M300.587,144.5c-.908,2.7-1.568,4.337-1.568,4.337H145.188s-.75-1.576-1.778-4.337Z" transform="translate(-138.435 -117.433)" opacity="0.2"/>
          <path id="Path_788" data-name="Path 788" d="M302.7,129.36c-.518,2.251-1.088,4.45-1.651,6.393h-160.4c-.555-1.906-1.126-4.06-1.621-6.393Z" transform="translate(-137.339 -113.654)" opacity="0.2"/>
        </g>
        <path id="Path_790" data-name="Path 790" d="M297.364,139.834H143.534a80.614,80.614,0,0,1-6.754-31.4H304.148C304.148,122.973,297.364,139.834,297.364,139.834Z" transform="translate(-97.985 -74.497)" fill="none" stroke="#263238" stroke-linecap="round" stroke-linejoin="round" stroke-width="1"/>
        <rect id="Rectangle_31" data-name="Rectangle 31" width="4.585" height="32.027" transform="translate(24.125 28.98)" fill="#757575"/>
        <g id="Group_43" data-name="Group 43" transform="translate(24.125 28.98)" clip-path="url(#clip-path-6)">
          <rect id="Rectangle_32" data-name="Rectangle 32" width="4.465" height="9.5" transform="translate(0.03 22.527)" opacity="0.2"/>
        </g>
        <rect id="Rectangle_34" data-name="Rectangle 34" width="4.585" height="32.027" transform="translate(24.125 28.98)" fill="none" stroke="#263238" stroke-linecap="round" stroke-linejoin="round" stroke-width="1"/>
        <rect id="Rectangle_35" data-name="Rectangle 35" width="4.585" height="32.027" transform="translate(216.188 28.98)" fill="#757575"/>
        <g id="Group_44" data-name="Group 44" transform="translate(216.188 28.98)" clip-path="url(#clip-path-6)">
          <rect id="Rectangle_36" data-name="Rectangle 36" width="4.622" height="9.5" transform="translate(-0.038 22.527)" opacity="0.2"/>
        </g>
        <rect id="Rectangle_38" data-name="Rectangle 38" width="4.585" height="32.027" transform="translate(216.188 28.98)" fill="none" stroke="#263238" stroke-linecap="round" stroke-linejoin="round" stroke-width="1"/>
        <path id="Path_791" data-name="Path 791" d="M310.244,100.04V123.4H122.691V100.04h-1.8v24.928H312.045V100.04Z" transform="translate(-94.018 -72.403)" fill="#999" stroke="#263238" stroke-linecap="round" stroke-linejoin="round" stroke-width="1"/>
        <path id="Path_792" data-name="Path 792" d="M318.232,151.362v52.385a3.332,3.332,0,0,1-3.332,3.332H111.822a3.332,3.332,0,0,1-3.332-3.332V151.362a3.332,3.332,0,0,1,3.332-3.332H205.4v3.332s-15.976,13.86-43.523,18.97c3.947,17.867,25.513,31.517,51.537,31.517s47.59-13.665,51.545-31.517c-27.584-5.11-43.56-18.97-43.56-18.97V148h93.529a3.332,3.332,0,0,1,3.309,3.362Z" transform="translate(-90.923 -84.374)" fill="#29b6f6" stroke="#263238" stroke-linecap="round" stroke-linejoin="round" stroke-width="1"/>
        <path id="Path_793" data-name="Path 793" d="M318.23,151.362v52.385a3.332,3.332,0,0,1-3.339,3.332H111.819a3.332,3.332,0,0,1-3.339-3.332V151.362a3.347,3.347,0,0,1,3.339-3.339h93.574v3.339s-15.983,13.852-43.523,18.97c3.947,17.867,25.513,31.517,51.545,31.517S261,188.184,264.952,170.332c-27.584-5.118-43.56-18.97-43.56-18.97V148h93.529A3.339,3.339,0,0,1,318.23,151.362Z" transform="translate(-90.921 -84.374)" fill="#98b4ff"/>
        <g id="Group_45" data-name="Group 45" transform="translate(17.559 63.626)" clip-path="url(#clip-path-8)">
          <path id="Path_794" data-name="Path 794" d="M314.691,152.734V201.1a2.439,2.439,0,0,1-2.454,2.439H114.779a2.431,2.431,0,0,1-2.439-2.439V152.734a2.446,2.446,0,0,1,2.439-2.454h91.548v1.651S190.343,165.783,162.8,170.9c3.947,17.867,25.513,31.516,51.544,31.516s47.582-13.665,51.537-31.516c-27.584-5.118-43.56-18.97-43.56-18.97V150.28H312.26A2.454,2.454,0,0,1,314.691,152.734Z" transform="translate(-108.64 -147.368)" fill="#fff" opacity="0.2"/>
        </g>
        <path id="Path_796" data-name="Path 796" d="M318.23,151.362v52.385a3.332,3.332,0,0,1-3.339,3.332H111.819a3.332,3.332,0,0,1-3.339-3.332V151.362a3.347,3.347,0,0,1,3.339-3.339h93.574v3.339s-15.983,13.852-43.523,18.97c3.947,17.867,25.513,31.517,51.545,31.517S261,188.184,264.952,170.332c-27.584-5.118-43.56-18.97-43.56-18.97V148h93.529A3.339,3.339,0,0,1,318.23,151.362Z" transform="translate(-90.921 -84.374)" fill="none" stroke="#263238" stroke-linecap="round" stroke-linejoin="round" stroke-width="1"/>
      </g>
      <g id="freepik--right-hand--inject-326" transform="translate(185.216 132.09)">
        <path id="Path_797" data-name="Path 797" d="M292.253,246.489l9.973,27.817s4.315-30.616,6.889-30.616,8.119,16.741,8.119,16.741,3.422-8.735,6.664-9.05,6.176,21.446,6.176,21.446l.5,48.3-4.09,73.051s-26.091-28.74-33.7-36.146-14.88-23.7-16.981-27.014-2.634-20.636-2.634-20.636a18.572,18.572,0,0,0,3.932-11.946s6.123-10.25,5.748-17.814S281.529,243.668,292.253,246.489Z" transform="translate(-273.17 -240.349)" fill="rgba(0,0,0,0.7)" opacity="0.2"/>
        <path id="Path_798" data-name="Path 798" d="M372.838,380.139l-39.5,20.778c0-.21-5.193-8.622-11.466-18.137-2.837-4.307-5.9-8.832-8.8-12.929-4.757-6.7-10.806-12.487-11.323-13.747-1.5-3.752-13.072-17.8-15.661-23.262s-3.182-22.459-4.322-26.459,2.131-7.819,4.758-9.68,5.38-6.754,5.38-6.754-2.9-11.316-2.934-17.072-1.989-25.844.353-27.72,4.435-1.088,5.02.2c1.921,4.255,3.647,14.955,5.125,19.885s4.255,19.233,5.62,20.261,3.8-2.829,3.8-2.829.233-12.006.75-16.981l-.75-15.758s-1.4-9.47,1.861-10.37c4.5-1.238,6.146,1.591,6.656,2.784s2.611,8.067,2.611,8.067l.12.473v.225q.053.2.113.428c.083.315.18.69.285,1.118,1,3.91,2.919,11.736,2.836,13.665-.113,2.6-1.021,17.026.263,20.021l2-19.923s-3.219-15.353-2.281-17.567,5.358.233,5.883,1.1,4.818,6.138,5.583,8.149l.75,2.011s1.058-4.757,3.542-3.519,2.791,7.286,2.964,9.928,1.974,19.63,2.251,19.66,3.144,8.855,2.754,14.685c-.818,12.479,1.343,21.761,1.418,26.549s-3.534,15.878-3.534,15.878h0a28.266,28.266,0,0,1,3.129,7.744c.473,2.581,8.885,11.909,15.758,19.33h0C368.62,375.494,372.627,379.681,372.838,380.139Z" transform="translate(-275.256 -239.243)" fill="#ffbda7"/>
        <path id="Path_799" data-name="Path 799" d="M321.881,382.8h0c-2.836-4.307-5.9-8.832-8.8-12.929-4.758-6.7-10.806-12.487-11.323-13.747-1.5-3.752-13.072-17.8-15.661-23.262s-3.182-22.459-4.322-26.459,2.131-7.819,4.757-9.68,5.38-6.754,5.38-6.754-2.9-11.316-2.934-17.071-1.989-25.844.353-27.72,4.435-1.088,5.02.2c1.921,4.255,3.647,14.955,5.125,19.885s4.255,19.233,5.62,20.261,3.8-2.829,3.8-2.829.233-12.006.75-16.981l-.75-15.758s-1.4-9.47,1.861-10.37c4.5-1.238,6.146,1.591,6.656,2.784s2.611,8.067,2.611,8.067l.12.473v.225q.045.2.113.428c.083.315.18.69.285,1.118a7.784,7.784,0,0,0-4.9-3.819c-6-1.171-4.705,5.508-4.135,9.515a27.768,27.768,0,0,1-.188,7.992l1.5-.863c-1.081,1.929-2.626,17.957-2.626,21.521s-2.822,4.75-5.35,3.707-3.429-17.4-5.35-20.336-7.264,2.671-7.5,7.8,4.54,20.411,3.407,24.013-1.118,17.259-1.118,17.259l-1.381-3.519c.09.48,0,2.094-2.889,6.844a14.144,14.144,0,0,0-1.568,11.676c1.763,3.895,10.708,14.16,12.209,15.218,0,0,1.088-4.457,4.5-3.272a19.691,19.691,0,0,0-2.506,6c-.705,3.272,6.416,5.365,8.644,8.479C312.651,362.8,313.567,368.581,321.881,382.8Z" transform="translate(-275.259 -239.248)" fill="#898989" opacity="0.4"/>
        <path id="Path_800" data-name="Path 800" d="M381.867,376.081c-7.024-7.076-19.383-13.815-18.632-15.578,1.006-2.371-.27-7.421-2.431-11.519s.75-10.746.75-10.746l1.336,3.865a32.891,32.891,0,0,0,.368-13.6c-1.366-7.662-2.431-4.968-2.431-4.968s.278-6.9,1.5-10.671,2.251-12.914.563-18.325-5.253-4.39-6.206-2.529.068,9.117.855,11.5-2.566,6.378-2.634,3.407-1.336-11.256-1.336-11.256l2.544-16.636-2.544-13.214s1.058-4.758,3.542-3.519,2.792,7.286,2.964,9.928,1.974,19.63,2.251,19.66,3.144,8.855,2.754,14.685c-.818,12.479,1.343,21.761,1.418,26.549s-3.534,15.878-3.534,15.878h0a28.262,28.262,0,0,1,3.129,7.744c.473,2.581,8.885,11.909,15.758,19.33Z" transform="translate(-293.238 -244.94)" fill="#898989" opacity="0.4"/>
        <path id="Path_801" data-name="Path 801" d="M348.66,261c.143.375.263.683.353.93-2.386-5.545-6.453-3.827-7.174-2.251s1.7,11.354,2.251,12.869-2.176,13.62-2.574,17.627S340.061,295,340.061,295c-2.694.2-3-7.234-3-8.254a9.575,9.575,0,0,0,.5,2.506l2-19.923s-3.294-15.368-2.356-17.582,5.358.233,5.883,1.1S347.895,258.991,348.66,261Z" transform="translate(-289.109 -242.135)" fill="#898989" opacity="0.4"/>
        <path id="Path_802" data-name="Path 802" d="M372.84,380.133c-.51-1.156-23.945-24.763-24.763-29.1a28.212,28.212,0,0,0-3.137-7.752s3.609-11.068,3.534-15.878-2.251-14.07-1.418-26.549c.39-5.831-2.469-14.655-2.754-14.685s-2.086-17.019-2.251-19.66-.473-8.69-2.964-9.928-3.542,3.519-3.542,3.519l-.75-2.011c-.75-2.011-5.058-7.279-5.583-8.149s-4.938-3.324-5.883-1.1,2.349,17.552,2.349,17.552L323.7,286.334c-1.283-3-.375-17.417-.263-20.02s-3.414-15.908-3.414-15.908-2.116-6.844-2.611-8.074-2.154-4.022-6.656-2.784c-3.264.9-1.861,10.37-1.861,10.37l.75,15.758c-.5,5-.75,16.981-.75,16.981s-2.431,3.849-3.8,2.829-4.142-15.316-5.62-20.261-3.2-15.631-5.125-19.885c-.585-1.291-2.679-2.079-5.02-.2s-.39,21.957-.353,27.72,2.934,17.071,2.934,17.071-2.754,4.863-5.38,6.753-5.9,5.673-4.757,9.68,1.733,21.011,4.322,26.459,14.13,19.51,15.661,23.262c.518,1.261,6.566,7.046,11.323,13.747,9.342,13.154,20.261,30.766,20.261,31.066" transform="translate(-275.259 -239.237)" fill="none" stroke="#263238" stroke-linecap="round" stroke-linejoin="round" stroke-width="1"/>
        <path id="Path_803" data-name="Path 803" d="M293.916,306.84s1.861,9.222,1.793,10.768a68.754,68.754,0,0,0-1.643,11.736A46.975,46.975,0,0,0,291,334.77c-.63,1.666-1.756,5.763-1.291,8.044" transform="translate(-277.272 -256.111)" fill="none" stroke="#263238" stroke-linecap="round" stroke-linejoin="round" stroke-width="1"/>
        <path id="Path_804" data-name="Path 804" d="M290.82,325s4.562.038,4.27,1.959" transform="translate(-277.576 -260.644)" fill="none" stroke="#263238" stroke-linecap="round" stroke-linejoin="round" stroke-width="1"/>
        <path id="Path_805" data-name="Path 805" d="M294.235,336.679s-2.927-1.268-3.955.435" transform="translate(-277.441 -263.446)" fill="none" stroke="#263238" stroke-linecap="round" stroke-linejoin="round" stroke-width="1"/>
        <path id="Path_806" data-name="Path 806" d="M317.311,297.14s-.21,7.069-2.071,6.506" transform="translate(-283.671 -253.69)" fill="none" stroke="#263238" stroke-linecap="round" stroke-linejoin="round" stroke-width="1"/>
        <path id="Path_807" data-name="Path 807" d="M337.687,302s-.54,3.865.915,5.058" transform="translate(-289.25 -254.903)" fill="none" stroke="#263238" stroke-linecap="round" stroke-linejoin="round" stroke-width="1"/>
        <path id="Path_808" data-name="Path 808" d="M353.54,267.06s2.026,9.755,2.491,12.066-2.3,14.107-2.251,17.177,1.366,7.459,1.186,9.522" transform="translate(-293.231 -246.182)" fill="none" stroke="#263238" stroke-linecap="round" stroke-linejoin="round" stroke-width="1"/>
        <path id="Path_809" data-name="Path 809" d="M364.285,365.79s-.653,6.371,1.306,9.095" transform="translate(-295.887 -270.826)" fill="none" stroke="#263238" stroke-linecap="round" stroke-linejoin="round" stroke-width="1"/>
        <path id="Path_810" data-name="Path 810" d="M310.852,382.59s-4.367,3.977-2.769,8.87" transform="translate(-281.797 -275.019)" fill="none" stroke="#263238" stroke-linecap="round" stroke-linejoin="round" stroke-width="1"/>
        <path id="Path_811" data-name="Path 811" d="M349.558,316.51c.068,2.806-1.576,6.078-1.748,9.958" transform="translate(-291.801 -258.525)" fill="none" stroke="#263238" stroke-linecap="round" stroke-linejoin="round" stroke-width="1"/>
        <path id="Path_812" data-name="Path 812" d="M331.12,313.17c.93,2.3-1.1,7.294-1.4,9.17a11.474,11.474,0,0,0,.473,4.352" transform="translate(-287.274 -257.691)" fill="none" stroke="#263238" stroke-linecap="round" stroke-linejoin="round" stroke-width="1"/>
        <path id="Path_813" data-name="Path 813" d="M365.641,323.71c-.375,2.439-2.1,4.18-2.431,11.684" transform="translate(-295.645 -260.322)" fill="none" stroke="#263238" stroke-linecap="round" stroke-linejoin="round" stroke-width="1"/>
        <path id="Path_814" data-name="Path 814" d="M309.67,312.22c1.261,1.373.413,7.932.75,9" transform="translate(-282.281 -257.454)" fill="none" stroke="#263238" stroke-linecap="round" stroke-linejoin="round" stroke-width="1"/>
        <path id="Path_815" data-name="Path 815" d="M341,261.456s4.292-3.144,7.984.563" transform="translate(-290.101 -244.473)" fill="none" stroke="#263238" stroke-linecap="round" stroke-linejoin="round" stroke-width="1"/>
        <path id="Path_816" data-name="Path 816" d="M321.3,251.909s.75-1.253,4.375-.945,4.27,2.349,4.27,2.349" transform="translate(-285.184 -242.152)" fill="none" stroke="#263238" stroke-linecap="round" stroke-linejoin="round" stroke-width="1"/>
        <path id="Path_817" data-name="Path 817" d="M304.18,280.351s-1.216-1.793-4.42-1.2-4.63,5.125-4.63,5.125" transform="translate(-278.651 -249.17)" fill="#ffbda7" stroke="#263238" stroke-linecap="round" stroke-linejoin="round" stroke-width="1"/>
        <path id="Path_818" data-name="Path 818" d="M363.253,300.926s-2.671-3.872-5.883-2.214" transform="translate(-294.187 -253.98)" fill="none" stroke="#263238" stroke-linecap="round" stroke-linejoin="round" stroke-width="1"/>
      </g>
      <g id="freepik--left-hand--inject-326" transform="translate(56.306 134.767)">
        <path id="Path_819" data-name="Path 819" d="M190.554,262.912c4.5,3.489.705,24.906.705,24.906l.4,6.971,7.722-3.362,3.519,14.9s-.09,5.455,2.769,7.5a190.954,190.954,0,0,1,0,21.184c-.705,8.945-15.008,19.458-19.938,28.845s-37.084,36.979-37.084,36.979L121.42,387.882l19.683-79.5,17.634-22.669L169.19,259.64s1.793,17.034.75,28.515Z" transform="translate(-106.382 -247.007)" fill="rgba(0,0,0,0.7)" opacity="0.2"/>
        <path id="Path_820" data-name="Path 820" d="M193.133,306.3c-.683,3.287.961,21.3.675,23.735s-14.618,18.76-15.338,20-10.3,6.753-12.532,9.387c-10.415,12.149-16.1,23.337-20.673,34.556h0c-.878,2.161-1.718,4.33-2.544,6.506L101.39,376.465c3.474-4.307,6.754-8.134,9.755-11.616,6-7.061,10.783-12.712,13.124-18.047a29.833,29.833,0,0,1,2.461-3.9c.931-1.321,1.763-2.409,1.763-2.409s-3-8.457-2.3-11.113-.863-24.493-.863-24.493-2.034-14.865-4.037-18.617a6.183,6.183,0,0,1-.645-3.167c.1-3.429,2.086-7.751,3.062-12.757,1.306-6.754.675-10.093,4.772-7.759s2.184,16.509,2.184,16.509l6.191,13.717c1.628-3.317,0-13-.083-15.285,0-.375,0-1-.06-1.808-.128-3.947-.39-12.164-.053-15.406a1.323,1.323,0,0,1,.06-.5c.5-3.347,2.3-13.995,3.437-15.18,1.7-1.756,4.39-3.234,6.926.75,1.418,2.251.81,20.1.81,20.1s5.883-7.1,7.669-8.832,7.2-4.9,8.652-1.231-3.895,15.008-3.895,15.008c1.118,2.626,1.253,9.9,1.253,9.9s2.529,9.087,4.082,9h.068c.45-.1.945-1.748,1.463-4.067,1.276-5.68,2.664-15.4,3.752-16.246l.75-.6a.563.563,0,0,1,.12-.113l.278-.248c2.656-2.364,8.254-7.617,8.254-7.617s.4-2.514,5.3-1.741-2.176,15.233-2.176,15.233c-.983,4.6-2.491,16.434-2.491,16.434-.458,4.923-.188,18.152-.188,18.152s2.319-7.7,2.169-10.505,4.607-9.68,6-11.451,7.624-1.148,5.891,2.251S193.816,302.994,193.133,306.3Z" transform="translate(-101.382 -242.816)" fill="#ffbda7"/>
        <path id="Path_821" data-name="Path 821" d="M127.484,380.122a29.838,29.838,0,0,1,2.461-3.9s-2.439,6.754-2.679,10.348c-.158,2.371-6.4,6.476-12.907,11.6C120.4,391.108,125.143,385.457,127.484,380.122Z" transform="translate(-104.62 -276.106)" fill="#898989" opacity="0.4"/>
        <path id="Path_822" data-name="Path 822" d="M133.32,357.382c.93-1.321,1.763-2.409,1.763-2.409s-3-8.457-2.3-11.113-.863-24.493-.863-24.493-2.034-14.865-4.037-18.617l4.667,8.157s-.458,6.446.87,9.98,3,14.317,3,14.317-1.966,9.065-1.3,12.329a2.613,2.613,0,0,0,3.677,2.079S140.277,353.585,133.32,357.382Z" transform="translate(-107.995 -257.268)" fill="#898989" opacity="0.4"/>
        <path id="Path_823" data-name="Path 823" d="M143.994,287.853c3.219,18.85-2.326,13.635-4.33,9.568s-6.709-11.766-10.25-10.123a5.539,5.539,0,0,0-2.394,2.161c.1-3.429,2.086-7.752,3.062-12.757,1.306-6.754.675-10.093,4.773-7.759s2.184,16.509,2.184,16.509l6.191,13.717c1.628-3.317,0-13-.083-15.286,0-.375,0-1-.06-1.808Q143.457,284.676,143.994,287.853Z" transform="translate(-107.78 -249.144)" fill="#898989" opacity="0.4"/>
        <path id="Path_824" data-name="Path 824" d="M157.2,262.9s-3.474-4.547-6.491-4.315a2.656,2.656,0,0,0-2.349,1.733,1.324,1.324,0,0,1,.06-.5c.5-3.347,2.3-13.995,3.437-15.18,1.7-1.756,4.39-3.234,6.926.75,1.418,2.251.81,20.1.81,20.1s5.883-7.1,7.669-8.832,7.2-4.9,8.652-1.231-3.895,15.008-3.895,15.008c1.118,2.626,1.253,9.9,1.253,9.9s2.529,9.087,4.082,9c-3.422,6.438-5.7-7.8-5.7-7.8.51-2.942-1.306-9.32-1.126-11s-3.152-7.624-8.765-6-1.561,23.8-1.561,23.8a12.4,12.4,0,0,0-1.876,5.868c-1.733-2.139,0-8.254,0-8.254C156.787,280.109,157.2,262.9,157.2,262.9Z" transform="translate(-113.107 -242.819)" fill="#898989" opacity="0.4"/>
        <path id="Path_825" data-name="Path 825" d="M193.5,276.9c-2.394,2.514-2.064,8.87-4.5,16.846,1.276-5.68,2.664-15.4,3.752-16.246Z" transform="translate(-123.251 -251.315)" fill="#29b6f6" opacity="0.4"/>
        <path id="Path_826" data-name="Path 826" d="M207.728,311.516c-.683,3.287.961,21.3.675,23.735s-14.618,18.76-15.338,20-10.3,6.754-12.532,9.387c-10.415,12.149-16.1,23.337-20.673,34.556a147.871,147.871,0,0,1,6.221-17.079c4.93-11.083,6.941-13.057,9.9-16.223s2.634-9.9,2.634-9.9a28.349,28.349,0,0,1,6.663-.788c3.752,0,14.858-15.833,18.677-18.61s4.5-2.776,0-8.9-3.227.983-4.577.75-2.086,2.724-2.086,2.724c-.473-6.243-4.5-13.507-5.35-15.323S194,303.382,193.4,300.418s2.581-21.011,2.581-21.011-.4-6.926-6.671-6.949a4.112,4.112,0,0,0-2.686.81c2.656-2.364,8.254-7.616,8.254-7.616s.4-2.514,5.3-1.741-2.176,15.233-2.176,15.233c-.983,4.6-2.491,16.434-2.491,16.434-.458,4.923-.188,18.152-.188,18.152s2.319-7.7,2.169-10.506,4.607-9.68,6-11.451,7.624-1.148,5.891,2.251S208.41,308.214,207.728,311.516Z" transform="translate(-115.977 -248.036)" fill="#898989" opacity="0.4"/>
        <path id="Path_827" data-name="Path 827" d="M142.712,400.534c5.1-13.455,10.791-26.586,23.225-41.091,2.251-2.6,11.8-8.112,12.532-9.387s15.06-17.574,15.338-20-1.358-20.448-.675-23.735-.113-14.122,1.613-17.5-4.5-3.992-5.891-2.251-6.131,8.675-6,11.451-2.169,10.505-2.169,10.505-.27-13.229.188-18.152c0,0,1.5-11.834,2.491-16.434,0,0,7.069-14.468,2.176-15.233s-5.3,1.741-5.3,1.741-7.812,7.339-9.357,8.539-3.654,19.96-5.208,20.313-4.15-9-4.15-9-.135-7.271-1.253-9.9c0,0,5.335-11.308,3.895-15.008s-6.859-.5-8.652,1.231-7.669,8.832-7.669,8.832.608-17.867-.81-20.1c-2.536-4-5.253-2.521-6.926-.75-1.141,1.186-2.934,11.834-3.437,15.18s0,15.413.053,17.709,1.711,11.969.083,15.285l-6.191-13.717s1.921-14.19-2.184-16.509-3.467,1.028-4.773,7.759-4.412,12.2-2.416,15.961,4.037,18.617,4.037,18.617,1.546,21.836.863,24.493,2.326,11.121,2.326,11.121a54.908,54.908,0,0,0-4.225,6.311c-3.5,7.947-12.344,16.636-22.864,29.708" transform="translate(-101.38 -242.805)" fill="none" stroke="#263238" stroke-linecap="round" stroke-linejoin="round" stroke-width="1"/>
        <path id="Path_828" data-name="Path 828" d="M162.909,273.05a7.369,7.369,0,0,0-1.261,4.375c0,2.851,1.868,18.46,1.868,18.46a6.383,6.383,0,0,0-1.426,3" transform="translate(-116.422 -250.354)" fill="none" stroke="#263238" stroke-linecap="round" stroke-linejoin="round" stroke-width="1"/>
        <path id="Path_829" data-name="Path 829" d="M207.08,330.34a21.994,21.994,0,0,0,2,7.609,8.5,8.5,0,0,1,.585,7.429,26.475,26.475,0,0,0-.638,5.47" transform="translate(-127.763 -264.654)" fill="none" stroke="#263238" stroke-linecap="round" stroke-linejoin="round" stroke-width="1"/>
        <path id="Path_830" data-name="Path 830" d="M149.128,305.33s1.306,4.142-1.118,6.108" transform="translate(-113.019 -258.412)" fill="none" stroke="#263238" stroke-linecap="round" stroke-linejoin="round" stroke-width="1"/>
        <path id="Path_831" data-name="Path 831" d="M186.409,304.77s.255,1.628-2.049,1.778" transform="translate(-122.092 -258.272)" fill="none" stroke="#263238" stroke-linecap="round" stroke-linejoin="round" stroke-width="1"/>
        <path id="Path_832" data-name="Path 832" d="M204.3,278.664s-5.778-6.3-10.265-1.553" transform="translate(-124.506 -250.926)" fill="none" stroke="#263238" stroke-linecap="round" stroke-linejoin="round" stroke-width="1"/>
        <path id="Path_833" data-name="Path 833" d="M172.931,273.994s-2.664-3.369-4.975-3.167-5.433,1.613-5.786,3.467" transform="translate(-116.554 -249.797)" fill="none" stroke="#263238" stroke-linecap="round" stroke-linejoin="round" stroke-width="1"/>
        <path id="Path_834" data-name="Path 834" d="M211.19,347.68a13.283,13.283,0,0,1,2,4.4" transform="translate(-128.789 -268.983)" fill="none" stroke="#263238" stroke-linecap="round" stroke-linejoin="round" stroke-width="1"/>
        <path id="Path_835" data-name="Path 835" d="M190.658,313.54c-1.793,3.339-.938,9-1.6,10.558" transform="translate(-123.265 -260.461)" fill="none" stroke="#263238" stroke-linecap="round" stroke-linejoin="round" stroke-width="1"/>
        <path id="Path_836" data-name="Path 836" d="M165.5,306.15c.42,1.921-.908,5.05-1.111,7.354s1.681,5.861,1.336,9.095" transform="translate(-117.103 -258.616)" fill="none" stroke="#263238" stroke-linecap="round" stroke-linejoin="round" stroke-width="1"/>
        <path id="Path_837" data-name="Path 837" d="M149.14,316.63s-1.568,3.617-1.5,6,.915,7.616.915,7.616" transform="translate(-112.926 -261.232)" fill="none" stroke="#263238" stroke-linecap="round" stroke-linejoin="round" stroke-width="1"/>
        <path id="Path_838" data-name="Path 838" d="M134.229,316.4s-.57,3.752.75,6.393a50.383,50.383,0,0,1,2.6,8.254" transform="translate(-109.549 -261.175)" fill="none" stroke="#263238" stroke-linecap="round" stroke-linejoin="round" stroke-width="1"/>
        <path id="Path_839" data-name="Path 839" d="M137.48,371.979a3.579,3.579,0,0,0,2.6-3.069" transform="translate(-110.391 -274.282)" fill="none" stroke="#263238" stroke-linecap="round" stroke-linejoin="round" stroke-width="1"/>
        <path id="Path_840" data-name="Path 840" d="M187.313,388.24s1.433,5.305-1.313,8.72" transform="translate(-122.502 -279.107)" fill="none" stroke="#263238" stroke-linecap="round" stroke-linejoin="round" stroke-width="1"/>
        <path id="Path_841" data-name="Path 841" d="M127.07,295.042s4.037-3.94,7.091-.615" transform="translate(-107.792 -255.357)" fill="none" stroke="#263238" stroke-linecap="round" stroke-linejoin="round" stroke-width="1"/>
        <path id="Path_842" data-name="Path 842" d="M148.44,265.026s3-3.144,6.513.218" transform="translate(-113.127 -248.018)" fill="none" stroke="#263238" stroke-linecap="round" stroke-linejoin="round" stroke-width="1"/>
      </g>
    </g>
  </g>
</svg>
