<svg xmlns="http://www.w3.org/2000/svg" xmlns:xlink="http://www.w3.org/1999/xlink" width="665.889" height="800.634" viewBox="0 0 665.889 800.634">
  <defs>
    <clipPath id="clip-path">
      <rect y="8" width="665.889" height="800.634" fill="none"/>
    </clipPath>
    <clipPath id="clip-path-2">
      <path id="Path_1378" data-name="Path 1378" d="M998.016-9.723s-111.4,50.65-98.865,166.457c1.791,1.791,3.958,63.091,91.8,77.68,40.605-4.035,128.373,72.636,53.72,133.165s-113.749,203.481,0,204.792-64.663,218.223-12.746,260.123,534.057-13.869,534.057-13.869l-.21-822.7Z" transform="translate(-280.739 3.67)" fill="#263238"/>
    </clipPath>
    <clipPath id="clip-path-3">
      <path id="Path_29" data-name="Path 29" d="M.253,32.733,49.43,20.414V18.724l4.139-.113v1.943L89.934,26.3s1.591.366.239-1.408S65.409,2.675,65.409,2.675L39.42,0,0,8.658Z" transform="translate(0 0)" fill="#92e3a9" stroke="#263238" stroke-linecap="round" stroke-linejoin="round" stroke-width="1"/>
    </clipPath>
  </defs>
  <g id="Scroll_Group_12" data-name="Scroll Group 12" transform="translate(0 -8)" clip-path="url(#clip-path)" style="isolation: isolate">
    <g id="Group_7020" data-name="Group 7020" transform="translate(-614.359 7.869)">
      <path id="Path_1373" data-name="Path 1373" d="M990.955-23.539s-88,54.955-83.7,176.849c-1.559,3.168,33.953,85.169,121.8,99.758,23.418,7.806,90.725,40.95,16.071,101.48s-77.419,238.363,15.7,227.618-80.813,208.429-28.9,250.329,534.057-13.869,534.057-13.869l34.363-829.05Z" transform="translate(-292.739 15.67)" fill="#dadada"/>
      <g id="Mask_Group_1" data-name="Mask Group 1" transform="translate(24)" clip-path="url(#clip-path-2)">
        <path id="Path_1111" data-name="Path 1111" d="M998.016-9.723s-111.4,50.65-98.865,166.457c1.791,1.791,3.958,63.091,91.8,77.68,40.605-4.035,128.373,72.636,53.72,133.165s-113.749,203.481,0,204.792-64.663,218.223-12.746,260.123,534.057-13.869,534.057-13.869l-.21-822.7Z" transform="translate(-280.739 3.67)" fill="#263238"/>
        <g id="Group_6557" data-name="Group 6557" transform="translate(752.973 -164.293)">
          <g id="Carton" transform="translate(-0.886 38.989)">
            <g id="Fire_hair-pana" data-name="Fire hair-pana" transform="translate(0 0)">
              <g id="freepik--Character--inject-59" transform="translate(0 0)">
                <g id="Group_20" data-name="Group 20" transform="translate(-109.411 61.734) rotate(9)">
                  <path id="Path_236" data-name="Path 236" d="M4.931,2.526C4.565.761,3.059-.379,1.79.116h0a4.045,4.045,0,0,0-1.678,4.3C.5,6.183,2.005,7.3,3.3,6.764A4.066,4.066,0,0,0,4.931,2.526Z" transform="translate(208.848 22.548)" fill="#c8c8c8"/>
                  <path id="Path_237" data-name="Path 237" d="M1.974,1.013C1.844.3,1.242-.149.726.045h0A1.592,1.592,0,0,0,.059,1.809c.151.71.753,1.162,1.269.947A1.635,1.635,0,0,0,1.974,1.013Z" transform="translate(258.812 48.392)" fill="#c8c8c8"/>
                  <path id="Path_238" data-name="Path 238" d="M1.992,1.013C1.841.3,1.239-.149.722.045h0A1.613,1.613,0,0,0,.055,1.809c.151.71.753,1.162,1.269.947a1.678,1.678,0,0,0,.667-1.743Z" transform="translate(202.45 13.497)" fill="#c8c8c8"/>
                  <path id="Path_239" data-name="Path 239" d="M1.984,1.02C1.833.31,1.231-.163.715.052h0A1.7,1.7,0,0,0,.048,1.838c.172.688.774,1.14,1.291.925A1.592,1.592,0,0,0,1.984,1.02Z" transform="translate(245.979 28.162)" fill="#c8c8c8"/>
                  <path id="Path_240" data-name="Path 240" d="M.71.355A.366.366,0,0,0,.258.01h0A.559.559,0,0,0,.021.634.366.366,0,0,0,.473.978.6.6,0,0,0,.71.355Z" transform="translate(187.683)" fill="#c8c8c8"/>
                  <path id="Path_243" data-name="Path 243" d="M2.005,1.02C1.855.31,1.252-.163.736.052h0A1.678,1.678,0,0,0,.048,1.838c.172.688.774,1.14,1.291.925A1.592,1.592,0,0,0,2.005,1.02Z" transform="translate(97.215 131.985)" fill="#c8c8c8"/>
                  <g id="Group_22" data-name="Group 22" transform="translate(36.131 184.723)">
                    <path id="Path_241" data-name="Path 241" d="M4.923,2.546C4.557.782,3.051-.38,1.782.115h0A4.109,4.109,0,0,0,.1,4.417C.491,6.16,2.018,7.279,3.288,6.741a4.023,4.023,0,0,0,1.635-4.2Z" transform="translate(34.466 0.058)" fill="#c8c8c8"/>
                    <path id="Path_242" data-name="Path 242" d="M1.992,1.013C1.841.3,1.239-.149.722.045h0A1.614,1.614,0,0,0,.055,1.809c.151.71.774,1.162,1.269.947A1.635,1.635,0,0,0,1.992,1.013Z" transform="translate(29.637 61.561)" fill="#c8c8c8"/>
                    <path id="Path_244" data-name="Path 244" d="M1.992,1.033C1.841.323,1.239-.15.722.044h0A1.614,1.614,0,0,0,.055,1.808c.151.71.753,1.162,1.269.947a1.635,1.635,0,0,0,.667-1.721Z" fill="#c8c8c8"/>
                  </g>
                  <g id="Group_23" data-name="Group 23" transform="translate(79.491 13.434)">
                    <path id="Path_241-2" data-name="Path 241" d="M4.923,2.546C4.557.782,3.051-.38,1.782.115h0A4.109,4.109,0,0,0,.1,4.417C.491,6.16,2.018,7.279,3.288,6.741a4.023,4.023,0,0,0,1.635-4.2Z" transform="translate(70.744 0.058)" fill="#c8c8c8"/>
                    <path id="Path_242-2" data-name="Path 242" d="M1.992,1.013C1.841.3,1.239-.149.722.045h0A1.614,1.614,0,0,0,.055,1.809c.151.71.774,1.162,1.269.947A1.635,1.635,0,0,0,1.992,1.013Z" transform="translate(58.349 63.668)" fill="#c8c8c8"/>
                    <path id="Path_244-2" data-name="Path 244" d="M1.992,1.033C1.841.323,1.239-.15.722.044h0A1.614,1.614,0,0,0,.055,1.808c.151.71.753,1.162,1.269.947a1.635,1.635,0,0,0,.667-1.721Z" fill="#c8c8c8"/>
                  </g>
                  <g id="Group_24" data-name="Group 24" transform="translate(0 45.562)">
                    <path id="Path_241-3" data-name="Path 241" d="M4.923,2.546C4.557.782,3.051-.38,1.782.115h0A4.109,4.109,0,0,0,.1,4.417C.491,6.16,2.018,7.279,3.288,6.741a4.023,4.023,0,0,0,1.635-4.2Z" transform="translate(52.261 0.058)" fill="#c8c8c8"/>
                    <path id="Path_242-3" data-name="Path 242" d="M1.992,1.013C1.841.3,1.239-.149.722.045h0A1.614,1.614,0,0,0,.055,1.809c.151.71.774,1.162,1.269.947A1.635,1.635,0,0,0,1.992,1.013Z" transform="translate(43.722 56.006)" fill="#c8c8c8"/>
                    <path id="Path_244-3" data-name="Path 244" d="M1.992,1.033C1.841.323,1.239-.15.722.044h0A1.614,1.614,0,0,0,.055,1.808c.151.71.753,1.162,1.269.947a1.635,1.635,0,0,0,.667-1.721Z" fill="#c8c8c8"/>
                  </g>
                </g>
                <path id="Path_250" data-name="Path 250" d="M417.566,71.366C405.982,62.423,208.18,83.8,118.4,87.133c96.764,39.345-30.505,28.48-11.88,88.648,28.01,70.026,36.839,26.742,36.839,26.742,21.465-50.47,17.155,34.4,8.679,42.315-14.627,13.407-4.96,17.321-4.022,23.381,2.091,13.581,13.246,23.864,16.477,27.457s26.679,9.063,26.679,9.063a179.165,179.165,0,0,1-20,32.323c-6.529,8.553-18.568,31.291-4.733,57.086s71.806,74.46,79.917,77.651,54.048,1.349,75.459-.353,58.339-45.524,62.7-52.858c25.312-42.338,21.544-52.594,21.544-52.594s-11.758-56.7-16.088-66c-7.173-15.27-12.066-35.42-13.635-54.511s4.384-24.548,17.161-31.385c13.594-7.24,67.353-91.583,0-52C338.442,192.681,382.156,59.562,417.566,71.366ZM331.982,201.856s5.363-8.822.456-13.407-13.621-1.931-21.115-5.363-5.282-12.066-5.282-12.066l3.633-8.929s2.346,12.146,12.133,13.688c2.145.349,18.9,5.537,19.064,15.552S331.982,201.856,331.982,201.856Z" transform="translate(-27.674 -12.62)" fill="#4275ff"/>
                <path id="Path_251" data-name="Path 251" d="M296.858,225.275l26.7,17.251,25.18,21.736s1.088-22.166.139-35.583c0,0-9.207,5.216-11.8-.835-11.041-25.622,10.826-13.978,10.826-13.978,8.094-8.514-16.757-26.626-16.757-26.626s-5.059,9.649-23.271,13.717c-8.145,1.825-14.873-13.326-22.423-22.922s-9.586-23.027-9.586-23.027-29.341,14.069-34.147,2.725,6.551-11.957,9.3-15.321,6.033-5.868,3.617-11.944-10.118-13.208-10.118-13.208l4.566,11.174c-3.794,1.1-34.59,18.554-38.03,24.331a63.325,63.325,0,0,0-7.171,23.822c-.43,7.093,5.451,22.74,9.321,22.427l17.706-1.46s4.173,12.231,1.5,19.558-23.22,18.841-24.029,21.253-8.4,48.518-7.133,52.338,14.367,15.647,10.737,19.141-41.735,26.208-45.036,46.94,18.971,43.993,53.117,51.4,69.445,10.8,76.4,0-.24-15.647,9.308-18.033,15.594.287,17.111-5.333-1.088-14.056-1.088-14.056,11.85,2.178,14.076,5.92-.1-5.659,9.751-16.677-5.742-95.367-8.575-106.919,8.941,65.429-10.345,55.233-30.353-2.23-34.147,11.435,1.682,34.423,1.265,41.529-23.4,37.265-48.172,6.311-9.473-25.452,0-41.151,23.612-27.916,28.949-47.983,12.091-55.129,22.233-53.16" transform="translate(-8.987 2.785)" fill="#fff" opacity="0.1"/>
                <path id="Path_253" data-name="Path 253" d="M202.706,321.021s16.879,5.255,33.745-20.646c2.869-4.411-12.683-17.429-9.894-23.864,4.3-9.867,31.439-9,35.032-24.668.9-3.9,2.038-13.165,3.767-16.691,11.248-22.966,32.672-37.659,32.672-37.659h0a49.216,49.216,0,0,0-36.6-.2c-20.767,8.2-44.537,47.071-45.3,47.647-1.153.858-18.086,58.721-18.086,58.721Z" transform="translate(-9.27 28.881)" fill="#4275ff"/>
                <g id="Group_15" data-name="Group 15" transform="translate(188.769 222.743)" opacity="0.1">
                  <path id="Path_254" data-name="Path 254" d="M202.706,321.021s16.879,5.255,33.745-20.646c2.869-4.411-12.683-17.429-9.894-23.864,4.3-9.867,31.439-9,35.032-24.668.9-3.9,2.038-13.165,3.767-16.691,11.248-22.966,32.672-37.659,32.672-37.659h0a49.216,49.216,0,0,0-36.6-.2c-20.767,8.2-44.537,47.071-45.3,47.647-1.153.858-18.086,58.721-18.086,58.721Z" transform="translate(-198.04 -193.862)" fill="#fff"/>
                </g>
                <path id="Path_255" data-name="Path 255" d="M167.788,195.2s-13.058,5.832-8.647,19.466c4.6,14.224,11.06,22.349,14.747,26.063s21.236-3.419,21.1-1.126l3.513,25.875,7.333-34.013s-4.572-19.44-19.373-19.9c-5.872-.174-18.005,6.7-18.354-4.84Z" transform="translate(-22.832 29.336)" fill="#fff" opacity="0.1"/>
                <path id="Path_256" data-name="Path 256" d="M323.563,186.245s8.594-4.572,2.185-12.723S298.574,154,298.574,154L296.71,127.39s13.313,18.045,20.74,20.66,28.248,10.363,28.261,15.015C345.738,179.971,323.563,186.245,323.563,186.245Z" transform="translate(24.343 6.236)" fill="#fff" opacity="0.1"/>
                <path id="Path_258" data-name="Path 258" d="M254.144,206.608c1.77-4.411-3.767-29.91-5.269-31.452s-15.672-5.51-17.429-7.709-7.025-11.007-7.025-11.007v12.334s8.795,14.09,11.02,14.975-.469,17.174,0,18.93-5.282,22.027-7.923,26.156-16.3,8.647-19.386,12.146,4.223,37.244,4.223,37.244l1.488-9.787a33.758,33.758,0,0,1,14.895-23.126c1.984-1.341,4.116-2.681,6.368-4.3,7.91-5.537-4.022,20.5-4.022,20.5l29.8-24.91a73.737,73.737,0,0,0,11.878-31.144c.657-4.773.9-7.669,1.421-8.339C275.247,195.775,252.455,211.018,254.144,206.608Z" transform="translate(-6.091 16.132)" fill="#fff" opacity="0.3"/>
                <path id="Path_259" data-name="Path 259" d="M324.8,164.913s0-3.807-2.681-5S308.14,146.05,308.14,146.05s7.025.63,11.221,4.022C329.55,158.143,324.8,164.913,324.8,164.913Z" transform="translate(28.237 12.593)" fill="#fff" opacity="0.3"/>
                <path id="Path_260" data-name="Path 260" d="M233.493,120.232s-25.66-5.564-26.921-9.492-6.5-16.7-6.5-18.019,3.606-5.242,3.606-5.242-1.636,4.25-.322,5.242,21.947,11.141,22.925,15.069S233.493,120.232,233.493,120.232Z" transform="translate(-8.579 -7.36)" fill="#fff" opacity="0.1"/>
                <path id="Path_262" data-name="Path 262" d="M306.55,151.818c2.425-4.059,11.712-9.832,11.712-9.832s33.13-21.507,18.571-8.623c-8.258,7.325-19.063,11.917-24.273,17.349-8.705,9.075-7.248,17.948-6.543,21.835C304.664,171.466,301.887,159.608,306.55,151.818Z" transform="translate(-157.328 20.605)" fill="#fff" opacity="0.8"/>
                <path id="Path_263" data-name="Path 263" d="M351.724,306.18s-8.366-40.354-13.608-58.56h0s8.178,36.131,8.124,40.287,4.29,15.243-.362,28.529A227.917,227.917,0,0,1,327.5,353.211c-3.928,5.953-15.619,21.96-24,33.356,13.138-11.074,24.306-23.824,26.679-27.792C355.491,316.5,351.724,306.18,351.724,306.18Z" transform="translate(18.651 46.738)" fill="#fff" opacity="0.8"/>
                <path id="Path_264" data-name="Path 264" d="M189.591,357.93,170.272,330.34l-5.684-14.519a56.67,56.67,0,0,1-3.218-29.4l.818-10.859c-5.751,11.141-10.551,29.28.161,49.256C167.243,333.986,177.74,346.039,189.591,357.93Z" transform="translate(-23.6 56.712)" opacity="0.3"/>
                <path id="Path_265" data-name="Path 265" d="M171.228,233.832c-.08.107,0,.4.255.858C171.442,234.074,171.375,233.631,171.228,233.832Z" transform="translate(-18.415 42.48)" opacity="0.3"/>
                <path id="Path_266" data-name="Path 266" d="M191.139,259.478s-8.728-11.6-10.39-14.948c.094,2.172-.255,7.468-.255,7.468s-4.6,3.352-22.59-16.611c-10.31-11.436-11.61-22.791-10.846-30.487-7.025,9.318.134,12.884.925,18.059,2.091,13.581,13.246,23.864,16.477,27.457S191.139,259.478,191.139,259.478Z" transform="translate(-27.681 32.641)" opacity="0.3"/>
                <path id="Path_267" data-name="Path 267" d="M135.555,283.034c0,.509-.335,7.843,6.341,10.323a25.11,25.11,0,0,0,11.074,1.877s-5.188-2.762-8.889-4.558a7.937,7.937,0,0,1-4.169-5.765S134.911,277.845,135.555,283.034Z" transform="translate(-30.577 58.61)" fill="#fff" opacity="0.1"/>
                <path id="Path_296" data-name="Path 296" d="M269.653,253.714c-.939,1.716-7.494-.174-15.485-.429s-14.747.912-15.485-.885c-.349-.845,1.019-2.4,3.861-3.767a26.813,26.813,0,0,1,23.582,1.006C268.835,251.234,270.068,252.883,269.653,253.714Z" transform="translate(4.557 46.77)" fill="#4275ff"/>
                <g id="Group_21" data-name="Group 21" transform="translate(288.756 517.743) rotate(106)">
                  <path id="Path_241-4" data-name="Path 241" d="M5.738,2.967C5.311.911,3.556-.443,2.077.134h0A4.789,4.789,0,0,0,.121,5.149C.572,7.18,2.352,8.484,3.832,7.857a4.689,4.689,0,0,0,1.906-4.89Z" transform="translate(11.478 215.374)" fill="#c8c8c8"/>
                  <path id="Path_242-4" data-name="Path 242" d="M2.321,1.181C2.146.353,1.444-.173.842.052h0A1.881,1.881,0,0,0,.065,2.109c.176.827.9,1.354,1.479,1.1A1.906,1.906,0,0,0,2.321,1.181Z" transform="translate(11.835 235.515)" fill="#c8c8c8"/>
                  <path id="Path_243-2" data-name="Path 243" d="M2.337,1.189C2.162.362,1.46-.19.858.061h0a1.956,1.956,0,0,0-.8,2.081c.2.8.9,1.329,1.5,1.078A1.856,1.856,0,0,0,2.337,1.189Z" transform="translate(71.197 153.837)" fill="#c8c8c8"/>
                  <path id="Path_244-4" data-name="Path 244" d="M2.321,1.2C2.146.377,1.444-.175.842.051h0A1.881,1.881,0,0,0,.065,2.107c.176.828.878,1.354,1.479,1.1A1.906,1.906,0,0,0,2.321,1.2Z" transform="translate(0 215.306)" fill="#c8c8c8"/>
                </g>
                <g id="Group_26" data-name="Group 26" transform="translate(466.523 233.465) rotate(67)">
                  <path id="Path_241-5" data-name="Path 241" d="M4.923,2.546C4.557.782,3.051-.38,1.782.115h0A4.109,4.109,0,0,0,.1,4.417C.491,6.16,2.018,7.279,3.288,6.741a4.023,4.023,0,0,0,1.635-4.2Z" transform="translate(127.299 25.103)" fill="#c8c8c8"/>
                  <path id="Path_242-5" data-name="Path 242" d="M1.992,1.013C1.841.3,1.239-.149.722.045h0A1.614,1.614,0,0,0,.055,1.809c.151.71.774,1.162,1.269.947A1.635,1.635,0,0,0,1.992,1.013Z" transform="translate(109.637 80.703)" fill="#c8c8c8"/>
                  <path id="Path_244-5" data-name="Path 244" d="M1.992,1.033C1.841.323,1.239-.15.722.044h0A1.614,1.614,0,0,0,.055,1.808c.151.71.753,1.162,1.269.947a1.635,1.635,0,0,0,.667-1.721Z" transform="translate(31.306 25.045)" fill="#c8c8c8"/>
                  <path id="Path_241-6" data-name="Path 241" d="M4.923,2.546C4.557.782,3.051-.38,1.782.115h0A4.109,4.109,0,0,0,.1,4.417C.491,6.16,2.018,7.279,3.288,6.741a4.023,4.023,0,0,0,1.635-4.2Z" transform="matrix(0.53, -0.848, 0.848, 0.53, 33.564, 4.259)" fill="#c8c8c8"/>
                  <path id="Path_242-6" data-name="Path 242" d="M1.992,1.013C1.841.3,1.239-.149.722.045h0A1.614,1.614,0,0,0,.055,1.809c.151.71.774,1.162,1.269.947A1.635,1.635,0,0,0,1.992,1.013Z" transform="matrix(0.53, -0.848, 0.848, 0.53, 61.586, 34.54)" fill="#c8c8c8"/>
                  <path id="Path_244-6" data-name="Path 244" d="M1.992,1.033C1.841.323,1.239-.15.722.044h0A1.614,1.614,0,0,0,.055,1.808c.151.71.753,1.162,1.269.947a1.635,1.635,0,0,0,.667-1.721Z" transform="matrix(0.53, -0.848, 0.848, 0.53, 0, 57.862)" fill="#c8c8c8"/>
                </g>
                <g id="Group_6558" data-name="Group 6558" transform="translate(68.35 223.981) rotate(67)">
                  <path id="Path_241-7" data-name="Path 241" d="M4.923,2.546C4.557.782,3.051-.38,1.782.115h0A4.109,4.109,0,0,0,.1,4.417C.491,6.16,2.018,7.279,3.288,6.741a4.023,4.023,0,0,0,1.635-4.2Z" transform="translate(127.299 25.103)" fill="#c8c8c8"/>
                  <path id="Path_242-7" data-name="Path 242" d="M1.992,1.013C1.841.3,1.239-.149.722.045h0A1.614,1.614,0,0,0,.055,1.809c.151.71.774,1.162,1.269.947A1.635,1.635,0,0,0,1.992,1.013Z" transform="translate(109.637 80.703)" fill="#c8c8c8"/>
                  <path id="Path_244-7" data-name="Path 244" d="M1.992,1.033C1.841.323,1.239-.15.722.044h0A1.614,1.614,0,0,0,.055,1.808c.151.71.753,1.162,1.269.947a1.635,1.635,0,0,0,.667-1.721Z" transform="translate(31.306 25.045)" fill="#c8c8c8"/>
                  <path id="Path_241-8" data-name="Path 241" d="M4.923,2.546C4.557.782,3.051-.38,1.782.115h0A4.109,4.109,0,0,0,.1,4.417C.491,6.16,2.018,7.279,3.288,6.741a4.023,4.023,0,0,0,1.635-4.2Z" transform="matrix(0.53, -0.848, 0.848, 0.53, 33.564, 4.259)" fill="#c8c8c8"/>
                  <path id="Path_242-8" data-name="Path 242" d="M1.992,1.013C1.841.3,1.239-.149.722.045h0A1.614,1.614,0,0,0,.055,1.809c.151.71.774,1.162,1.269.947A1.635,1.635,0,0,0,1.992,1.013Z" transform="matrix(0.53, -0.848, 0.848, 0.53, 61.586, 34.54)" fill="#c8c8c8"/>
                  <path id="Path_244-8" data-name="Path 244" d="M1.992,1.033C1.841.323,1.239-.15.722.044h0A1.614,1.614,0,0,0,.055,1.808c.151.71.753,1.162,1.269.947a1.635,1.635,0,0,0,.667-1.721Z" transform="matrix(0.53, -0.848, 0.848, 0.53, 0, 57.862)" fill="#c8c8c8"/>
                </g>
                <g id="Group_6559" data-name="Group 6559" transform="translate(459.35 417.854) rotate(67)">
                  <path id="Path_241-9" data-name="Path 241" d="M4.923,2.546C4.557.782,3.051-.38,1.782.115h0A4.109,4.109,0,0,0,.1,4.417C.491,6.16,2.018,7.279,3.288,6.741a4.023,4.023,0,0,0,1.635-4.2Z" transform="translate(127.299 25.103)" fill="#c8c8c8"/>
                  <path id="Path_242-9" data-name="Path 242" d="M1.992,1.013C1.841.3,1.239-.149.722.045h0A1.614,1.614,0,0,0,.055,1.809c.151.71.774,1.162,1.269.947A1.635,1.635,0,0,0,1.992,1.013Z" transform="translate(109.637 80.703)" fill="#c8c8c8"/>
                  <path id="Path_244-9" data-name="Path 244" d="M1.992,1.033C1.841.323,1.239-.15.722.044h0A1.614,1.614,0,0,0,.055,1.808c.151.71.753,1.162,1.269.947a1.635,1.635,0,0,0,.667-1.721Z" transform="translate(31.306 25.045)" fill="#c8c8c8"/>
                  <path id="Path_241-10" data-name="Path 241" d="M4.923,2.546C4.557.782,3.051-.38,1.782.115h0A4.109,4.109,0,0,0,.1,4.417C.491,6.16,2.018,7.279,3.288,6.741a4.023,4.023,0,0,0,1.635-4.2Z" transform="matrix(0.53, -0.848, 0.848, 0.53, 33.564, 4.259)" fill="#c8c8c8"/>
                  <path id="Path_242-10" data-name="Path 242" d="M1.992,1.013C1.841.3,1.239-.149.722.045h0A1.614,1.614,0,0,0,.055,1.809c.151.71.774,1.162,1.269.947A1.635,1.635,0,0,0,1.992,1.013Z" transform="matrix(0.53, -0.848, 0.848, 0.53, 61.586, 34.54)" fill="#c8c8c8"/>
                  <path id="Path_244-10" data-name="Path 244" d="M1.992,1.033C1.841.323,1.239-.15.722.044h0A1.614,1.614,0,0,0,.055,1.808c.151.71.753,1.162,1.269.947a1.635,1.635,0,0,0,.667-1.721Z" transform="matrix(0.53, -0.848, 0.848, 0.53, 0, 57.862)" fill="#c8c8c8"/>
                </g>
                <g id="Group_6560" data-name="Group 6560" transform="matrix(-0.391, 0.921, -0.921, -0.391, 524.649, 612.485)">
                  <path id="Path_241-11" data-name="Path 241" d="M4.923,4.331C4.557,6.095,3.051,7.257,1.782,6.762h0A4.109,4.109,0,0,1,.1,2.459C.491.717,2.018-.4,3.288.136a4.023,4.023,0,0,1,1.635,4.2Z" transform="translate(127.299 51.533)" fill="#c8c8c8"/>
                  <path id="Path_242-11" data-name="Path 242" d="M1.992,1.8c-.151.71-.753,1.162-1.269.968h0A1.614,1.614,0,0,1,.055,1C.206.291.83-.161,1.325.054A1.635,1.635,0,0,1,1.992,1.8Z" transform="translate(109.637 0)" fill="#c8c8c8"/>
                  <path id="Path_244-11" data-name="Path 244" d="M1.992,1.775c-.151.71-.753,1.183-1.269.99h0A1.614,1.614,0,0,1,.055,1C.206.291.808-.161,1.325.054a1.635,1.635,0,0,1,.667,1.721Z" transform="translate(31.306 55.659)" fill="#c8c8c8"/>
                  <path id="Path_241-12" data-name="Path 241" d="M4.923,4.331C4.557,6.095,3.051,7.257,1.782,6.762h0A4.109,4.109,0,0,1,.1,2.459C.491.717,2.018-.4,3.288.136a4.023,4.023,0,0,1,1.635,4.2Z" transform="matrix(0.53, 0.848, -0.848, 0.53, 39.395, 75.61)" fill="#c8c8c8"/>
                  <path id="Path_242-12" data-name="Path 242" d="M1.992,1.8c-.151.71-.753,1.162-1.269.968h0A1.614,1.614,0,0,1,.055,1C.206.291.83-.161,1.325.054A1.635,1.635,0,0,1,1.992,1.8Z" transform="matrix(0.53, 0.848, -0.848, 0.53, 63.969, 47.483)" fill="#c8c8c8"/>
                  <path id="Path_244-12" data-name="Path 244" d="M1.992,1.775c-.151.71-.753,1.183-1.269.99h0A1.614,1.614,0,0,1,.055,1C.206.291.808-.161,1.325.054a1.635,1.635,0,0,1,.667,1.721Z" transform="matrix(0.53, 0.848, -0.848, 0.53, 2.381, 24.162)" fill="#c8c8c8"/>
                </g>
                <g id="Group_6573" data-name="Group 6573" transform="translate(128.902 749.981) rotate(67)">
                  <path id="Path_241-13" data-name="Path 241" d="M4.923,2.546C4.557.782,3.051-.38,1.782.115h0A4.109,4.109,0,0,0,.1,4.417C.491,6.16,2.018,7.279,3.288,6.741a4.023,4.023,0,0,0,1.635-4.2Z" transform="translate(127.299 25.103)" fill="#c8c8c8"/>
                  <path id="Path_242-13" data-name="Path 242" d="M1.992,1.013C1.841.3,1.239-.149.722.045h0A1.614,1.614,0,0,0,.055,1.809c.151.71.774,1.162,1.269.947A1.635,1.635,0,0,0,1.992,1.013Z" transform="translate(109.637 80.703)" fill="#c8c8c8"/>
                  <path id="Path_244-13" data-name="Path 244" d="M1.992,1.033C1.841.323,1.239-.15.722.044h0A1.614,1.614,0,0,0,.055,1.808c.151.71.753,1.162,1.269.947a1.635,1.635,0,0,0,.667-1.721Z" transform="translate(31.306 25.045)" fill="#c8c8c8"/>
                  <path id="Path_241-14" data-name="Path 241" d="M4.923,2.546C4.557.782,3.051-.38,1.782.115h0A4.109,4.109,0,0,0,.1,4.417C.491,6.16,2.018,7.279,3.288,6.741a4.023,4.023,0,0,0,1.635-4.2Z" transform="matrix(0.53, -0.848, 0.848, 0.53, 33.564, 4.259)" fill="#c8c8c8"/>
                  <path id="Path_242-14" data-name="Path 242" d="M1.992,1.013C1.841.3,1.239-.149.722.045h0A1.614,1.614,0,0,0,.055,1.809c.151.71.774,1.162,1.269.947A1.635,1.635,0,0,0,1.992,1.013Z" transform="matrix(0.53, -0.848, 0.848, 0.53, 61.586, 34.54)" fill="#c8c8c8"/>
                  <path id="Path_244-14" data-name="Path 244" d="M1.992,1.033C1.841.323,1.239-.15.722.044h0A1.614,1.614,0,0,0,.055,1.808c.151.71.753,1.162,1.269.947a1.635,1.635,0,0,0,.667-1.721Z" transform="matrix(0.53, -0.848, 0.848, 0.53, 0, 57.862)" fill="#c8c8c8"/>
                </g>
                <g id="Group_6574" data-name="Group 6574" transform="translate(259.452 841.78) rotate(-43)">
                  <path id="Path_241-15" data-name="Path 241" d="M4.923,2.546C4.557.782,3.051-.38,1.782.115h0A4.109,4.109,0,0,0,.1,4.417C.491,6.16,2.018,7.279,3.288,6.741a4.023,4.023,0,0,0,1.635-4.2Z" transform="translate(127.299 25.103)" fill="#c8c8c8"/>
                  <path id="Path_242-15" data-name="Path 242" d="M1.992,1.013C1.841.3,1.239-.149.722.045h0A1.614,1.614,0,0,0,.055,1.809c.151.71.774,1.162,1.269.947A1.635,1.635,0,0,0,1.992,1.013Z" transform="translate(109.637 80.703)" fill="#c8c8c8"/>
                  <path id="Path_244-15" data-name="Path 244" d="M1.992,1.033C1.841.323,1.239-.15.722.044h0A1.614,1.614,0,0,0,.055,1.808c.151.71.753,1.162,1.269.947a1.635,1.635,0,0,0,.667-1.721Z" transform="translate(31.306 25.045)" fill="#c8c8c8"/>
                  <path id="Path_241-16" data-name="Path 241" d="M4.923,2.546C4.557.782,3.051-.38,1.782.115h0A4.109,4.109,0,0,0,.1,4.417C.491,6.16,2.018,7.279,3.288,6.741a4.023,4.023,0,0,0,1.635-4.2Z" transform="matrix(0.53, -0.848, 0.848, 0.53, 33.564, 4.259)" fill="#c8c8c8"/>
                  <path id="Path_242-16" data-name="Path 242" d="M1.992,1.013C1.841.3,1.239-.149.722.045h0A1.614,1.614,0,0,0,.055,1.809c.151.71.774,1.162,1.269.947A1.635,1.635,0,0,0,1.992,1.013Z" transform="matrix(0.53, -0.848, 0.848, 0.53, 61.586, 34.54)" fill="#c8c8c8"/>
                  <path id="Path_244-16" data-name="Path 244" d="M1.992,1.033C1.841.323,1.239-.15.722.044h0A1.614,1.614,0,0,0,.055,1.808c.151.71.753,1.162,1.269.947a1.635,1.635,0,0,0,.667-1.721Z" transform="matrix(0.53, -0.848, 0.848, 0.53, 0, 57.862)" fill="#c8c8c8"/>
                </g>
                <g id="Group_6575" data-name="Group 6575" transform="translate(446.522 63.465) rotate(67)">
                  <path id="Path_241-17" data-name="Path 241" d="M4.923,2.546C4.557.782,3.051-.38,1.782.115h0A4.109,4.109,0,0,0,.1,4.417C.491,6.16,2.018,7.279,3.288,6.741a4.023,4.023,0,0,0,1.635-4.2Z" transform="translate(127.299 25.103)" fill="#c8c8c8"/>
                  <path id="Path_242-17" data-name="Path 242" d="M1.992,1.013C1.841.3,1.239-.149.722.045h0A1.614,1.614,0,0,0,.055,1.809c.151.71.774,1.162,1.269.947A1.635,1.635,0,0,0,1.992,1.013Z" transform="translate(109.637 80.703)" fill="#c8c8c8"/>
                  <path id="Path_244-17" data-name="Path 244" d="M1.992,1.033C1.841.323,1.239-.15.722.044h0A1.614,1.614,0,0,0,.055,1.808c.151.71.753,1.162,1.269.947a1.635,1.635,0,0,0,.667-1.721Z" transform="translate(31.306 25.045)" fill="#c8c8c8"/>
                  <path id="Path_241-18" data-name="Path 241" d="M4.923,2.546C4.557.782,3.051-.38,1.782.115h0A4.109,4.109,0,0,0,.1,4.417C.491,6.16,2.018,7.279,3.288,6.741a4.023,4.023,0,0,0,1.635-4.2Z" transform="matrix(0.53, -0.848, 0.848, 0.53, 33.564, 4.259)" fill="#c8c8c8"/>
                  <path id="Path_242-18" data-name="Path 242" d="M1.992,1.013C1.841.3,1.239-.149.722.045h0A1.614,1.614,0,0,0,.055,1.809c.151.71.774,1.162,1.269.947A1.635,1.635,0,0,0,1.992,1.013Z" transform="matrix(0.53, -0.848, 0.848, 0.53, 61.586, 34.54)" fill="#c8c8c8"/>
                  <path id="Path_244-18" data-name="Path 244" d="M1.992,1.033C1.841.323,1.239-.15.722.044h0A1.614,1.614,0,0,0,.055,1.808c.151.71.753,1.162,1.269.947a1.635,1.635,0,0,0,.667-1.721Z" transform="matrix(0.53, -0.848, 0.848, 0.53, 0, 57.862)" fill="#c8c8c8"/>
                </g>
                <g id="Group_6576" data-name="Group 6576" transform="translate(6.522 533.465) rotate(67)">
                  <path id="Path_241-19" data-name="Path 241" d="M4.923,2.546C4.557.782,3.051-.38,1.782.115h0A4.109,4.109,0,0,0,.1,4.417C.491,6.16,2.018,7.279,3.288,6.741a4.023,4.023,0,0,0,1.635-4.2Z" transform="translate(127.299 25.103)" fill="#c8c8c8"/>
                  <path id="Path_242-19" data-name="Path 242" d="M1.992,1.013C1.841.3,1.239-.149.722.045h0A1.614,1.614,0,0,0,.055,1.809c.151.71.774,1.162,1.269.947A1.635,1.635,0,0,0,1.992,1.013Z" transform="translate(109.637 80.703)" fill="#c8c8c8"/>
                  <path id="Path_244-19" data-name="Path 244" d="M1.992,1.033C1.841.323,1.239-.15.722.044h0A1.614,1.614,0,0,0,.055,1.808c.151.71.753,1.162,1.269.947a1.635,1.635,0,0,0,.667-1.721Z" transform="translate(31.306 25.045)" fill="#c8c8c8"/>
                  <path id="Path_241-20" data-name="Path 241" d="M4.923,2.546C4.557.782,3.051-.38,1.782.115h0A4.109,4.109,0,0,0,.1,4.417C.491,6.16,2.018,7.279,3.288,6.741a4.023,4.023,0,0,0,1.635-4.2Z" transform="matrix(0.53, -0.848, 0.848, 0.53, 33.564, 4.259)" fill="#c8c8c8"/>
                  <path id="Path_242-20" data-name="Path 242" d="M1.992,1.013C1.841.3,1.239-.149.722.045h0A1.614,1.614,0,0,0,.055,1.809c.151.71.774,1.162,1.269.947A1.635,1.635,0,0,0,1.992,1.013Z" transform="matrix(0.53, -0.848, 0.848, 0.53, 61.586, 34.54)" fill="#c8c8c8"/>
                  <path id="Path_244-20" data-name="Path 244" d="M1.992,1.033C1.841.323,1.239-.15.722.044h0A1.614,1.614,0,0,0,.055,1.808c.151.71.753,1.162,1.269.947a1.635,1.635,0,0,0,.667-1.721Z" transform="matrix(0.53, -0.848, 0.848, 0.53, 0, 57.862)" fill="#c8c8c8"/>
                </g>
                <path id="Path_1374" data-name="Path 1374" d="M135.656,286.424c0,1.417-.932,21.816,17.639,28.715a69.845,69.845,0,0,0,30.8,5.221s-14.432-7.682-24.724-12.679a22.076,22.076,0,0,1-11.6-16.035S133.866,271.992,135.656,286.424Z" transform="translate(-64.047 -33.934)" fill="#fff" opacity="0.1"/>
                <path id="Path_1375" data-name="Path 1375" d="M183.939,286.424c0,1.417.932,21.816-17.639,28.715a69.845,69.845,0,0,1-30.8,5.221s14.432-7.682,24.725-12.679a22.076,22.076,0,0,0,11.6-16.035S185.729,271.992,183.939,286.424Z" transform="translate(222.953 -99.934)" fill="#fff" opacity="0.1"/>
                <path id="Path_1376" data-name="Path 1376" d="M306.55,151.818c2.425-4.059,11.712-9.832,11.712-9.832s33.13-21.507,18.571-8.623c-8.258,7.325-19.063,11.917-24.273,17.349-8.705,9.075-7.248,17.948-6.543,21.835C304.664,171.466,301.887,159.608,306.55,151.818Z" transform="translate(-402.328 75.898)" fill="#fff" opacity="0.8"/>
                <path id="Path_1377" data-name="Path 1377" d="M306.55,149.98c2.425,4.059,11.712,9.832,11.712,9.832s33.13,21.507,18.571,8.623c-8.258-7.325-19.063-11.917-24.273-17.349-8.705-9.075-7.248-17.948-6.543-21.835C304.664,130.333,301.887,142.19,306.55,149.98Z" transform="translate(157.672 155.898)" fill="#fff" opacity="0.8"/>
              </g>
            </g>
            <g id="Meditation-rafiki" transform="translate(58.817 349.725)">
              <g id="freepik--Shadow--inject-14" transform="translate(0 192.401)" opacity="0.35">
                <path id="Path_540" data-name="Path 540" d="M487.931,495.024c0,23.419-84.942,42.4-189.723,42.4s-189.723-18.985-189.723-42.4,84.942-42.4,189.723-42.4S487.931,471.606,487.931,495.024Z" transform="translate(-108.486 -452.621)" fill="#eaeaea"/>
              </g>
              <g id="freepik--Character--inject-3" transform="translate(52.063 0)">
                <path id="Path_144" data-name="Path 144" d="M.018,17.054,5.941.14c.223-.619,2.782,1,3.412,1.126,0,0,9.285-1.237,12.982-.2s3.536,3.415,2.856,5.939c-1.57,5.865-4.1,6.978-5.737,14.749-1,4.739-1.817,9.106-7,13.61-4.945,4.293-9.693,4.034-7.74-1.237,4.7-12.571,2.473-10.7-.495-15.38C3.678,17.957-.3,17.945.018,17.054Z" transform="translate(121.497 236.595) rotate(76)" fill="#f0bdb0"/>
                <path id="Path_145" data-name="Path 145" d="M27.726,18.479,21.29.152c-.241-.67-3.017,1.086-3.7,1.22,0,0-10.068-1.341-14.077-.215s-3.834,3.7-3.1,6.435c1.7,6.355,4.451,7.561,6.221,15.981,1.086,5.135,1.971,9.867,7.588,14.747,5.363,4.652,10.511,4.371,8.393-1.341-5.095-13.621-2.681-11.6.536-16.664C23.744,19.458,28.061,19.444,27.726,18.479Z" transform="matrix(0.105, -0.995, 0.995, 0.105, 137.065, 262.898)" fill="#f0bdb0"/>
                <path id="Path_126" data-name="Path 126" d="M195.369,341.459c35-.885,57.716,25.781,57.716,25.781-3.432,10.926-5.631,19.1-5.631,19.1-19.145-3.62-40.917-5.081-58.842-9.747-16.182-4.21-17.871-26.076-16.088-35.259s10.967-11.329,20-14.318c10.31-3.419,29.964-3.687,44.054-3.74,14.855,0,34.375,1.341,44.483,3.62,0,0,21.451-.952,37.391-.684,9.3-1.569,3.7,13.594-11.074,26.518a65.947,65.947,0,0,1-54.123,15.753h-.121" transform="translate(-142.654 -125.58)" fill="#262d36"/>
                <path id="Path_127" data-name="Path 127" d="M347.431,341.459c-35-.885-66.068,25.781-66.068,25.781,3.432,10.926,5.631,19.1,5.631,19.1,19.145-3.62,49.269-5.081,67.194-9.747,16.2-4.21,17.871-26.076,16.088-35.259s-10.967-11.329-20-14.318c-10.31-3.419-29.964-3.687-44.054-3.74-14.855,0-34.375,1.341-44.483,3.62,0,0-21.451-.952-37.378-.684-9.318-1.569-3.714,13.594,11.06,26.518a65.947,65.947,0,0,0,54.056,15.753h.121" transform="translate(-126.355 -125.58)" fill="#262d36"/>
                <path id="Path_128" data-name="Path 128" d="M254.048,267.363q-4.545,15.5-9.586,30.835c-1.676,5.121-3.378,10.229-5.148,15.324s-3.486,10.149-5.443,15.3l-.241.644-.322.778c-.215.509-.456.992-.7,1.475a26.824,26.824,0,0,1-1.609,2.6,27.792,27.792,0,0,1-3.633,4.143,46.225,46.225,0,0,1-7.709,5.778,91.365,91.365,0,0,1-15.766,7.387,169.953,169.953,0,0,1-32.243,8.165L169.6,351.1c4.88-1.743,9.908-3.593,14.747-5.6s9.639-4.022,14.211-6.355a88.484,88.484,0,0,0,12.777-7.521c3.781-2.681,6.8-6.046,7.105-8.044l8.956-30.741q4.545-15.424,9.385-30.835Z" transform="translate(-143.457 -146.456)" fill="#f0bdb0"/>
                <path id="Path_129" data-name="Path 129" d="M176.37,329.592,160,325.68l7.8,14.814s11.1.454,14.747-5.363Z" transform="translate(-146.727 -124.763)" fill="#f0bdb0"/>
                <path id="Path_130" data-name="Path 130" d="M286.88,177.621c-5.872-4.25-29.4-.486-33.285,5.99s-7.24,20.11-13.715,23.408-14.184,16.53-9.948,28.154-12.508,8.486-13.407,26.143,24.239,26.585,40.113,17.871S283.68,225,282.674,207.019,286.88,177.621,286.88,177.621Z" transform="translate(-127.479 -175.816)" fill="#263238"/>
                <path id="Path_131" data-name="Path 131" d="M253.15,184.149s8.607-13.071,24.454-6.328c18.5,7.87,12.7,16.356,16.088,34.294s24.065,21.142,23.126,46.105c-1.6,42.512-39.214,34.629-49.6,23.341s1.113-52.728,1.113-52.728Z" transform="translate(-114.995 -175.791)" fill="#263238"/>
                <path id="Path_132" data-name="Path 132" d="M150.1,331.245l10.135,6.341,10.852,2.367-8.081-14.124Z" transform="translate(-150.1 -124.711)" fill="#f0bdb0"/>
                <path id="Path_133" data-name="Path 133" d="M227.166,248.16c-7.119,1.823-12.066,31.13-12.066,31.13L234.727,292.7s18.769-29.575,13.407-37.4C242.329,247.074,237.57,245.518,227.166,248.16Z" transform="translate(-127.957 -151.573)" fill="#5e89ff"/>
                <path id="Path_134" data-name="Path 134" d="M224.57,255.81l15.257,3.539,1.461,14.908a174.124,174.124,0,0,1-8.553,15.324l-11.905-8.044C221.339,274.687,222.64,260.449,224.57,255.81Z" transform="translate(-126.005 -148.565)" opacity="0.2"/>
                <path id="Path_135" data-name="Path 135" d="M224.617,249.132s-8.178,2.869,8.258,104.33h70.211c-1.18-28.57-1.22-46.186,12.441-104.827a206.464,206.464,0,0,0-29.816-3.928c-11.811-.576-21.451-.952-31.868,0C240.142,245.955,224.617,249.132,224.617,249.132Z" transform="translate(-125.408 -152.545)" fill="#5e89ff"/>
                <path id="Path_136" data-name="Path 136" d="M279.628,267.8l9.063,7.709c-1.944,10.256-3.231,18.769-4.022,26.4C282.926,294.292,278.623,273.618,279.628,267.8Z" transform="translate(-106.026 -144.48)" opacity="0.2"/>
                <path id="Path_137" data-name="Path 137" d="M275.381,217.79c-2.011,10.256-4.022,29.039,3.151,35.89,0,0-6.7,15.364-24.467,15.364s-7.4-15.364-7.4-15.364C258.1,251,257.8,242.458,255.807,234.495Z" transform="translate(-118.228 -161.517)" fill="#f6beaf"/>
                <path id="Path_138" data-name="Path 138" d="M282.77,244.708c-11.811-.576-21.451-.952-31.881,0-4.934.442-10.1,1.14-14.68,1.85-3.03,5.483-15.056,30.138,14.452,30.138,30.943,0,43.84-27.108,45.449-30.835C291.967,245.378,287.382,244.936,282.77,244.708Z" transform="translate(-122.467 -152.545)" fill="#f6beaf"/>
                <path id="Path_139" data-name="Path 139" d="M264.313,222.87l-11.583,9.881a34.043,34.043,0,0,1,.979,5.658c4.371-.63,10.377-5.43,10.833-10A15.392,15.392,0,0,0,264.313,222.87Z" transform="translate(-115.138 -159.786)" opacity="0.2"/>
                <path id="Path_140" data-name="Path 140" d="M290.274,210.462c-3.218,16.852-4.25,24.052-13.943,31.653-14.586,11.449-34.576,3.794-36.439-13.688-1.676-15.726,3.9-40.636,21.451-45.247a23.395,23.395,0,0,1,28.931,27.283Z" transform="translate(-119.608 -173.575)" fill="#f6beaf"/>
                <path id="Path_141" data-name="Path 141" d="M255.716,182.03c-6.046,3.392-2.038,9.385,8.875,13.635s11.57,5.027,9.787,13.849S288.5,226.5,288.7,217.383s3.445-26.411-5.041-31.224S262.111,178.5,255.716,182.03Z" transform="translate(-115.081 -174.235)" fill="#263238"/>
                <path id="Path_142" data-name="Path 142" d="M258.563,185.894c-5.363,1.729-17.549,14.962-16.651,10.6s3.177-10.39,9.613-12.616a34.858,34.858,0,0,1,9.492-2.293Z" transform="translate(-118.839 -173.849)" fill="#263238"/>
                <path id="Path_143" data-name="Path 143" d="M283.03,215.983a13,13,0,0,1-7.347,6.14c-4.169,1.341-6.274-2.266-5.135-6.207,1.032-3.553,4.424-8.527,8.62-8.151S284.92,212.417,283.03,215.983Z" transform="translate(-109.172 -164.939)" fill="#f6beaf"/>
                <path id="Path_146" data-name="Path 146" d="M234.907,379.162l6.475-24.306-8.527-3.526-12.026,26.1Z" transform="translate(-126.005 -116.024)" fill="#5e89ff"/>
                <path id="Path_147" data-name="Path 147" d="M268.636,379.535,258.46,354.961l7.87-3.231,15.94,23.9Z" transform="translate(-113.186 -115.888)" fill="#5e89ff"/>
                <path id="Path_148" data-name="Path 148" d="M250.243,204.36s-3.11,5.644-6.073,8.178c1.609,1.944,4.813,1.569,4.813,1.569Z" transform="translate(-115.372 -164.751)" fill="#263238"/>
                <path id="Path_150" data-name="Path 150" d="M263.877,200.56a.509.509,0,0,0,.5,0,.523.523,0,0,0,.161-.724,7.749,7.749,0,0,0-6.1-3.794.523.523,0,1,0,0,1.032,6.811,6.811,0,0,1,5.229,3.325.59.59,0,0,0,.215.161Z" transform="translate(-113.401 -168.928)" fill="#263238"/>
                <path id="Path_153" data-name="Path 153" d="M241.079,196.247a.523.523,0,0,0,.536,0,6.7,6.7,0,0,1,6.06-1.341.536.536,0,0,0,.67-.322.523.523,0,0,0-.322-.67,7.843,7.843,0,0,0-7.052,1.448.523.523,0,0,0-.094.737.442.442,0,0,0,.2.148Z" transform="translate(-119.213 -169.75)" fill="#263238"/>
                <path id="Path_154" data-name="Path 154" d="M302.068,322.748l.563,6.274c.241.5-.335.992-1.14.992H230.463c-.63,0-1.153-.308-1.193-.711l-.63-6.288c0-.429.509-.8,1.193-.8h71.055a1.26,1.26,0,0,1,1.18.536Z" transform="translate(-123.344 -125.947)" fill="#407bff"/>
                <path id="Path_155" data-name="Path 155" d="M302.068,322.748l.563,6.274c.241.5-.335.992-1.14.992H230.463c-.63,0-1.153-.308-1.193-.711l-.63-6.288c0-.429.509-.8,1.193-.8h71.055a1.26,1.26,0,0,1,1.18.536Z" transform="translate(-123.344 -125.947)" fill="#c2dcff"/>
                <path id="Path_156" data-name="Path 156" d="M276.706,330.836h1.9c.375,0,.67-.2.643-.442l-.9-8.165c0-.241-.349-.429-.737-.429h-1.9c-.375,0-.67.188-.643.429l.9,8.165C276,330.635,276.317,330.836,276.706,330.836Z" transform="translate(-107.528 -126.084)" fill="#263238"/>
                <path id="Path_157" data-name="Path 157" d="M234.416,330.836h1.9c.375,0,.657-.2.63-.442l-.885-8.165c0-.241-.362-.429-.737-.429h-1.9c-.375,0-.67.188-.644.429l.9,8.165C233.705,330.635,234.027,330.836,234.416,330.836Z" transform="translate(-121.934 -126.084)" fill="#263238"/>
                <path id="Path_158" data-name="Path 158" d="M255.553,330.836h1.9c.389,0,.67-.2.644-.442l-.885-8.165c0-.241-.362-.429-.737-.429h-1.9c-.389,0-.67.188-.644.429l.885,8.165C254.842,330.635,255.177,330.836,255.553,330.836Z" transform="translate(-114.729 -126.084)" fill="#263238"/>
                <path id="Path_159" data-name="Path 159" d="M301.067,263l5.751,31c.979,5.148,1.971,10.283,3.016,15.364.509,2.534,1.1,5.041,1.649,7.521l.885,3.66.858,3.137a10.31,10.31,0,0,0,2.48,3.714,35.256,35.256,0,0,0,4.947,4.2,93.289,93.289,0,0,0,12.683,7.36c4.531,2.252,9.264,4.3,14.05,6.261s9.733,3.794,14.533,5.523l-2.051,8.688a169.8,169.8,0,0,1-31.827-8.044,94.342,94.342,0,0,1-15.565-7.159,48.827,48.827,0,0,1-7.615-5.51,25.339,25.339,0,0,1-6.7-9.1l-.308-.764-.2-.576-.362-1.019-.711-2.065-1.247-4.022q-1.18-4.022-2.185-7.91-2.078-7.856-3.767-15.713c-2.333-10.484-4.33-20.928-6.046-31.532Z" transform="translate(-104.713 -146.115)" fill="#f0bdb0"/>
                <path id="Path_160" data-name="Path 160" d="M296.823,247.588c7.038,2.132,15.753,24.762,15.753,24.762l-27.3,19.52s-10.216-18.635-7.253-27.725C281.1,254.68,288.793,245.148,296.823,247.588Z" transform="translate(-106.704 -151.497)" fill="#5e89ff"/>
                <path id="Path_161" data-name="Path 161" d="M340.917,329.836l16.4-4.156L349.5,341.419s-11.087.483-14.747-5.7Z" transform="translate(-87.196 -124.763)" fill="#f0bdb0"/>
              </g>
              <g id="Bibliophile-bro" transform="matrix(0.995, 0.105, -0.105, 0.995, 20.717, 159.932)">
                <g id="Group_19" data-name="Group 19" transform="translate(89.05 55.162) rotate(-169)">
                  <path id="Path_24" data-name="Path 24" d="M48.613,3.66s-6.955,6.1-14.149,8.18-15.486,2.126-22.652,4.083S.366,19.527.366,19.527L0,13.051,48.317,0,81.374,9.151l3.294,6.715a53.5,53.5,0,0,0-11.263-3.787c-7.194-1.7-15.247-1.7-19.71-3.421S48.613,3.66,48.613,3.66Z" transform="translate(2.886 19.034)" fill="#fff" stroke="#263238" stroke-linecap="round" stroke-linejoin="round" stroke-width="1"/>
                  <path id="Path_25" data-name="Path 25" d="M.732,16.3a167.827,167.827,0,0,1,28.931-6.124A44.178,44.178,0,0,0,50.021,1.9,32.746,32.746,0,0,0,66.254,7.025a83.061,83.061,0,0,1,20.372,4.153l-2.07-4.224L49.05,0,0,12.812Z" transform="translate(1.478 20.794)" fill="#fff" stroke="#263238" stroke-linecap="round" stroke-linejoin="round" stroke-width="1"/>
                  <path id="Path_26" data-name="Path 26" d="M.253,17.936a87.891,87.891,0,0,1,23.37-5.448C36.689,11.5,50.514,5,50.514,5a41.208,41.208,0,0,0,17.2,4.392,80.064,80.064,0,0,1,19.893,2.689,4.773,4.773,0,0,1,.605-4.026L50.387,0,0,14.642Z" transform="translate(0.619 17.697)" fill="#fff" stroke="#263238" stroke-linecap="round" stroke-linejoin="round" stroke-width="1"/>
                  <path id="Path_27" data-name="Path 27" d="M.253,32.733,49.43,20.414V18.724l4.139-.113v1.943L89.934,26.3s1.591.366.239-1.408S65.409,2.675,65.409,2.675L39.42,0,0,8.658Z" transform="translate(0 0.211)" fill="#407bff"/>
                  <g id="Group_4" data-name="Group 4" transform="translate(0 0.211)" clip-path="url(#clip-path-3)">
                    <path id="Path_28" data-name="Path 28" d="M49.416,18.781V20.5L.239,32.817,0,8.658,39.406,0l.7.07,10.4,18.682Z" transform="translate(0.014 -0.084)" opacity="0.3"/>
                  </g>
                  <path id="Path_30" data-name="Path 30" d="M.253,32.733,49.43,20.414V18.724l4.139-.113v1.943L89.934,26.3s1.591.366.239-1.408S65.409,2.675,65.409,2.675L39.42,0,0,8.658Z" transform="translate(0 0.211)" fill="none" stroke="#263238" stroke-linecap="round" stroke-linejoin="round" stroke-width="1"/>
                  <path id="Path_31" data-name="Path 31" d="M10.869,18.907,0,.127,2.084,0,15.008,18.795Z" transform="translate(38.561 0)" fill="#2c56b2" stroke="#263238" stroke-linecap="round" stroke-linejoin="round" stroke-width="1"/>
                </g>
              </g>
              <g id="Group_58" data-name="Group 58" transform="translate(348.623 126.854) rotate(49)">
                <path id="Path_620" data-name="Path 620" d="M12.428,13.111A17.878,17.878,0,0,1,1.921,8.959c-1.015-.857-2-2-1.916-3.324A4.143,4.143,0,0,1,1.562,3.012,13.057,13.057,0,0,1,5.585.5,4.67,4.67,0,0,1,9.462.371c1.248.677,1.783,2.156,2.217,3.509q.937,2.914,1.872,5.829a3.3,3.3,0,0,1,.235,1.416,1.131,1.131,0,0,1-.879,1.016c-.8.1-1.237-.874-1.455-1.648a10.474,10.474,0,0,0-2.518-4.82A4.718,4.718,0,0,0,3.888,4.5c-.457.209-.922.637-.818,1.129a1.338,1.338,0,0,0,.653.741l9.264,6.256" transform="translate(7.026 33.258) rotate(-30)" fill="#407bff"/>
                <g id="Group_57" data-name="Group 57" transform="translate(0 0)">
                  <path id="Path_621" data-name="Path 621" d="M7.385,1.605S7.679-.319,6.448.046s-1.742.606-1.813,3-.953,7.041-2.071,8.791S-.1,14.174,0,17.881s1.06,11.244,1.06,11.244L.284,31.435l9.074,7.888c-.007-.08,6.23-5.447,6.227-5.465s2.987-8.064,3.042-9.327c.093-2.13.87-5.22.694-7.738a12.524,12.524,0,0,0-.809-4.6C17.547,9.291,17.3,9.577,17.3,9.577s3.376-2.463,1.977-4.605A5.56,5.56,0,0,0,15.339,2.65L7.386,1.605Z" transform="translate(29.734 50.852)" fill="#f0bdb0"/>
                  <g id="Group_56" data-name="Group 56" transform="translate(0 7.971) rotate(-30)">
                    <path id="Path_622" data-name="Path 622" d="M8.36.581,0,77.135l8.11.979,7.832-77S13.478-.984,8.36.58Z" fill="#407bff"/>
                    <path id="Path_623" data-name="Path 623" d="M8.36.581,0,77.135l8.11.979,7.832-77S13.478-.984,8.36.58Z" fill="#fff" opacity="0.8"/>
                    <path id="Path_624" data-name="Path 624" d="M0,6.615S3.055,11.38,7.713,8.692l.634-6.242S2.011,3.455.723,0L0,6.615Z" transform="translate(4.175 32.281)" fill="#407bff"/>
                  </g>
                  <path id="Path_625" data-name="Path 625" d="M4.706,0C4.693.127-.749.3.087,3.164s6.227,1.22,6.227,1.22" transform="translate(41.494 53.869)" fill="#f0bdb0"/>
                  <path id="Path_626" data-name="Path 626" d="M12.861.547A1.57,1.57,0,0,0,11.054.093C9.788.455,2.256,5.274,1.8,6.24S.973,8.81,2.04,9.2l.921.184S-.146,10.972.005,12.3s1.742,2.318,3.68,1.211c0,0-1.681,1.086-1.006,2.5s1.414,1.481,2.827.806a22.773,22.773,0,0,1,4.435-1.181l2.032,1.648" transform="translate(34.177 59.88)" fill="#f0bdb0"/>
                  <path id="Path_627" data-name="Path 627" d="M2.5,8.878a3.388,3.388,0,0,0,1.258-.264A.335.335,0,0,0,3.51,7.99,2.05,2.05,0,0,1,1.691,8,2.381,2.381,0,0,1,.672,6.349C.566,5.7,2.371,4.574,3.623,4.02L8.1,1.419A4.744,4.744,0,0,1,9.9.679a1.367,1.367,0,0,1,1.406.678.336.336,0,1,0,.621-.256A2,2,0,0,0,9.831.013,5.246,5.246,0,0,0,7.763.84L3.32,3.425C2.755,3.672-.214,5.057.012,6.458a2.955,2.955,0,0,0,1.349,2.13,2.278,2.278,0,0,0,1.141.29Z" transform="translate(33.763 65.413)" fill="#e97a75"/>
                  <path id="Path_628" data-name="Path 628" d="M9.409,6.537a.335.335,0,0,0,.236-.574L7.95,4.289a.334.334,0,0,0-.327-.083l-2.764.787c-.881.308-3.459.961-3.979,0a1.692,1.692,0,0,1,.394-2.07A19.418,19.418,0,0,1,6.552.747a5.256,5.256,0,0,1,3.2.457.335.335,0,1,0,.3-.6A5.912,5.912,0,0,0,6.438.087,20.06,20.06,0,0,0,.883,2.381,2.345,2.345,0,0,0,.289,5.311c.883,1.638,4.377.461,4.773.32L7.619,4.9,9.174,6.439a.335.335,0,0,0,.236.1Z" transform="translate(36.406 70.985)" fill="#e97a75"/>
                  <path id="Path_633" data-name="Path 633" d="M2.5,8.878a3.388,3.388,0,0,0,1.258-.264A.335.335,0,0,0,3.51,7.99,2.05,2.05,0,0,1,1.691,8,2.381,2.381,0,0,1,.672,6.349C.566,5.7,2.371,4.574,3.623,4.02L8.1,1.419A4.744,4.744,0,0,1,9.9.679a1.367,1.367,0,0,1,1.406.678.336.336,0,1,0,.621-.256A2,2,0,0,0,9.831.013,5.246,5.246,0,0,0,7.763.84L3.32,3.425C2.755,3.672-.214,5.057.012,6.458a2.955,2.955,0,0,0,1.349,2.13,2.278,2.278,0,0,0,1.141.29Z" transform="translate(33.763 65.413)" fill="#e97a75"/>
                  <path id="Path_634" data-name="Path 634" d="M2.655,7.9a3.258,3.258,0,0,0,1.139-.224.279.279,0,0,0,.17-.369.313.313,0,0,0-.395-.159c-.651.243-2.053.934-2.5.7C.38,7.48.467,6.543.426,6.307c-.1-.552,2.111-2.049,3.246-2.518l4.056-2.2A4.47,4.47,0,0,1,9.358.962C9.845.918,11.439.224,11.63.66c.064.145.694.193.851.133s-.094-.332-.158-.477C12-.407,9.992.327,9.3.4a4.948,4.948,0,0,0-1.874.7L3.4,3.286C2.886,3.495-.2,5.2.01,6.383c.137.8.125,1.436.751,1.767.243.129,1.448-.25,1.9-.25Z" transform="matrix(0.996, -0.087, 0.087, 0.996, 34.739, 61.035)" fill="#e97a75"/>
                </g>
                <path id="Path_630" data-name="Path 630" d="M0,5.425A17.884,17.884,0,0,1,9.976.121c1.31-.217,2.818-.228,3.771.7A4.139,4.139,0,0,1,14.734,3.7a13.054,13.054,0,0,1-.7,4.69,4.672,4.672,0,0,1-2.415,3.037c-1.325.511-2.8-.042-4.108-.587L1.862,8.488a3.309,3.309,0,0,1-1.229-.74,1.131,1.131,0,0,1-.2-1.329c.442-.67,1.468-.375,2.2-.039a10.478,10.478,0,0,0,5.3,1.209A4.72,4.72,0,0,0,12.09,4.508c.138-.484.114-1.115-.328-1.354a1.347,1.347,0,0,0-.988.016L0,6.164" transform="translate(25.012 30.442) rotate(-30)" fill="#407bff"/>
              </g>
            </g>
          </g>
          <path id="Path_753" data-name="Path 753" d="M267.68,125.229c-.013,1.519-.885,2.809-1.949,2.881s-1.915-1.1-1.9-2.618.885-2.809,1.948-2.881,1.914,1.1,1.9,2.62Z" transform="translate(-28.997 299.001)" fill="#263238"/>
          <path id="Path_760" data-name="Path 760" d="M268.762,122.749l-3.755-.7S267.168,124.721,268.762,122.749Z" transform="translate(-31.659 298.81)" fill="#263238"/>
          <path id="Path_1109" data-name="Path 1109" d="M267.68,125.229c-.013,1.519-.885,2.809-1.949,2.881s-1.915-1.1-1.9-2.618.885-2.809,1.948-2.881,1.914,1.1,1.9,2.62Z" transform="translate(-12.909 300.429)" fill="#263238"/>
          <path id="Path_1110" data-name="Path 1110" d="M268.762,122.749l-3.755-.7S267.168,124.721,268.762,122.749Z" transform="translate(-15.571 300.238)" fill="#263238"/>
          <g id="Group_121" data-name="Group 121" transform="translate(241.106 439.842) rotate(14)">
            <path id="Path_763" data-name="Path 763" d="M0,4.589A40.748,40.748,0,0,1,2.7,9.854c.339-.078.678-.156,1.014-.252,4.577-1.176,6.313-3.232,6.848-5.158A6.114,6.114,0,0,0,10.6,1.559,5.939,5.939,0,0,0,10.058,0C8,2.073,3.82,3.5,1.554,4.164.607,4.454,0,4.589,0,4.589Z" transform="translate(0 0)" fill="#263238"/>
            <path id="Path_764" data-name="Path 764" d="M0,4.164.838,5.7C5.147,4.578,8.031,3.214,9.044,1.559A5.939,5.939,0,0,0,8.5,0C6.449,2.073,2.266,3.5,0,4.164Z" transform="translate(1.555)" fill="#fff"/>
            <path id="Path_765" data-name="Path 765" d="M0,5.158C4.577,3.982,6.313,1.925,6.848,0A15.182,15.182,0,0,0,2.024,2.313,5.709,5.709,0,0,0,0,5.158Z" transform="translate(3.718 4.444)" fill="#fb504e"/>
          </g>
          <path id="Path_1104" data-name="Path 1104" d="M.507,7.886S1.176.542,3.347.035,5.852,4.557,5.517,9.387s-3,6.177-4.676,4.839S.507,7.886.507,7.886Z" transform="translate(134.612 591.736) rotate(40)" fill="#f0bdb0" stroke="#e97a75" stroke-linecap="round" stroke-linejoin="round" stroke-width="1"/>
          <path id="Path_1105" data-name="Path 1105" d="M.1,8.333S-.547.98,1.5.1s3.265,4,3.789,8.818-1.854,6.611-3.744,5.616S.1,8.333.1,8.333Z" transform="translate(129.893 589.896) rotate(40)" fill="#f0bdb0" stroke="#e97a75" stroke-linecap="round" stroke-linejoin="round" stroke-width="1"/>
          <path id="Path_1106" data-name="Path 1106" d="M.093,8.324S-.54.98,1.5.1s3.265,4,3.789,8.818S3.421,15.532,1.549,14.51.093,8.324.093,8.324Z" transform="translate(125.351 588.292) rotate(40)" fill="#f0bdb0" stroke="#e97a75" stroke-linecap="round" stroke-linejoin="round" stroke-width="1"/>
          <path id="Path_1108" data-name="Path 1108" d="M1.065,7.378S-1.061,1.626.694.288,4.6,2.512,6.121,6.257s-.4,5.933-2.388,5.689S1.065,7.378,1.065,7.378Z" transform="translate(118.47 587.495) rotate(40)" fill="#f0bdb0" stroke="#e97a75" stroke-linecap="round" stroke-linejoin="round" stroke-width="1"/>
        </g>
        <circle id="Ellipse_2" data-name="Ellipse 2" cx="94" cy="94" r="94" transform="translate(1141 660)" fill="#fff" opacity="0.12"/>
        <g id="Ellipse_3" data-name="Ellipse 3" transform="translate(612 -32)" fill="#fff" stroke="#707070" stroke-width="1" opacity="0.12">
          <circle cx="70" cy="70" r="70" stroke="none"/>
          <circle cx="70" cy="70" r="69.5" fill="none"/>
        </g>
        <g id="Ellipse_4" data-name="Ellipse 4" transform="translate(1210 71)" fill="#fff" stroke="#707070" stroke-width="1" opacity="0.12">
          <circle cx="70" cy="70" r="70" stroke="none"/>
          <circle cx="70" cy="70" r="69.5" fill="none"/>
        </g>
        <circle id="Ellipse_5" data-name="Ellipse 5" cx="70" cy="70" r="70" transform="translate(714 708)" fill="#fff" opacity="0.12"/>
      </g>
    </g>
  </g>
</svg>
