<svg id="flag-for-flag-syria-svgrepo-com" xmlns="http://www.w3.org/2000/svg" width="21.01" height="15.174" viewBox="0 0 21.01 15.174">
  <path id="Path_15391" data-name="Path 15391" d="M0,13H21.01v5.836H0Z" transform="translate(0 -8.331)" fill="#eee"/>
  <path id="Path_15392" data-name="Path 15392" d="M18.676,5H2.334A2.334,2.334,0,0,0,0,7.334V9.669H21.01V7.334A2.334,2.334,0,0,0,18.676,5Z" transform="translate(0 -5)" fill="#007a3d"/>
  <path id="Path_15393" data-name="Path 15393" d="M18.676,27.669H2.334A2.334,2.334,0,0,1,0,25.334V23H21.01v2.334A2.334,2.334,0,0,1,18.676,27.669Z" transform="translate(0 -12.495)" fill="#141414"/>
  <path id="Path_15394" data-name="Path 15394" d="M8.605,17.021l-.414,1.136,1.084-.7,1.084.7-.414-1.136,1.084-.7H9.689l-.414-1.136-.414,1.136H7.521Zm10.213,0L18.4,18.157l1.084-.7,1.084.7-.414-1.136,1.084-.7H19.9l-.414-1.136-.414,1.136h-1.34Z" transform="translate(-3.877 -9.24)" fill="#ce1126"/>
  <path id="Path_15395" data-name="Path 15395" d="M8.487,17.021l-.369,1.136.966-.7.966.7-.369-1.136.966-.7H9.453l-.369-1.136-.369,1.136H7.521Z" transform="translate(1.42 -9.24)" fill="#ce1126"/>
</svg>
