<svg xmlns="http://www.w3.org/2000/svg" width="25.49" height="16.434" viewBox="0 0 25.49 16.434">
  <g id="selfie-2" transform="translate(0.75 0.75)">
    <path id="Path_640" data-name="Path 640" d="M14.522,33.856A5.915,5.915,0,0,1,19.936,30a5.915,5.915,0,0,1,5.414,3.856" transform="translate(-7.941 -19.147)" fill="none" stroke="#acacac" stroke-linecap="round" stroke-linejoin="round" stroke-width="1.5"/>
    <path id="Path_641" data-name="Path 641" d="M26.99,23V13.856A2.856,2.856,0,0,0,24.134,11H5.856A2.856,2.856,0,0,0,3,13.856V23a2.856,2.856,0,0,0,2.856,2.856H24.134A2.856,2.856,0,0,0,26.99,23Z" transform="translate(-3 -11)" fill="none" stroke="#acacac" stroke-linecap="round" stroke-linejoin="round" stroke-width="1.5"/>
    <path id="Path_642" data-name="Path 642" d="M8.571,21.286v2.856a.286.286,0,1,1-.571,0V21.286a.286.286,0,0,1,.571,0Z" transform="translate(-5.144 -15.288)" fill="none" stroke="#acacac" stroke-linecap="round" stroke-linejoin="round" stroke-width="1.5"/>
    <path id="Path_643" data-name="Path 643" d="M22.07,22.141a2.57,2.57,0,1,0-2.57-2.57A2.57,2.57,0,0,0,22.07,22.141Z" transform="translate(-10.075 -13.573)" fill="none" stroke="#acacac" stroke-linecap="round" stroke-linejoin="round" stroke-width="1.5"/>
    <path id="Path_644" data-name="Path 644" d="M38.571,17.142A.571.571,0,1,0,38,16.571.571.571,0,0,0,38.571,17.142Z" transform="translate(-18.008 -13.144)" fill="none" stroke="#acacac" stroke-linecap="round" stroke-linejoin="round" stroke-width="1.5"/>
  </g>
</svg>
